<svg width="369" height="13" viewBox="0 0 369 13" fill="none" xmlns="http://www.w3.org/2000/svg">
<path d="M28.0948 11.0659C28.3264 11.0783 29.254 11.1895 29.6582 11.2205C29.1898 11.2891 27.2582 11.0231 28.0948 11.0659ZM69.2311 4.82291C68.9011 4.84944 68.571 4.87597 68.241 4.90251C69.1789 4.91974 70.4396 4.90027 71.31 4.92546C71.4523 4.92968 71.083 5.0065 71.4199 5.00993C71.7568 5.01334 71.6918 4.90836 72.1818 4.89713C72.4193 4.89183 73.0239 4.90247 73.7045 4.91612C74.5991 4.93407 75.6249 4.95723 76.1199 4.95622C78.0563 4.95201 80.0026 4.92915 81.9484 4.92041C83.2783 4.91445 84.608 4.91508 85.9341 4.93278C82.5619 5.01044 85.96 5.08949 86.9045 5.05583C87.1081 5.04825 87.082 4.86347 90.1924 4.89851C90.2803 4.8995 90.3707 4.90067 90.4637 4.90202C92.6139 4.9332 90.6279 5.21221 94.2159 5.07243C91.4568 4.87725 94.17 4.89093 96.3328 4.88444C96.526 4.88384 97.4274 4.89143 98.4363 4.89767C99.3747 4.90348 100.406 4.90814 101.047 4.90397C101.502 4.90096 102.195 4.79874 102.799 4.79606C103.214 4.79429 103.529 4.85017 104.146 4.84733C104.994 4.84361 105.838 4.84061 106.68 4.83872C108.694 4.83419 110.699 4.83596 112.73 4.84928C111.047 5.11198 114.051 4.96124 114.186 4.9738C114.873 5.04512 111.769 5.06542 112.996 5.11003C113.639 5.10698 114.282 5.10394 114.924 5.10089C115.996 5.0958 117.068 5.08986 118.139 5.08312C116.733 5.05307 120 4.85909 120.601 4.94272C120.334 4.71462 128.406 5.11584 129.636 5.02688C129.866 5.01065 128.54 4.92539 131.073 4.92789C131.363 4.92812 131.704 4.92944 132.103 4.93205C132.524 4.93493 132.365 5.00608 132.586 4.99798C132.718 4.99312 133.517 4.76481 134.371 4.88125C134.682 4.92341 132.691 5.08617 137.066 4.99186C135.321 4.78122 143.132 4.81591 144.57 4.85584C144.283 4.82832 143.995 4.80077 143.708 4.7732C145.129 4.84105 145.385 4.76123 145.705 4.76215C146.168 4.7634 146.693 4.77176 147.231 4.781C148.194 4.79754 149.2 4.81688 149.971 4.80382C151.377 4.78006 151.38 4.63914 153.02 4.67531C152.631 4.64866 152.242 4.62199 151.852 4.59529C152.985 4.59001 154.117 4.58449 155.25 4.57881C152.629 4.79566 155.816 4.58121 156.026 4.57465C156.36 4.56395 155.88 4.64593 156.44 4.62987C156.498 4.62762 156.414 4.55672 157.277 4.53849C159.081 4.50058 158.797 4.59431 159.555 4.5843C159.624 4.583 159.38 4.52114 160.689 4.49022C164.848 4.39175 160.669 4.54013 160.509 4.55096C160.3 4.56524 161.729 4.81905 158.195 4.76499C159.382 4.78151 159.502 4.89985 159.636 4.90124C159.754 4.9023 161.809 4.86091 161.923 4.85542C162.933 4.80266 162.043 4.73143 162.239 4.71441C162.309 4.70849 162.808 4.71941 163.4 4.71354C164.182 4.70578 165.127 4.66869 165.456 4.52457C166.52 4.71545 165.131 4.73641 163.4 4.78098C163.2 4.78613 162.996 4.7916 162.79 4.79768C162.668 4.81878 162.985 4.83441 163.401 4.84531C163.973 4.86027 164.731 4.86634 164.798 4.86548C167.613 4.83146 166.052 4.66326 166.666 4.53651C166.988 4.47018 168.137 4.584 167.076 4.42908C169.631 4.38109 168.083 4.49654 168.248 4.50894C168.497 4.52708 169.391 4.46853 169.503 4.47361C169.667 4.48114 169.097 4.54586 169.744 4.55866C169.852 4.56037 170.895 4.44832 169.548 4.41642C171.346 4.4095 171.197 4.3262 171.809 4.49059C173.044 4.15182 172.71 4.67199 173.198 4.68455C174.495 4.71764 174.116 4.46724 174.184 4.45403C174.655 4.36884 178.247 4.4164 179.136 4.37048C178.787 4.55757 176.289 4.40339 175.732 4.44536C173.873 4.58452 178.355 4.50794 177.006 4.75351C177.572 4.68396 178.138 4.61447 178.703 4.54505C179.455 4.64403 178.895 4.71347 179.579 4.71279C179.842 4.71254 180.289 4.7019 181.066 4.67878C181.434 4.57158 179.918 4.66417 179.578 4.64808C179.497 4.64424 179.483 4.63422 179.577 4.61384C179.577 4.61377 179.577 4.61369 179.578 4.61361C179.868 4.5515 181.484 4.52192 181.516 4.49051C181.548 4.4526 180.083 4.51235 180.313 4.45223C180.816 4.32174 186.161 4.3871 182.094 4.49583C183.229 4.48218 183.816 4.72421 184.799 4.63748C185.435 4.58146 181.851 4.27291 187.223 4.28518C187.338 4.401 185.076 4.3396 185.017 4.34923C184.935 4.36298 185.347 4.6231 185.418 4.63547C185.668 4.67507 191.152 4.48502 192.313 4.61005C191.982 4.50289 194.266 4.51913 195.765 4.51995C196.352 4.52016 196.818 4.51778 196.959 4.50381C197.093 4.49013 196.593 4.39979 196.736 4.389C197.626 4.3242 200.036 4.47748 201.153 4.47685C202.404 4.47597 202.245 4.39614 202.315 4.39594C202.865 4.39812 202.426 4.4547 202.762 4.45315C203.27 4.45003 206.765 4.45026 206.94 4.43915C206.992 4.43548 206.421 4.34458 207.183 4.32531C207.315 4.32221 207.232 4.43085 209.487 4.38045C212.202 4.32081 207.601 4.24661 208.729 4.13098C210.474 4.29165 210.417 4.13063 210.89 4.14292C210.98 4.14542 211.39 4.18797 211.961 4.22447C211.961 4.22447 211.961 4.22447 211.961 4.22447C212.425 4.25427 212.995 4.27918 213.586 4.2735C213.045 4.2879 212.503 4.30152 211.961 4.31431C211.556 4.32382 211.151 4.33345 210.746 4.3432C211.071 4.3514 211.503 4.35308 211.961 4.35308C212.813 4.35322 213.751 4.34396 214.248 4.35953C214.62 4.37109 214.314 4.48562 215.122 4.47833C215.294 4.47556 215.973 4.19863 213.856 4.33123C213.687 4.23375 214.695 4.29397 215.162 4.26325C215.232 4.25848 215.51 4.09307 216.108 4.19075C216.252 4.21311 214.691 4.70907 218.722 4.324C218.852 4.31142 218.399 4.25645 218.526 4.24264C218.576 4.23722 218.945 4.23933 219.268 4.23982C219.5 4.2402 219.709 4.23979 219.757 4.23563C219.873 4.22508 219.375 4.16579 219.513 4.15122C220.222 4.0762 221.159 4.32314 219.693 4.32237C220.183 4.34836 220.674 4.37388 221.164 4.39897C220.637 4.2109 221.933 4.33324 222.611 4.3161C226.957 4.20337 224.044 4.12602 224.79 4.04748C225.924 3.9267 225.173 4.23404 226.589 4.15475C226.672 4.15006 226.763 4.14403 226.862 4.13649C226.915 4.1324 226.727 4.11936 226.588 4.10338C226.454 4.08795 226.366 4.06983 226.587 4.05458C226.847 4.03648 227.535 4.02287 229.082 4.01921C228.46 4.03809 227.838 4.05661 227.216 4.07469C227.578 4.25693 229.463 4.01494 229.608 4.00883C231.264 3.94623 230.145 4.03985 232.603 3.8862C232.823 3.87238 233.303 3.90791 233.773 3.87357C233.827 3.86964 233.876 3.86592 233.92 3.86241C234.429 3.82213 234.311 3.80952 233.919 3.80822C233.114 3.80578 231.157 3.84938 231.075 3.80097C231.042 3.78076 232.552 3.74037 233.916 3.70975C234.988 3.68582 235.971 3.66846 236.044 3.67455C236.755 3.73663 233.841 3.76188 234.398 3.8466C234.555 3.87035 238.732 3.73266 241.268 3.67282C242.012 3.65528 242.615 3.64446 242.932 3.6459C244.541 3.65365 245.271 3.89478 245.275 3.60642C245.735 3.87932 246.132 3.67794 246.338 3.67557C247.475 3.66374 248.094 3.65881 248.634 3.64995C249.277 3.63959 249.809 3.62347 250.97 3.58871C251.442 3.57474 251.842 3.6541 252.009 3.63694C252.106 3.62665 251.922 3.53767 252.399 3.50184C252.833 3.46923 254.703 3.47378 256.012 3.49924C256.687 3.51232 257.209 3.52439 257.308 3.53996C257.548 3.57797 256.277 3.58818 256.014 3.63053C255.957 3.63995 255.947 3.65127 256.01 3.66527C256.011 3.66526 256.013 3.66525 256.014 3.66524C257.423 3.65764 258.745 3.60429 260.145 3.56375C260.73 3.54649 260.432 3.61571 260.684 3.60744C260.792 3.6069 262.81 3.46702 262.724 3.44728C262.508 3.43458 256.31 3.65699 257.941 3.50111C258.256 3.47526 259.369 3.57771 259.188 3.41887C260.481 3.3884 261.79 3.34343 263.095 3.28769C265.465 3.18649 267.843 3.04919 270.229 2.89447C272.146 2.77022 274.068 2.63475 275.995 2.49778C274.164 2.70937 272.203 2.85599 270.235 2.98122C268.726 3.07737 267.213 3.16064 265.751 3.25246C265.29 3.28286 263.731 3.35181 263.925 3.42355C265.861 3.33678 268.12 3.17628 270.239 3.02978C271.249 2.96022 272.227 2.89462 273.122 2.84421C273.211 2.83927 272.892 2.93805 273.224 2.92463C273.846 2.89999 275.86 2.62384 276.203 2.62809C276.262 2.63081 275.117 2.81786 275.472 2.85277C276.384 2.94237 276.585 2.57163 277.36 2.5157C277.378 2.51439 277.4 2.51299 277.424 2.5115C278.2 2.46274 282.036 2.32798 283.009 2.15673C284.072 1.96302 280.022 2.3075 280.316 2.19364C281.756 2.03468 283.214 1.93265 284.653 1.8488C285.943 1.77363 287.217 1.71308 288.451 1.63792C288.497 1.63505 288.093 1.58379 288.676 1.54074C289.69 1.46698 289.963 1.55916 290.458 1.55138C290.734 1.54706 291.372 1.51743 291.96 1.49645C292.509 1.47656 293.015 1.46398 293.138 1.47802C293.171 1.48177 292.791 1.59981 292.733 1.60507C292.395 1.63565 292.147 1.63358 291.965 1.62039C291.704 1.60148 291.582 1.5596 291.538 1.5605C291.256 1.56777 290.982 1.63206 290.726 1.64117C290.304 1.65628 290.069 1.61991 289.512 1.64471C289.128 1.66193 289.503 1.73386 289.133 1.74945C288.997 1.75373 287.522 1.62814 287.399 1.85086C287.383 1.88134 289.451 1.78085 291.968 1.69817C294.534 1.60808 297.626 1.56652 299.328 1.56651C299.328 1.56651 299.328 1.56651 299.328 1.56651C299.944 1.56432 300.386 1.5588 300.57 1.55019C300.156 1.54017 299.742 1.52991 299.328 1.51941C298.721 1.50419 298.111 1.49274 297.497 1.48487C298.098 1.49548 298.729 1.49044 299.328 1.48561C300.811 1.47348 302.108 1.43391 302.233 1.61436C305.123 1.61446 308.016 1.60349 310.91 1.58448C314.772 1.5591 318.636 1.51942 322.503 1.47259C323.375 1.46202 324.248 1.45109 325.121 1.43987C326.485 1.44 325.74 1.61446 327.983 1.5312C327.402 1.4888 326.821 1.44633 326.241 1.40375C327.391 1.42252 332.49 1.40938 333.315 1.36189C333.396 1.35719 333.5 1.26957 334.105 1.213C334.296 1.1952 334.536 1.18048 334.841 1.17238C335.972 1.14242 336.155 1.24957 336.76 1.26066C337.268 1.26966 337.838 1.23142 337.988 1.23502C338.104 1.23799 338.151 1.3046 338.429 1.31179C339.308 1.33374 338.593 1.15569 339.469 1.35929C339.257 1.37104 339.044 1.3828 338.832 1.39456C339.893 1.40874 341.343 1.48439 339.782 1.55834C339.514 1.57111 339.743 1.50221 339.543 1.50557C331.704 1.64698 337.965 1.66954 340.712 1.52431C341.419 1.60899 345.373 1.48897 345.505 1.50664C345.675 1.52967 345.107 1.6063 345.73 1.65996C345.78 1.66419 345.836 1.66828 345.901 1.67219C346.088 1.68213 351.378 1.55585 349.474 1.71022C349.082 1.74159 346.545 1.74941 345.933 1.76255C347.375 1.9453 350.743 1.60674 351.123 1.61009C352.653 1.62244 348.186 1.8251 351.633 1.80488C354.284 1.79105 351.794 1.68434 352.813 1.61379C353.385 1.57347 356.387 1.69212 356.304 1.49859C357.334 1.46775 356.732 1.57686 356.859 1.58304C356.895 1.58457 357.086 1.5793 357.356 1.57191C358.03 1.5533 359.197 1.52219 359.666 1.54804C359.746 1.55254 359.496 1.65582 359.578 1.66348C359.739 1.67603 361.692 1.64222 361.771 1.63354C361.821 1.62725 361.354 1.54145 361.546 1.51873C361.769 1.49209 363.649 1.50277 363.753 1.47732C363.899 1.43776 361.578 1.47567 361.964 1.37453C363.034 1.39272 364.778 1.31896 365.484 1.23716C365.311 1.26042 364.273 1.26754 363.913 1.26125C364.082 1.11457 366.311 1.10911 365.549 1.2267C366.033 1.16348 365.702 1.13169 365.975 1.07262C366.046 1.05759 366.735 1.0529 366.867 1.02754C366.885 1.02244 366.174 0.969223 366.316 0.939399C366.574 0.884842 368.661 0.894203 368.832 0.908751C369.313 0.948158 367.611 0.99686 367.469 1.05876C367.449 1.06794 368.896 1.18694 368.918 1.19781C369.003 1.31132 367.392 1.23052 367.577 1.33303C367.975 1.35416 368.373 1.3755 368.771 1.39706C367.235 1.50002 364.395 1.45603 363.663 1.57833C365.939 1.53186 368.322 1.53459 368.317 1.80059C368.315 1.91243 367.334 1.97914 367.372 2.00767C367.516 2.10905 368.879 1.99741 368.929 2.00302C369.391 2.07169 367.057 2.12208 366.95 2.15292C366.787 2.20154 367.651 2.3992 367.65 2.44333C367.62 2.45198 366.237 2.50179 366.704 2.57774C367.176 2.65414 368.386 2.65466 368.429 2.66286C368.66 2.70871 366.543 2.75372 366.48 2.78186C366.447 2.79565 367.584 2.87874 367.617 2.90335C367.645 2.92782 366.781 2.98277 366.441 3.06126C366.188 3.11946 366.927 3.16198 366.797 3.17132C366.704 3.17701 364.705 3.182 364.606 3.193C364.46 3.20854 364.929 3.27562 364.861 3.29311C364.764 3.31818 364.118 3.29596 364.203 3.32112C364.266 3.33911 366.769 3.56868 366.753 3.63286C366.724 3.7406 364.074 3.49946 366.541 3.91946C366.558 3.92218 367.158 3.89066 367.174 3.89331C367.545 3.97127 365.622 4.09515 367.973 4.07048C363.6 4.21547 367.429 4.23347 366.782 4.41701C366.533 4.48713 364.838 4.5212 364.83 4.53205C364.995 4.6202 365.535 4.5495 365.719 4.59254C365.82 4.61633 364.304 4.71563 364.645 4.77544C364.822 4.80584 366.431 4.78977 366.497 4.79606C367.134 4.85249 366.354 4.91644 366.494 4.95721C366.587 4.9844 367.558 4.98486 367.583 4.9899C367.624 4.99998 366.306 5.11359 366.031 5.15369C365.823 5.1843 366.606 5.22943 366.461 5.24294C365.583 5.32311 363.715 5.13042 365.516 5.40423C365.625 5.42101 366.306 5.4122 366.326 5.41563C366.747 5.49401 365.494 5.50406 365.27 5.57008C364.886 5.68333 366.686 5.61523 365.189 5.69878C366.312 5.76844 366.938 5.76379 368.252 5.74219C364.613 5.80475 363.331 6.10149 367.369 6.08302C366.085 6.08078 366.228 6.24468 365.844 6.24849C365.606 6.25034 363.743 6.09487 364.598 6.45685C364.706 6.5019 365.837 6.44016 365.483 6.53476C362.767 6.52114 365.425 6.594 365.428 6.60671C365.394 6.81741 358.759 6.67949 357.618 6.71945C357.546 6.72166 357.474 6.72429 357.403 6.72729C356.17 6.77925 355.105 6.94232 354.833 6.94545C353.887 6.95586 354.671 6.86117 354.46 6.83183C354.245 6.80227 351.555 6.99909 351.42 6.99222C350.899 6.96242 351.427 6.85372 351.372 6.84926C350.726 6.79403 347.111 6.92323 346.098 6.91518C346.13 6.98073 348.163 6.95682 346.896 7.08133C346.388 7.13125 346.045 7.12981 345.811 7.10586C345.364 7.06013 345.317 6.93226 345.292 6.9242C341.597 6.98094 337.901 7.04395 334.204 7.10703C331.124 7.15956 328.043 7.21214 324.96 7.26115C325.048 7.41564 329.479 7.22759 329.58 7.24595C330.084 7.34052 324.781 7.44091 322.591 7.44082C322.197 7.441 321.904 7.43813 321.764 7.43182C322.04 7.44104 322.316 7.45022 322.591 7.45937C323.014 7.4734 323.437 7.48735 323.86 7.50122C323.532 7.55547 323.093 7.5801 322.593 7.5894C321.282 7.61391 319.553 7.53249 318.305 7.60592C317.748 7.63881 318.819 7.69356 318.797 7.6985C318.171 7.77627 317.165 7.73577 317.916 7.633C316.388 7.74181 316.61 7.64051 315.436 7.64728C315.376 7.64767 315.88 7.71379 314.952 7.75453C314.517 7.77397 312.196 7.79905 311.886 7.86464C311.758 7.89251 312.939 8.15988 313.082 7.91786C315.608 8.0074 313.887 7.79958 314.868 7.79408C315.018 7.79332 314.674 7.93259 317.143 7.83877C316.675 8.08726 313.829 7.93983 313.342 7.97369C312.337 8.04538 316.482 8.12414 317.24 7.92446C316.887 8.11771 317.534 7.94632 318.457 7.94183C319.468 7.93672 319.028 7.99882 319.575 7.99168C321.07 7.97229 320.449 7.84772 321.683 7.95016C321.033 7.75909 321.696 7.75098 322.596 7.79673C323.368 7.8359 324.313 7.91435 324.758 7.95238C324.039 7.97214 323.319 7.99171 322.6 8.01103C321.749 8.03386 320.899 8.05634 320.049 8.07841C320.139 8.09669 320.229 8.11496 320.319 8.13323C319.905 8.13627 319.492 8.1392 319.078 8.14204C319.144 8.12242 319.21 8.10281 319.276 8.08319C317.144 8.23366 316.622 8.10254 316.448 8.10336C314.726 8.11248 312.799 8.13174 310.97 8.14811C310.42 8.15306 309.878 8.15778 309.353 8.16198C309.013 8.16428 309.248 8.28576 306.768 8.20723C305.978 8.18175 306.724 8.08258 305.827 8.10203C304.707 8.3655 304.727 8.15979 304.393 8.16107C303.436 8.16538 302.851 8.23077 302.762 8.23176C301.803 8.24292 300.484 8.23993 299.328 8.24251C299.328 8.24251 299.328 8.24251 299.328 8.24251C299.062 8.24314 298.806 8.24498 298.565 8.24806C298.541 8.24912 299.204 8.32496 298.377 8.30583C298.078 8.29654 295.509 7.98571 293.224 8.18667C293.817 8.18741 294.41 8.19085 295.001 8.19728C294.668 8.19048 293.373 8.24165 292.246 8.31644C291.025 8.39623 290.002 8.49659 290.626 8.51174C291.008 8.52148 291.672 8.44514 292.25 8.40058C292.783 8.35923 293.243 8.34446 293.34 8.44136C293.11 8.44092 292.733 8.44939 292.253 8.46613C290.529 8.52184 287.47 8.70931 285.13 8.87913C283.522 8.99341 282.255 9.08883 282.007 9.08986C281.909 9.0901 282.504 8.9782 282.368 8.97948C282.264 8.97964 280.191 9.1515 279.912 9.14737C279.747 9.1444 280.662 9.03295 280.585 9.01433C280.528 9.00299 278.55 9.13074 277.945 9.22846C277.856 9.24286 277.797 9.25656 277.778 9.26898C277.828 9.26245 277.885 9.25575 277.947 9.24904C278.678 9.16961 280.135 9.08836 279.274 9.22085C279.154 9.23899 278.523 9.23268 278.377 9.25536C277.022 9.46466 281.094 9.1243 281.72 9.08083C280.656 9.20532 279.345 9.30997 277.959 9.41206C276.031 9.55417 273.959 9.68966 272.224 9.85899C271.013 9.87796 274.004 9.6178 272.635 9.66098C269.794 9.74785 271.889 9.81439 271.802 9.8299C271.577 9.86949 271.172 9.8748 270.728 9.87291C269.793 9.86937 268.68 9.83159 268.693 10.0286C267.658 10.0526 267.991 9.99557 266.535 10.1239C266.728 10.1324 266.921 10.1407 267.115 10.1488C266.155 10.3107 264.534 10.2923 263.437 10.2322C262.697 10.1924 262.197 10.1367 262.3 10.1192C262.565 10.074 262.993 10.0537 263.428 10.044C264.127 10.0286 264.844 10.0399 264.938 10.0326C265.163 10.0137 265.772 9.69093 268.252 9.79504C269.248 9.53659 264.336 9.90443 266.565 9.63234C266.001 9.67503 264.777 9.73389 263.415 9.78452C261.14 9.87475 258.46 9.91563 257.895 9.97915C257.788 9.99177 258.291 10.1826 256.743 10.1091C256.01 10.0728 257.777 10.0419 257.442 10.0017C257.278 9.98304 256.793 9.97667 256.084 9.9729C254.454 9.96304 251.629 9.99983 248.758 10.0613C245.997 10.1195 243.202 10.197 241.422 10.2467C240.789 10.2644 240.284 10.2785 239.955 10.2873C239.785 10.2915 239.846 10.2287 239.678 10.2333C239.163 10.2472 237.286 10.3837 236.363 10.3776C238.042 10.4369 235.393 10.5197 234.077 10.5453C233.893 10.5489 233.734 10.5514 233.618 10.5526C232.183 10.5671 232.269 10.4569 231.648 10.4482C230.243 10.4282 228.387 10.5357 226.715 10.5841C225.542 10.6181 224.459 10.6231 223.69 10.5372C223.788 10.7555 220.966 10.5174 219.342 10.488C219.205 10.4857 219.077 10.4849 218.96 10.486C217.776 10.4981 216.059 10.6691 217.659 10.751C215.764 10.759 213.766 10.8066 211.961 10.8234C211.82 10.8247 211.681 10.8259 211.543 10.827C211.228 10.8295 211.662 10.7591 211.124 10.7656C211.075 10.7667 211.007 10.8356 210.545 10.8431C206.731 10.9075 208.587 10.7593 207.874 10.7172C207.474 10.6939 207.18 10.6825 206.963 10.6791C208.823 10.6633 210.923 10.6409 211.961 10.6335C212.164 10.632 212.326 10.6309 212.439 10.6305C212.353 10.6083 212.186 10.5933 211.961 10.5836C211.961 10.5836 211.961 10.5836 211.961 10.5836C210.647 10.526 207.323 10.6581 206.238 10.6267C206.194 10.6253 206.347 10.5411 206.302 10.5406C206.301 10.5406 206.3 10.5406 206.299 10.5406C205.823 10.5348 202.789 10.5766 203.414 10.6745C203.582 10.7006 204.978 10.695 206.634 10.6818C206.186 10.7017 206.521 10.7948 206.442 10.799C205.483 10.8476 203.133 10.7641 202.298 10.7557C202.108 10.7538 202.122 10.8139 202.091 10.8142C201.332 10.8039 201.642 10.6306 200.865 10.8115C199.49 10.6037 203.439 10.7678 203.16 10.6305C203.005 10.5525 198.34 10.5828 195.806 10.6764C194.849 10.7112 194.196 10.7538 194.204 10.8C194.173 10.7822 194.053 10.7606 193.805 10.737C193.256 10.6841 190.815 10.7209 190.394 10.7557C190.323 10.7624 190.352 10.9259 190.264 10.9282C190.044 10.9335 187.059 10.831 185.945 10.9386C186.547 10.9559 187.149 10.9733 187.751 10.9909C184.116 11.0257 184.679 11.0699 185.89 11.1071C185.951 11.107 186.01 11.1127 186.068 11.1128C187.007 11.1401 188.21 11.1643 188.229 11.1771C188.298 11.2246 182.131 11.3112 183.316 11.1482C183.481 11.1255 186.335 11.1658 184.921 11.0709C184.674 11.0542 182.842 11.1032 182.745 11.0924C182.1 11.0191 186.101 10.8743 185.611 10.7665C184.641 10.8831 183.394 10.8387 182.28 10.8778C181.773 10.8955 181.65 10.9789 181.587 10.9811C180.653 11.0122 181.176 10.9207 180.864 10.9261C180.768 10.9279 180.115 10.9961 179.646 11.0044C179.301 11.0104 179.056 10.9842 179.202 10.8758C174.001 11.092 176.486 11.0869 179.646 11.0472C180.172 11.0406 180.717 11.0331 181.248 11.0256C180.824 11.0632 180.253 11.0846 179.647 11.0982C178.574 11.1223 177.393 11.1219 176.732 11.1429C176.36 11.1548 176.581 11.2366 175.954 11.2605C174.664 11.3089 168.498 11.284 166.891 11.2807C167.877 11.2392 167.588 11.1508 166.827 11.1662C166.065 11.1816 166.706 11.2965 166.558 11.3115C166.449 11.3221 164.737 11.3183 163.479 11.3223C162.901 11.3242 162.418 11.3276 162.231 11.3349C162.779 11.3193 163.19 11.3033 163.478 11.288C164.223 11.2484 164.143 11.2129 163.477 11.1975C163.137 11.1896 162.644 11.187 162.029 11.1917C162.359 11.1614 162.689 11.1311 163.019 11.1008C161.681 11.1539 158.866 11.0478 158.092 11.0984C157.971 11.1065 158.408 11.1784 158.34 11.1829C157.662 11.2237 155.352 11.1722 155.245 11.1997C155.154 11.2226 156.14 11.2757 155.775 11.3117C155.698 11.3193 154.748 11.2263 153.813 11.2626C153.466 11.276 153.676 11.3464 153.588 11.3516C152.86 11.395 153.289 11.2675 151.958 11.3023C150.982 11.3279 150.257 11.4559 148.908 11.4309C153.337 11.5347 149.615 11.5125 147.764 11.5785C147.593 11.5846 147.606 11.6305 147.304 11.6593C147.084 11.6803 146.697 11.6922 145.95 11.6728C146.746 11.6141 147.158 11.5749 147.303 11.5499C147.39 11.5349 147.381 11.525 147.303 11.5189C146.889 11.4871 144.539 11.5604 143.881 11.565C143.827 11.5648 143.808 11.4778 143.321 11.4812C143.28 11.4817 143.34 11.5401 142.888 11.549C138.6 11.6326 141.341 11.5398 140.526 11.4895C140.179 11.4681 138.095 11.5701 137.533 11.5768C137.404 11.5781 137.463 11.5164 136.963 11.523C136.079 11.5348 135.288 11.6063 134.704 11.6159C134.636 11.6167 134.633 11.5203 133.527 11.5599C133.216 11.571 132.867 11.6078 133.309 11.6323C134.774 11.7132 137.552 11.5325 139.208 11.6085C140.718 11.6783 135.958 11.728 135.71 11.7296C135.619 11.7306 136.549 11.6752 135.604 11.6733C134.797 11.6719 133.324 11.85 132.122 11.822C132.036 11.8201 131.202 11.7038 131.118 11.6802C131.111 11.6784 131.109 11.6771 131.112 11.6765C131.113 11.6764 131.115 11.6762 131.118 11.676C131.223 11.6684 132.623 11.6285 132.413 11.59C132.388 11.5855 131.45 11.5929 131.327 11.5633C131.279 11.5516 131.203 11.5057 131.116 11.4487C130.935 11.3301 130.706 11.1634 130.57 11.1581C130.057 11.1388 130.391 11.2197 130.059 11.216C129.346 11.2087 126.874 11.1147 126.794 11.241C127.203 11.2464 127.611 11.2517 128.019 11.2569C125.747 11.2821 126.716 11.3304 126.394 11.3558C126.048 11.3831 126.145 11.2718 125.379 11.265C125.212 11.2641 122.007 11.2996 122.065 11.3454C123.838 11.2653 123.181 11.4044 123.263 11.4066C123.574 11.4144 123.97 11.336 124.387 11.3358C127.317 11.3347 124.362 11.4694 125.054 11.4974C125.292 11.5069 125.766 11.439 125.867 11.4419C126.196 11.4512 126.202 11.5371 126.421 11.5291C126.932 11.5104 126.334 11.3918 126.375 11.3852C126.831 11.307 128.621 11.3919 127.508 11.5303C128.177 11.5743 128.254 11.413 128.785 11.4742C129.84 11.5953 128.26 11.572 127.832 11.5954C126.298 11.6798 125.842 11.6207 123.669 11.6507C122.886 11.6613 121.958 11.7424 121.595 11.7478C121.366 11.7515 119.205 11.4851 119.142 11.9102C118.302 11.8708 116.985 11.5923 116.12 11.6055C115.344 11.6176 115.59 11.7679 115.518 11.7738C115.463 11.7783 115.208 11.7778 114.924 11.7786C114.633 11.7794 114.312 11.7816 114.151 11.7924C113.779 11.8175 113.965 11.875 113.375 11.8984C111.907 11.9565 111.946 11.8029 111.795 11.7929C110.043 11.6775 110.81 11.896 110.422 11.9135C110.21 11.923 108.375 11.8979 106.68 11.8868C105.488 11.8789 104.364 11.878 103.923 11.9008C104.357 11.8701 104.792 11.8393 105.226 11.8085C104.449 11.7127 103.625 11.869 103.61 11.6972C103.453 11.9745 101.848 11.7892 101.367 11.7963C101.177 11.7993 101.192 11.8465 100.954 11.8486C100.354 11.8539 99.2661 11.8401 98.4363 11.8361C97.9829 11.834 97.6065 11.8347 97.4286 11.8432C96.3168 11.8959 97.2237 11.9664 98.4363 12.0242C99.5993 12.0796 101.044 12.1233 101.258 12.1284C100.839 12.1269 99.4857 12.1403 98.4363 12.1693C97.29 12.2009 96.506 12.2511 97.6976 12.3208C97.8986 12.3325 98.1879 12.2972 98.4363 12.2639C98.624 12.2386 98.7884 12.2144 98.8736 12.2124C100.215 12.1804 99.1601 12.2916 99.2652 12.3022C99.444 12.3193 100.327 12.2118 100.56 12.2246C100.637 12.2287 100.137 12.3294 101.416 12.3315C101.043 12.3894 99.6258 12.385 98.4363 12.3766C97.6207 12.3708 96.912 12.3632 96.7201 12.3725C96.5521 12.3807 97.6053 12.5893 94.5285 12.3867C94.5642 12.406 94.5999 12.4254 94.6356 12.4448C93.1545 12.4517 91.6734 12.4586 90.1924 12.4655C89.9603 12.4665 89.7282 12.4676 89.4961 12.4687C89.6823 12.4241 90.6442 12.3345 89.4327 12.3535C88.7352 12.3645 89.2513 12.4639 89.1876 12.4668C88.8452 12.4817 85.3739 12.4786 81.9484 12.4745C79.1131 12.4711 76.3091 12.4671 75.3368 12.4721C74.9803 12.4739 74.3126 12.4938 73.7045 12.5139C73.067 12.535 72.4951 12.5563 72.4156 12.5571C71.4875 12.5651 68.2008 12.5131 67.5452 12.5244C67.1358 12.5316 67.525 12.6147 67.1593 12.6108C66.8193 12.6071 67.1715 12.5268 67.0705 12.5234C66.8511 12.5158 66.2521 12.5174 65.4605 12.5226C64.085 12.5326 62.1034 12.5381 60.538 12.5151C59.5543 12.5013 58.7264 12.4783 58.2941 12.4479C58.6521 12.464 59.561 12.4635 60.539 12.4484C62.1007 12.4257 63.844 12.3606 63.7868 12.3252C63.7669 12.3178 62.6326 12.249 62.4002 12.276C62.1034 12.2197 61.2464 12.3246 60.5404 12.3497C60.332 12.3571 60.1367 12.3578 59.9731 12.3457C59.892 12.3393 60.2135 12.2271 58.9321 12.1825C58.4907 12.1671 57.3326 12.2364 56.1728 12.1028C56.0371 12.1033 55.8549 12.1013 55.6343 12.0971C54.5825 12.0773 52.6584 12.0035 50.7371 11.9199C48.8176 11.8372 46.9008 11.7466 45.85 11.7215C45.4355 11.7117 45.1556 11.7122 45.0634 11.7274C45.0451 11.7336 46.2833 11.8315 45.4431 11.8473C44.3265 11.8676 45.3367 11.6779 44.0404 11.5996C43.9032 11.5916 42.0862 11.5193 40.9741 11.4775C40.501 11.46 40.1554 11.4484 40.1199 11.4511C39.5044 11.4952 40.2234 11.5794 40.9661 11.6465C41.5476 11.6991 42.1439 11.7411 42.1242 11.7469C42.0755 11.7614 41.5486 11.7507 40.962 11.7323C40.205 11.7086 39.3484 11.6721 39.2888 11.6641C39.188 11.6497 41.3294 11.5791 38.7633 11.5206C39.0558 11.5558 39.3484 11.5909 39.641 11.6259C38.4336 11.6079 38.3249 11.4816 38.0333 11.4599C37.4544 11.4166 36.8415 11.4558 36.0985 11.412C35.6726 11.387 35.2028 11.3333 34.6702 11.2195C34.2803 11.1358 34.937 11.1087 34.888 11.0965C34.4221 10.9882 33.8029 11.1662 33.1008 10.9551C33.051 10.9376 34.7038 10.9633 31.824 10.751C32.0202 10.7818 32.2166 10.8123 32.4132 10.8425C32.1568 10.8459 30.9135 10.7658 29.9323 10.6854C29.3517 10.6386 28.8621 10.5939 28.718 10.5774C27.5865 10.4463 28.5851 10.4304 27.446 10.3335C28.1588 10.5597 24.7036 10.2298 24.9184 10.1167C24.759 10.1529 24.3521 10.1328 23.8285 10.083C22.7166 9.97762 21.0827 9.73693 20.1573 9.63199C19.5377 9.56177 18.452 9.47913 17.7935 9.42538C17.5381 9.40447 17.3467 9.38775 17.271 9.37722C16.9409 9.33137 17.0535 9.23043 16.4585 9.14187C16.2884 9.11662 14.5028 9.00878 12.9609 8.74535C12.6621 8.69405 12.0473 8.44569 12.6116 8.45072C13.5775 8.45812 15.3805 8.79729 15.3691 8.68376C15.3534 8.5591 12.8978 8.38356 12.2431 8.31085C12.1084 8.29512 11.9832 8.28028 11.8669 8.26625C9.37006 7.97282 10.9751 7.99487 10.904 7.95072C10.7095 7.83728 9.05181 7.70653 8.98371 7.6951C8.69989 7.63533 9.87981 7.65168 9.90256 7.59702C9.93021 7.52226 8.34095 7.26601 8.7063 7.26896C9.22962 7.2695 10.6921 7.50234 10.7858 7.50634C12.0072 7.53972 10.3564 7.22152 9.90342 7.10181C9.76618 7.06442 10.3248 7.06683 10.2099 7.04985C8.45575 6.79387 9.81896 7.26057 8.64966 7.14778C7.60671 7.0514 8.95877 7.03443 8.91969 7.02628C8.86848 7.01423 7.61932 6.91943 7.4264 6.86824C7.32942 6.83291 10.5985 6.85726 10.4725 6.7551C9.43114 6.69 8.39058 6.63356 7.35104 6.58835C7.27787 6.45249 8.76583 6.6499 8.92124 6.65033C9.2345 6.64675 8.37142 6.51736 8.41148 6.4799C8.43307 6.45487 9.45985 6.43795 8.54118 6.33207C8.22515 6.29657 7.55497 6.33739 6.4075 6.17799C10.4301 6.3214 7.6536 6.06539 7.53696 6.0108C7.42339 5.95717 9.35205 5.97818 7.01873 5.84323C6.93302 5.58661 7.07397 5.76607 7.73989 5.76584C8.55611 5.76976 6.68362 5.54825 9.64959 5.83054C9.49023 5.69503 7.09986 5.53515 6.97382 5.52344C6.86502 5.50807 7.40003 5.48355 7.2118 5.45214C6.54152 5.34164 6.21094 5.2858 6.05964 5.25306C5.70781 5.17762 6.3239 5.23114 5.8745 5.10532C5.81784 5.08558 3.69459 4.93527 5.3139 4.98872C5.58054 4.99825 5.83309 5.00961 6.07226 5.02202C8.47942 5.15185 9.52739 5.35716 10.0038 5.0671C8.69524 4.86734 7.20426 4.81367 6.08405 4.80624C5.34889 4.80059 4.77311 4.8126 4.51 4.80303C3.49346 4.76781 4.54919 4.73707 4.4249 4.71199C4.38172 4.70269 3.50486 4.67593 3.49321 4.67066C3.1279 4.49856 4.56465 4.5675 6.09025 4.6927C7.14282 4.77708 8.2373 4.88577 8.81929 4.90948C8.44101 4.84095 8.06231 4.77374 7.68317 4.70796C8.20129 4.74049 8.71918 4.77571 9.23683 4.81329C6.77609 4.55483 9.15176 4.77158 9.7843 4.60388C9.92651 4.56511 8.29764 4.52367 10.1589 4.53141C8.79633 4.39266 9.23485 4.38062 7.99296 4.35527C8.03094 4.26387 10.8237 4.37301 11.9233 4.43362C8.05364 4.0111 10.2425 4.50375 6.89616 4.10492C6.26653 4.17573 7.87154 4.25303 7.73938 4.26439C7.42955 4.28651 6.85375 4.21953 6.1162 4.21767C5.72781 4.2167 5.29483 4.23388 4.83343 4.29167C4.61592 4.31985 5.52423 4.47313 4.17274 4.41054C4.02355 4.40287 3.1646 4.27561 3.1766 4.26967C3.29327 4.19542 4.14654 4.25456 4.18287 4.22475C4.21728 4.19474 3.26338 4.17906 3.26041 4.17163C3.23408 4.07376 4.05725 4.16188 3.93841 4.12793C3.68411 4.05098 0.251139 3.73649 4.73509 3.94811C1.0072 3.92745 4.25574 4.01927 5.70433 4.05882C5.88179 4.06294 5.99631 4.05321 6.12575 4.0429C6.26595 4.03179 6.42369 4.01992 6.69774 4.02561C7.3759 4.03914 8.16502 4.12043 8.51511 4.13506C8.89192 4.15188 6.76534 3.8584 9.85166 4.1282C8.88917 3.96788 7.45704 3.88852 6.13766 3.82486C5.31838 3.78459 4.54248 3.74926 3.94897 3.691C1.29955 3.44638 4.70753 3.48342 6.1526 3.55147C6.41541 3.56143 6.61344 3.56961 6.69877 3.57174C6.84662 3.57525 6.35651 3.46912 6.45507 3.47012C6.61811 3.46333 9.62772 3.70478 9.92758 3.6723C10.2285 3.63082 8.82577 3.58975 8.73727 3.51798C8.6788 3.45964 12.3131 3.67818 10.3518 3.48594C9.08394 3.35758 6.79332 3.36611 6.17202 3.19609C6.13067 3.18446 6.09672 3.17192 6.07098 3.15837C6.10526 3.15994 6.13954 3.16152 6.17382 3.16312C8.14341 3.25487 10.106 3.38938 12.061 3.54929C10.9797 3.3777 9.89496 3.21387 8.80603 3.06079C10.0442 3.13759 11.1842 3.25312 12.3134 3.35816C13.2324 3.44378 14.1443 3.52279 15.0969 3.57153C10.0349 2.83752 16.7695 3.5404 16.8399 3.53292C16.8674 3.51728 14.8901 3.11827 14.57 3.05285C15.469 3.10358 17.2817 3.26591 18.4542 3.34518C19.6073 3.42267 20.148 3.41337 18.6069 3.12613C19.1708 3.24126 20.5608 3.26125 20.5435 3.24933C20.4437 3.17349 19.2744 3.04499 18.4973 2.94893C18.0073 2.88826 17.6742 2.84022 17.8682 2.82414C18.0607 2.80817 18.2752 2.82331 18.5076 2.85378C18.9768 2.91528 19.5194 3.03929 20.1035 3.09566C22.8563 3.36144 23.4702 3.2056 24.5715 3.17831C25.2615 3.16021 26.1419 3.19536 27.8471 3.39914C27.7609 3.37097 27.6746 3.34275 27.5884 3.3145C28.579 3.42001 29.5673 3.52039 30.5535 3.61343C32.5431 3.80079 34.4736 3.95535 36.4624 4.0671C38.0822 4.15766 39.6986 4.24761 41.3149 4.33502C41.5612 4.34835 41.8074 4.3616 42.0536 4.37479C42.9394 4.33916 44.5004 4.34856 46.1679 4.37662C47.8702 4.40565 49.6832 4.45274 51.006 4.50163C51.1931 4.50859 51.3705 4.51563 51.5363 4.52272C52.0373 4.54586 54.4919 4.71215 54.6767 4.73125C55.0193 4.77147 53.1307 4.72536 53.9823 4.80673C54.0619 4.8142 54.9202 4.85064 55.8267 4.87617C56.9696 4.90901 58.1888 4.92289 58.0242 4.86709C57.559 4.84709 56.1001 4.85837 55.8619 4.82927C55.8498 4.82781 55.8386 4.8264 55.828 4.82501C55.6664 4.80374 55.6787 4.79054 55.8291 4.7838C56.3337 4.76116 58.3914 4.81088 60.6494 4.84544C62.3305 4.87217 64.1031 4.8894 65.4605 4.88884C66.6419 4.8888 67.4899 4.88441 67.6424 4.8693C67.356 4.83886 67.0696 4.80843 66.7832 4.77799C67.5992 4.79296 68.4151 4.80794 69.2311 4.82291ZM31.4726 11.097C31.1454 11.1321 30.5099 11.0717 29.9036 11.0121C29.5729 10.9797 29.2507 10.9477 28.9909 10.9332C27.9734 10.8784 26.2217 11.0654 26.9967 10.7783C27.9633 10.8557 28.9327 10.9288 29.9051 10.9955C30.4268 11.0313 30.9492 11.0652 31.4726 11.097ZM53.1218 12.2779C52.1301 12.1951 52.9069 12.0183 53.7185 12.1276C53.8085 12.1397 54.4642 12.3878 53.1218 12.2779ZM42.7357 11.7651C42.7774 11.7645 43.6316 11.8091 43.6614 11.8136C44.4241 11.9302 41.8483 11.795 42.7357 11.7651ZM92.8651 12.29C91.778 12.2987 92.5653 12.483 93.2412 12.4072C93.2837 12.4024 92.9366 12.2896 92.8651 12.29ZM92.0919 12.2851C91.2476 12.1201 89.547 12.4545 90.8989 12.4209C91.0301 12.4175 92.131 12.2931 92.0919 12.2851ZM49.5863 12.0732C49.671 12.0294 50.2565 12.0564 50.7311 12.0853C50.8955 12.0953 51.0467 12.1056 51.159 12.1135C51.1535 12.1362 50.9726 12.1362 50.7296 12.1272C50.3594 12.1136 49.8451 12.0788 49.5863 12.0732ZM75.5284 12.392C75.5504 12.3666 74.6357 12.3549 73.7045 12.3583C72.8151 12.3616 71.9108 12.3786 71.7931 12.4106C72.056 12.3975 72.8906 12.4025 73.7045 12.4069C74.6188 12.4117 75.5069 12.4157 75.5284 12.392ZM84.6003 12.3222C84.5106 12.3136 83.2885 12.3267 83.3242 12.3706C83.9207 12.4281 85.004 12.3611 84.6003 12.3222ZM102.631 12.3252C102.698 12.3141 101.783 12.0349 103.951 12.2187C104.27 12.2456 103.132 12.3186 103.246 12.3286C103.482 12.3481 103.67 12.3572 103.82 12.3588C102.81 12.382 101.761 12.3929 101.66 12.3759C101.183 12.296 102.602 12.3297 102.631 12.3252ZM112.098 12.1171C112.306 12.0716 113.635 12.0959 113.937 12.1147C113.989 12.1182 113.763 12.2379 114.361 12.229C114.816 12.222 114.197 12.1117 114.924 12.1166C114.965 12.1169 115.01 12.1176 115.06 12.1186C115.801 12.1339 115.186 12.191 114.924 12.2179C114.852 12.2254 114.807 12.2305 114.824 12.2319C114.838 12.2329 114.874 12.2329 114.924 12.2324C115.279 12.2283 116.394 12.1935 116.354 12.2558C116.33 12.2935 115.525 12.2866 114.924 12.2833C114.683 12.282 114.475 12.2814 114.364 12.2846C113.868 12.299 114.469 12.387 113.64 12.3681C113.119 12.3563 113.408 12.2016 113.298 12.1938C113.205 12.1875 111.384 12.2765 112.101 12.1176C112.1 12.1175 112.099 12.1173 112.098 12.1171ZM104.093 12.352C104.017 12.3572 103.928 12.36 103.82 12.3588C103.912 12.3567 104.003 12.3543 104.093 12.352ZM34.3955 11.237C34.9203 11.3178 33.3505 11.2817 32.7633 11.1738C32.755 11.1246 34.3133 11.2268 34.3955 11.237ZM105.03 12.226C106.53 12.2648 105.427 12.3181 104.093 12.352C104.517 12.3229 104.526 12.2131 105.03 12.226ZM62.4002 12.276C62.464 12.2881 62.5044 12.3065 62.5093 12.3361C62.3415 12.3022 62.3266 12.2847 62.4002 12.276ZM65.9339 12.3432C66.6621 12.2886 66.0505 12.2684 65.4605 12.2754C65.0761 12.28 64.6996 12.295 64.7057 12.3203C64.71 12.3346 65.1162 12.3419 65.4605 12.3439C65.7023 12.3454 65.914 12.3447 65.9339 12.3432ZM94.2595 12.2988C94.1498 12.29 95.8549 12.0181 93.3792 12.2221C94.7005 12.2542 93.3065 12.2838 93.3271 12.3076C93.381 12.376 95.6005 12.3102 96.0919 12.3398C96.4767 12.2174 94.6219 12.3278 94.2623 12.2988C94.2614 12.2988 94.2605 12.2988 94.2595 12.2988ZM129.179 12.138C128.879 12.2115 127.923 12.194 127.279 12.1931C127.579 12.1198 128.535 12.1376 129.179 12.138ZM297.577 8.33624C293.28 8.48519 292.701 8.22837 296.652 8.23967C296.729 8.23959 297.837 8.30288 297.577 8.33624ZM259.868 10.4862C259.441 10.3728 260.842 10.3075 261.76 10.32C261.967 10.3233 262.74 10.4183 261.865 10.4817C261.886 10.3271 260.531 10.3234 259.868 10.4862ZM105.878 12.1445C106.043 12.1123 106.339 12.101 106.68 12.1001C107.241 12.0985 107.928 12.1248 108.368 12.1328C108.076 12.18 107.328 12.1809 106.68 12.1683C106.369 12.1623 106.081 12.1531 105.878 12.1445ZM283.309 8.85975C282.847 8.88324 282.544 9.01665 282.624 9.01998C282.983 9.03591 283.838 8.88508 283.309 8.85975ZM101.537 12.1313C101.476 12.0806 103.257 12.0317 103.381 12.1572C103 12.1481 101.581 12.1631 101.537 12.1313ZM127.964 12.1069C127.687 12.0827 129.12 12.0284 129.554 12.0512C129.519 12.1055 128.145 12.1228 127.964 12.1069ZM275.866 9.46348C275.45 9.48617 274.41 9.56321 274.298 9.61657C274.159 9.68351 275.682 9.54723 275.866 9.46348ZM353.071 7.44339C353.124 7.46276 351.518 7.62704 350.802 7.59976C349.444 7.5468 353.015 7.42901 353.071 7.44339ZM287.659 8.51255C288.962 8.54063 287.516 8.52402 287.58 8.63183C288.453 8.58025 290.619 8.47084 289.124 8.44233C288.832 8.43704 288.066 8.4948 287.659 8.51255ZM286.46 8.55017C286.323 8.59472 285.395 8.76926 286.203 8.70818C286.577 8.67991 287.171 8.51629 286.46 8.55017ZM343.104 7.63104C342.351 7.57999 344.285 7.54845 345.817 7.5378C346.68 7.53172 347.416 7.53209 347.472 7.53749C347.554 7.54542 347.608 7.55322 347.638 7.56004C347.836 7.52605 348.853 7.50631 348.972 7.58349C348.667 7.58111 347.834 7.59966 347.737 7.59234C347.695 7.58921 347.664 7.58617 347.643 7.58293C347.492 7.6139 346.7 7.62947 345.819 7.6365C344.611 7.64605 343.234 7.63976 343.104 7.63104ZM334.168 7.67546C334.183 7.67356 334.198 7.67172 334.213 7.66992C335.517 7.51364 335.753 7.75065 335.638 7.76039C334.174 7.88557 335.127 7.68803 335.082 7.68027C335.006 7.67111 334.424 7.72363 334.214 7.71468C334.138 7.71146 334.11 7.70028 334.172 7.67539C334.17 7.67541 334.169 7.67544 334.168 7.67546ZM341.272 7.61937C341.328 7.61524 342.457 7.60498 342.504 7.60818C343.431 7.67628 340.234 7.70571 341.272 7.61937ZM119.238 11.9403C120.049 11.9631 119.254 12.0555 118.715 12.0238C118.671 12.0207 118.523 11.9201 119.238 11.9403ZM285.822 8.61616C285.78 8.61509 285.508 8.62671 285.114 8.64759C283.756 8.71717 280.939 8.91279 281.168 9.00261C281.431 8.97168 283.808 8.8213 285.12 8.7236C285.829 8.66997 286.228 8.6281 285.822 8.61616ZM249.848 10.484C250.692 10.4698 249.774 10.6153 249.323 10.5757C249.156 10.561 249.635 10.4876 249.848 10.484ZM99.1356 12.0141C98.2566 12.085 98.4384 11.8471 99.2004 11.9287C99.2303 11.9318 99.1701 12.0113 99.1356 12.0141ZM256.594 10.4585C256.412 10.4659 256.244 10.4709 256.09 10.474C254.322 10.5108 254.381 10.3086 256.087 10.2497C256.624 10.2316 257.323 10.2249 258.184 10.2353C258.063 10.2564 257.943 10.2774 257.822 10.2982C262.301 10.2327 258.123 10.3317 257.037 10.3651C256.623 10.3805 256.971 10.4434 256.597 10.4589C256.596 10.4588 256.595 10.4586 256.594 10.4585ZM245.407 10.5654C242.944 10.3654 246.75 10.3931 248.764 10.3623C249.049 10.3577 249.299 10.3518 249.49 10.3436C249.253 10.3671 249.004 10.3875 248.764 10.4053C247.502 10.4997 246.487 10.5239 248.704 10.5831C244.85 10.6843 246.452 10.5373 246.298 10.5302C246.116 10.5233 245.527 10.5753 245.407 10.5654ZM252.801 10.4244C252.963 10.4133 254.182 10.4547 254.622 10.4397C254.008 10.5459 251.729 10.4985 252.801 10.4244ZM324.794 7.89518C324.895 7.81584 325.145 7.75477 326.113 7.76861C325.815 7.8124 325.198 7.85566 324.794 7.89518ZM30.5627 10.6115C30.3873 10.5951 30.1669 10.5731 29.9441 10.5512C29.3108 10.4892 28.6582 10.4277 28.9561 10.5161C28.9813 10.5225 29.4987 10.5692 29.94 10.5978C30.2717 10.6194 30.5602 10.631 30.5627 10.6115ZM271.937 9.59078C271.883 9.59112 271.322 9.62937 270.714 9.67491C269.72 9.74978 268.602 9.84248 269.395 9.84202C269.542 9.84187 270.125 9.8062 270.72 9.76061C271.678 9.68743 272.667 9.58908 271.937 9.59078ZM290.769 8.27594C290.467 8.2888 289.241 8.36831 289.215 8.38885C289.136 8.45581 290.64 8.34174 290.769 8.27594ZM27.1811 10.219C27.0926 10.204 25.0508 10.0086 25.2717 10.0684C25.6886 10.1853 27.4802 10.2775 27.1811 10.219ZM122.188 11.7503C122.358 11.7469 122.583 11.8305 122.642 11.8313C122.781 11.8325 125.896 11.7869 124.706 11.9003C124.508 11.9205 120.024 11.8941 119.441 11.8833C119.215 11.768 121.131 11.8737 121.597 11.8601C121.679 11.8576 121.731 11.7604 122.186 11.7508C122.187 11.7506 122.187 11.7505 122.188 11.7503ZM329.831 7.73265C329.967 7.65687 333.623 7.5474 333.582 7.63735C332.332 7.66923 331.081 7.70108 329.831 7.73265ZM327.972 7.75068C327.19 7.71113 329.018 7.66442 329.558 7.67852C329.564 7.72805 328.086 7.75652 327.972 7.75068ZM283.896 8.41847C283.533 8.462 284.661 8.49072 284.411 8.52922C284.252 8.55314 283.435 8.57042 283.178 8.6229C283.105 8.63874 283.943 8.68016 284.182 8.65926C284.523 8.62967 284.187 8.57329 284.559 8.54693C284.744 8.53388 284.926 8.52247 285.105 8.51227C286.124 8.45453 287.063 8.43527 288.045 8.376C288.149 8.3695 287.337 8.36149 288.226 8.30954C288.364 8.30166 289.194 8.33612 290.255 8.26974C290.953 8.15666 291.596 8.09522 292.236 8.05965C293.731 7.97783 295.208 8.03095 297.266 7.93495C297.153 7.90786 294.95 7.88978 294.814 7.89528C294.09 7.90352 293.198 7.9247 292.231 7.95859C289.888 8.03816 287.108 8.20402 285.254 8.33007C285.193 8.3342 285.14 8.33824 285.094 8.34217C284.638 8.3814 284.886 8.41001 284.623 8.42988C284.395 8.44727 284.66 8.32672 283.896 8.41847ZM30.9256 10.5855C30.7636 10.5195 30.3825 10.4794 29.9534 10.4453C29.553 10.4136 29.1107 10.387 28.7648 10.3522C28.9126 10.4218 29.4172 10.4641 29.9483 10.5035C30.2932 10.5292 30.6492 10.5538 30.9256 10.5855ZM311.532 7.89397C311.409 7.8965 311.197 7.89578 310.968 7.89498C310.533 7.89347 310.036 7.89155 309.977 7.91209C309.904 7.93752 310.494 7.95155 310.969 7.94144C311.257 7.93532 311.504 7.92032 311.532 7.89397ZM139.747 11.6656C139.781 11.6626 140.639 11.6601 140.672 11.663C141.439 11.7374 138.866 11.7443 139.747 11.6656ZM160.258 11.4624C160.908 11.4422 161.563 11.4026 161.782 11.4823C161.368 11.4747 160.182 11.5207 160.258 11.4624ZM188.532 11.1485C188.397 11.0418 190.353 11.0948 190.722 11.1017C190.585 11.1505 188.631 11.2252 188.532 11.1485ZM324.648 7.559C325.845 7.54684 325.589 7.38745 326.35 7.44938C326.475 7.45988 326.881 7.79361 325.563 7.6869C325.326 7.66767 326.251 7.57252 324.648 7.559ZM258.816 10.2227C259.124 10.1435 260.098 10.135 260.748 10.1158C260.606 10.1752 259.283 10.2064 258.816 10.2227ZM23.5093 9.75443C22.9581 9.59454 20.3703 9.38385 21.0016 9.52042C21.0905 9.53924 23.1454 9.71199 23.5093 9.75443ZM108.919 11.8193C109.985 11.74 107.777 11.7154 107.079 11.7929C107.395 11.7878 108.847 11.8245 108.919 11.8193ZM181.742 11.1548C181.793 11.151 182.923 11.1472 182.974 11.1506C183.901 11.224 180.704 11.2353 181.742 11.1548ZM153.513 11.4106C153.92 11.3408 156.599 11.3623 157.2 11.4205C156.624 11.5228 153.008 11.498 153.513 11.4106ZM319.723 7.67759C320.577 7.66243 321.388 7.67092 322.173 7.6876C322.009 7.74519 319.814 7.71763 319.723 7.67759ZM185.89 11.1071C185.951 11.107 186.01 11.1127 186.068 11.1128C186.007 11.111 185.948 11.1089 185.89 11.1071ZM300.587 7.79846C299.87 7.7775 300.019 7.8779 300.063 7.88099C300.602 7.91326 301.398 7.82179 300.587 7.79846ZM30.1114 10.3663C30.0788 10.3512 30.0284 10.3375 29.964 10.3248C29.5496 10.2438 28.555 10.2031 27.9542 10.1258C28.1334 10.21 29.3309 10.3111 29.9613 10.3556C30.016 10.3596 30.0664 10.3632 30.1114 10.3663ZM242.397 10.4468C241.498 10.3688 245.145 10.1708 245.915 10.219C245.973 10.2777 242.529 10.4565 242.397 10.4468ZM105.608 11.683C105.536 11.6119 104.001 11.6978 104.327 11.7314C104.534 11.7528 105.65 11.7273 105.608 11.683ZM247.749 10.2224C248.092 10.1938 248.891 10.2485 248.611 10.2968C248.251 10.3586 247.661 10.2304 247.749 10.2224ZM278.682 8.74399C278.622 8.74427 278.266 8.78081 277.914 8.82524C277.383 8.89215 276.859 8.97682 277.362 8.98149C277.646 8.98417 277.812 8.95924 277.922 8.93183C278.037 8.90327 278.093 8.87201 278.162 8.8665C278.314 8.85446 281.549 8.7324 278.682 8.74399ZM221.906 10.828C222.67 10.7892 223.594 10.8059 224.394 10.7898C224.069 10.84 222.232 10.8822 221.906 10.828ZM111.526 11.664C111.341 11.6352 106.301 11.6179 109.164 11.7065C109.331 11.7115 112.088 11.7512 111.526 11.664ZM324.648 7.559C324.497 7.56052 324.323 7.5598 324.121 7.55586C324.321 7.55556 324.496 7.5577 324.648 7.559ZM311.048 7.72227C311.12 7.70792 311.077 7.69729 310.966 7.69C310.658 7.66972 309.825 7.67491 309.523 7.69765C309.413 7.75409 310.635 7.73673 310.967 7.72606C311.014 7.72456 311.043 7.72322 311.048 7.72227ZM224.453 10.7164C224.913 10.6787 225.75 10.6949 226.32 10.6804C226.224 10.7307 224.653 10.7622 224.453 10.7164ZM192.164 10.868C193.075 10.8895 194.197 10.8682 194.214 10.8092C194.233 10.8183 194.277 10.8277 194.35 10.837C194.424 10.8461 195.373 10.813 195.807 10.8286C195.813 10.8289 195.819 10.8291 195.825 10.8294C196.346 10.8504 196.241 10.8685 195.807 10.8821C194.123 10.9334 187.485 10.9291 193.173 10.7519C192.837 10.7905 192.5 10.8292 192.164 10.868ZM149.886 11.3127C149.368 11.2468 147.918 11.3523 148.295 11.3765C148.557 11.3931 150.406 11.3792 149.886 11.3127ZM169.811 11.0366C169.656 11.0256 168.241 11.0926 168.205 11.1308C169.019 11.1609 170.516 11.0878 169.811 11.0366ZM145.904 11.2714C145.578 11.264 145.165 11.3839 145.203 11.3885C145.534 11.4274 146.45 11.3301 145.904 11.2714ZM322.164 7.28484C321.68 7.25897 320.138 7.36462 319.803 7.4455C319.74 7.4316 319.572 7.41468 319.262 7.39578C319.263 7.39577 319.264 7.39576 319.265 7.39574C318.849 7.37964 306.371 7.47758 314.742 7.53525C315.004 7.5369 314.646 7.47266 315.712 7.4721C315.782 7.47213 315.818 7.52769 316.036 7.52777C316.537 7.52811 319.204 7.52858 319.739 7.47569C319.743 7.486 319.778 7.49539 319.852 7.50343C320.51 7.57529 322.54 7.30496 322.164 7.28484ZM172.617 10.9937C172.332 10.9762 171.43 11.0063 171.338 11.0568C171.785 11.0758 173.279 11.0344 172.617 10.9937ZM111.37 11.4613C110.789 11.4207 109.318 11.4967 109.762 11.537C110.035 11.5619 112.039 11.508 111.37 11.4613ZM163.585 11.1268C166.914 11.1453 164.379 11.1125 164.888 11.034C164.454 11.0649 164.02 11.0958 163.585 11.1268ZM337.576 7.22333C337.045 7.21542 337.666 7.06221 338.251 7.13016C338.435 7.15177 337.873 7.22748 337.576 7.22333ZM361.512 6.87374C361.059 6.74958 363.268 6.81102 362.408 6.903C362.368 6.90608 361.545 6.87829 361.512 6.87374ZM344.789 7.01233C344.43 7.10407 344.196 7.11778 343.182 7.11217C344.683 7.06472 343.289 7.00975 344.789 7.01233ZM194.204 10.8C194.21 10.8034 194.215 10.806 194.214 10.8092C194.207 10.8061 194.204 10.8031 194.204 10.8ZM142.773 11.3255C142.355 11.2565 141.187 11.273 141.535 11.3433C141.569 11.3498 142.602 11.3812 142.773 11.3255ZM319.803 7.4455C319.859 7.45783 319.831 7.46668 319.739 7.47569C319.734 7.46599 319.758 7.45644 319.803 7.4455ZM149.045 11.2008C149.004 11.2559 150.783 11.2575 150.854 11.2502C151.873 11.1443 149.78 11.1896 149.045 11.2008ZM99.6173 11.3847C99.5256 11.3904 100.117 11.5312 100.479 11.476C100.76 11.4332 99.9607 11.363 99.6173 11.3847ZM348.232 6.92711C348.794 6.91933 349.585 6.90862 349.732 6.97356C349.355 6.96822 348.221 6.97628 348.232 6.92711ZM360.647 6.78774C359.984 6.87082 358.467 6.8826 357.499 6.87876C357.48 6.77494 360.024 6.8157 360.647 6.78774ZM323.692 7.30061C323.659 7.29813 322.935 7.29257 322.589 7.31333C322.449 7.32177 322.371 7.33456 322.427 7.35373C322.465 7.3666 322.521 7.37569 322.59 7.38172C323.044 7.42136 324.039 7.32806 323.692 7.30061ZM102.358 11.4594C102.989 11.4117 101.537 11.2651 100.871 11.3783C100.529 11.4363 102.252 11.4674 102.358 11.4594ZM139.123 11.264C138.29 11.3116 140.356 11.3644 140.644 11.2892C140.26 11.287 139.419 11.2472 139.123 11.264ZM167.468 10.8763C164.841 10.6987 166.275 11.0627 166.74 11.0236C166.806 11.0181 167.532 10.8804 167.468 10.8763ZM17.0822 8.63004C16.8207 8.62257 17.42 8.74547 17.8613 8.80187C18.0455 8.82537 18.202 8.83717 18.2566 8.82261C18.3091 8.80837 18.1162 8.76798 17.8693 8.72789C17.5776 8.68051 17.2106 8.63373 17.0822 8.63004ZM206.963 10.6791C206.853 10.68 206.743 10.681 206.634 10.6818C206.716 10.6782 206.823 10.6769 206.963 10.6791ZM131.555 11.0441C133.406 11.3262 133.21 11.1 133.371 11.1001C133.718 11.1007 134.526 11.1744 135.18 11.1561C134.431 11.1953 133.682 11.2341 132.932 11.2728C133.525 11.2909 138.668 11.3573 138.775 11.3076C138.929 11.2382 137.311 11.2737 137.264 11.268C137.196 11.26 136.942 11.0728 136.792 11.0669C136.545 11.0581 132.245 11.0874 131.555 11.0441ZM161.98 10.9745C162.403 10.992 162.523 11.0656 162.719 11.0453C162.786 11.0384 162.796 10.9667 163.024 10.9455C162.676 10.9552 162.328 10.9648 161.98 10.9745ZM128.245 11.3299C127.721 11.2456 130.069 11.265 130.144 11.2741C130.546 11.3309 128.674 11.3991 128.245 11.3299ZM148.157 11.147C148.118 11.1451 147.718 11.1424 147.299 11.1446C146.802 11.1472 146.276 11.1568 146.285 11.183C146.456 11.1945 146.877 11.2 147.299 11.1998C148.051 11.1994 148.806 11.1809 148.157 11.147ZM163.305 10.9372C163.358 10.9373 163.415 10.9377 163.474 10.9385C164.128 10.9465 165.123 10.9869 164.996 10.8896C164.996 10.8896 164.995 10.8897 164.994 10.8897C164.487 10.9039 163.981 10.9182 163.474 10.9325C163.418 10.934 163.362 10.9356 163.305 10.9372ZM104.519 11.2318C103.346 11.0603 103.902 11.2771 104.94 11.3324C105.254 11.2554 104.711 11.2598 104.519 11.2318ZM100.767 11.1039C100.574 11.0857 99.323 11.09 98.4363 11.1153C97.8215 11.1329 97.3819 11.1605 97.5919 11.1977C97.6658 11.2108 98.0269 11.2052 98.4363 11.1943C99.0377 11.1783 99.7432 11.151 99.7962 11.1547C99.9312 11.164 99.3146 11.2644 100.345 11.2445C100.285 11.2105 100.878 11.1142 100.767 11.1039ZM103.548 11.122C102.383 10.9915 102.121 11.2322 102.998 11.2328C103.34 11.2332 103.715 11.1408 103.548 11.122ZM108.308 11.1425C108.001 11.1258 107.323 11.1036 106.68 11.1239C106.443 11.1315 106.21 11.1448 106.002 11.1664C106.228 11.1679 106.454 11.1694 106.68 11.1709C107.484 11.1763 108.288 11.1816 109.092 11.1869C109.211 11.1416 108.674 11.1625 108.305 11.1425C108.306 11.1425 108.307 11.1425 108.308 11.1425ZM367.632 6.14125C366.708 6.07411 368.837 6.0454 368.927 6.06274C369.194 6.11832 368.045 6.171 367.632 6.14125ZM10.1312 5.76225C9.87774 5.71455 9.71747 5.61138 9.15071 5.61526C9.71214 5.72399 10.2728 5.83553 10.8329 5.94948C11.2855 5.83613 10.4082 5.81424 10.1312 5.76225ZM8.00668 5.04826C8.0872 5.05054 7.66448 4.78657 8.6914 5.01521C9.18445 5.12632 7.39363 5.06538 6.07372 4.9952C5.53897 4.96544 5.08141 4.93142 4.88414 4.89273C5.18161 4.88744 5.61637 4.90538 6.07717 4.93208C6.79879 4.97339 7.5837 5.03742 8.00668 5.04826ZM1.3351 3.75573C1.291 3.73401 2.75712 3.7353 2.92622 3.75621C3.81367 3.84915 1.57484 3.85151 1.3351 3.75573ZM6.00076 3.96048C5.68884 3.92331 5.83679 3.91354 6.1325 3.91934C6.4837 3.92606 7.04284 3.95734 7.2871 3.98713C7.32152 4.02519 6.46913 3.98709 6.12978 3.96918C6.06422 3.96554 6.01784 3.96246 6.00076 3.96048ZM358.244 2.81759C357.506 2.6658 356.85 3.01258 357.983 2.93366C358.037 2.92994 358.275 2.82506 358.244 2.81759ZM2.77379 3.54979C3.46048 3.61361 1.93595 3.60046 1.4816 3.57123C1.44006 3.52553 2.66922 3.53829 2.77379 3.54979ZM357.722 2.44522C357.574 2.42936 357.456 2.42456 357.363 2.42787C356.842 2.44655 357.109 2.72151 357.213 2.73361C357.256 2.73838 357.307 2.74155 357.366 2.74333C358.001 2.7622 359.473 2.62158 359.796 2.58521C357.211 2.66339 358.183 2.4951 357.722 2.44522ZM353.211 2.72154C352.303 2.77281 354.624 2.82385 355.065 2.71307C354.614 2.72284 353.469 2.70665 353.211 2.72154ZM347.7 2.67031C347.298 2.66465 346.24 2.65565 345.746 2.68854C345.64 2.69553 345.56 2.70442 345.518 2.71562C345.582 2.71335 345.659 2.71191 345.746 2.71101C346.38 2.70437 347.52 2.72723 347.7 2.67031ZM346.593 2.50596C345.829 2.43538 345.649 2.67612 346.528 2.59236C346.562 2.58912 346.621 2.51009 346.593 2.50596ZM342.304 2.48501C341.802 2.39821 341.235 2.63781 342.045 2.63119C342.286 2.62881 342.357 2.49503 342.304 2.48501ZM356.493 2.04561C355.775 2.01201 354.853 2.18663 356.384 2.18926C355.847 2.21979 355.309 2.25057 354.772 2.2816C356.778 2.353 356.628 2.1263 357.204 2.13012C357.261 2.13054 357.313 2.13186 357.361 2.13397C358 2.16209 357.936 2.33004 357.786 2.38654C358.445 2.26427 361.247 2.24003 362.868 2.21027C361.443 2.16879 359.132 2.10152 357.727 2.08382C357.603 2.08219 357.481 2.08633 357.36 2.09278C357.09 2.10723 356.832 2.13324 356.595 2.13153C356.047 2.12734 356.533 2.04795 356.495 2.04558C356.495 2.04559 356.494 2.0456 356.493 2.04561ZM336.669 2.57294C335.197 2.49009 336.131 2.70617 336.961 2.65114C336.996 2.64737 336.706 2.57495 336.669 2.57294ZM0.806077 2.81151C2.80637 2.9467 1.35137 3.0061 5.53064 2.98223C3.77317 3.03893 5.42933 3.07576 5.08484 3.1158C4.80898 3.14579 3.7835 3.06904 4.37687 3.18133C3.59855 3.036 0.179212 3.00459 0.0254039 3.00411C0.0268396 3.00411 0.0282753 3.00411 0.0297109 3.00411C-0.0621624 2.99525 0.166482 2.77609 0.806077 2.81151ZM347.684 2.06498C347.19 1.79102 347.004 2.23957 346.036 2.02085C344.757 2.3773 349.583 1.96958 350.172 2.24888C344.925 2.28605 353.643 2.48585 349.975 2.10694C352.994 2.22335 350.963 2.04127 351.428 1.9808C351.926 1.91628 353.634 1.95924 353.546 1.85575C353.545 1.85576 353.544 1.85577 353.543 1.85579C352.499 1.87508 351.455 1.89525 350.411 1.91615C351.435 2.12863 349.301 2.08848 348.575 1.91485C348.278 1.96484 347.981 2.01488 347.684 2.06498ZM353.596 2.20091C353.493 2.19654 351.223 2.25567 351.37 2.29944C351.673 2.32377 354.896 2.25194 353.596 2.20091ZM363.595 2.06842C362.779 2.07156 361.517 2.03518 361.073 2.12341C361.889 2.11834 363.151 2.15555 363.595 2.06842ZM321.628 2.625C321.009 2.67569 321.9 2.68706 322.521 2.67289C322.939 2.66337 323.234 2.64238 322.861 2.61465C322.846 2.61355 322.703 2.61397 322.52 2.61514C322.166 2.6174 321.662 2.62237 321.628 2.625ZM345.322 2.14179C344.264 2.07181 344.767 2.33751 345.549 2.25464C345.594 2.24977 345.37 2.14498 345.322 2.14179ZM2.42912 2.80404C2.50413 2.72907 5.40185 2.88057 5.91204 2.91764C5.61923 2.95167 2.34674 2.86692 2.42912 2.80404ZM365.03 1.81196C363.405 1.5764 361.203 1.86856 360.961 1.86438C360.721 1.85982 361.097 1.75201 361.042 1.74956C360.917 1.74384 358.359 1.77243 358.235 1.78146C358.146 1.78794 358.611 1.93182 358.083 1.98299C359.112 1.88739 363.79 1.91068 364.033 1.89551C364.221 1.88174 362.802 1.73216 365.027 1.81197C365.028 1.81196 365.029 1.81196 365.03 1.81196ZM360.357 1.83637C360.997 1.89369 359.204 1.91448 358.771 1.89557C357.806 1.85226 360.275 1.82904 360.357 1.83637ZM356.046 1.81662C355.841 1.80447 353.994 1.81164 353.838 1.8827C354.713 1.96202 356.511 1.84428 356.046 1.81662ZM335.509 2.11945C335.206 2.13007 334.568 2.12154 334.121 2.1294C333.861 2.13397 333.665 2.14408 333.638 2.16671C333.757 2.16252 333.929 2.16131 334.121 2.1609C334.698 2.15966 335.453 2.16563 335.509 2.11945ZM12.3158 2.88002C12.0044 2.83211 12.0983 2.8253 12.3606 2.83933C12.77 2.86095 13.5878 2.93649 13.9156 2.98354C13.9394 3.02236 12.6146 2.90851 12.3565 2.88445C12.335 2.88235 12.321 2.88083 12.3158 2.88002ZM345.134 1.56785C344.85 1.55256 339.061 1.68983 338.25 1.73228C339.045 1.76398 344.782 1.67675 345.042 1.65176C345.118 1.64395 345.17 1.57019 345.134 1.56785ZM357.663 1.38513C358.194 1.29152 358.541 1.39515 358.608 1.39591C359.266 1.40374 360.629 1.37378 360.33 1.46154C359.17 1.43468 356.607 1.57111 357.663 1.38513ZM335.091 1.72447C333.127 1.79011 336.902 1.82089 336.406 1.73633C336.374 1.73124 335.294 1.71762 335.091 1.72447ZM345.781 1.53235C346.213 1.4525 352.008 1.4352 352.939 1.42673C352.107 1.56895 351.434 1.47662 350.315 1.49791C350.013 1.50383 350.094 1.55785 350.062 1.55836C349.539 1.56782 349.929 1.49904 349.607 1.50236C349.422 1.50375 345.921 1.61709 345.729 1.55681C345.718 1.55342 345.718 1.5495 345.729 1.54497C345.738 1.54119 345.755 1.53699 345.781 1.53235ZM357.966 1.32089C358.289 1.26579 361.91 1.2174 362.056 1.2314C363.147 1.32406 358.247 1.33369 357.966 1.32089ZM345.247 1.42258C345.353 1.39479 345.524 1.37349 345.726 1.35781C346.708 1.28132 348.412 1.33904 346.779 1.42596C346.641 1.43304 346.179 1.40552 345.727 1.40659C345.56 1.40699 345.395 1.41126 345.247 1.42258ZM335.299 1.57451C335.248 1.57298 334.663 1.57317 334.112 1.5808C333.609 1.58775 333.135 1.60087 333.117 1.62449C333.22 1.62937 333.646 1.62865 334.112 1.6243C334.992 1.6161 336.018 1.59507 335.299 1.57451ZM336.358 1.39136C336.309 1.39336 336.79 1.47965 335.83 1.48364C335.75 1.48385 335.599 1.38026 334.392 1.43918C334.307 1.4434 334.205 1.45546 334.11 1.46955C333.932 1.49581 333.778 1.52909 333.796 1.53163C333.889 1.54232 333.995 1.55016 334.111 1.55556C335.577 1.62354 338.655 1.30269 336.358 1.39136ZM358.031 1.23437C357.836 1.19133 358.305 1.05425 358.73 1.11802C358.912 1.14558 358.574 1.22805 358.031 1.23437ZM328.804 1.639C329.993 1.53917 326.256 1.58445 326.067 1.6077C326.187 1.65618 328.685 1.64895 328.804 1.639ZM14.2506 2.43833C14.2496 2.43823 14.2487 2.43814 14.2477 2.43805C15.2535 2.55612 14.6227 2.56096 14.6698 2.56766C16.8024 2.88275 16.2482 2.67619 16.5851 2.69244C17.3056 2.72968 17.1713 2.90051 18.3851 2.95467C16.3794 2.85237 18.1996 3.0003 18.2486 3.07199C18.4444 3.36171 15.6075 2.66132 14.5987 2.62094C14.4589 2.61449 15.4779 2.80312 15.1189 2.79142C13.956 2.74848 10.3813 2.00365 14.2506 2.43833ZM359.058 1.10361C359.522 1.01969 363.056 1.07356 362.119 1.14459C361.969 1.15452 358.374 1.22311 359.058 1.10361ZM194.482 4.87871C195.329 4.80457 193.363 4.73833 192.999 4.79429C192.819 4.82203 194.109 4.91116 194.482 4.87871ZM180.702 4.70991C180.279 4.72014 179.846 4.77835 179.58 4.8381C179.276 4.90631 179.19 4.97649 179.582 4.97965C179.663 4.9803 179.764 4.97809 179.889 4.97238C180.022 4.96614 180.818 4.74811 180.702 4.70991ZM246.765 4.04567C245.71 3.96614 245.777 4.15357 246.55 4.13464C246.823 4.12806 246.799 4.0482 246.765 4.04567ZM206.714 4.69801C206.608 4.69158 205.391 4.707 205.436 4.75031C205.886 4.77482 207.395 4.74157 206.714 4.69801ZM247.099 4.01194C246.476 4.05882 247.553 4.17291 248.314 4.02476C247.927 4.0432 247.164 4.00711 247.099 4.01194ZM343.068 1.03876C342.547 1.12428 341.069 1.12421 340.221 1.15128C340.128 1.05228 342.462 1.06618 343.068 1.03876ZM184.979 4.78127C184.026 4.86116 186.07 4.89951 185.882 4.80786C185.856 4.803 185.017 4.77787 184.979 4.78127ZM280.45 2.41511C279.761 2.52679 281.97 2.44207 281.356 2.38258C281.325 2.3804 280.488 2.40881 280.45 2.41511ZM290.118 1.82043C289.585 1.82386 287.322 1.9597 288.206 1.96783C288.343 1.96735 290.081 1.87563 290.118 1.82043ZM16.652 2.6268C16.3794 2.49388 18.0226 2.69315 18.255 2.73722C18.3467 2.75442 17.0084 2.79863 16.652 2.6268ZM239.93 4.18336C239.386 4.20913 237.975 4.21841 237.728 4.27845C238.393 4.25125 240.112 4.2868 239.93 4.18336ZM189.328 4.74128C188.496 4.63624 187.077 4.66013 187.429 4.80337C188.997 4.77963 187.234 4.6733 189.328 4.74128ZM250.609 3.82448C250.172 3.82358 249.839 3.97031 249.888 3.97602C250.363 4.03037 251.045 3.87164 250.609 3.82448ZM217.915 4.60448C217.889 4.54505 216.498 4.58458 216.684 4.62143C216.745 4.63423 217.935 4.65317 217.915 4.60448ZM324.76 1.30238C324.119 1.25748 326.073 1.17358 326.652 1.22826C326.934 1.31613 324.841 1.30758 324.76 1.30238ZM262.601 3.58167C262.66 3.49227 260.514 3.63375 261.364 3.67176C261.576 3.68223 262.58 3.6131 262.601 3.58167ZM283.383 2.01755C282.72 2.11325 283.626 2.08944 284.666 2.03796C285.922 1.97504 287.375 1.87667 286.478 1.85952C286.412 1.85821 285.483 1.89927 284.66 1.94246C284.017 1.97588 283.439 2.00966 283.383 2.01755ZM293.547 1.52414C293.29 1.52196 293.406 1.21563 294.477 1.29853C294.617 1.30918 293.965 1.40829 294.08 1.42301C294.145 1.42725 296.472 1.41107 296.583 1.40657C296.698 1.39662 296.561 1.30294 296.678 1.29016C296.811 1.27452 298.247 1.33939 298.989 1.34086C299.111 1.34072 299.224 1.34013 299.328 1.33913C300.4 1.3285 300.532 1.2613 300.636 1.26104C300.965 1.26011 301.519 1.31602 302.186 1.31418C304.689 1.30798 308.182 1.24856 310.907 1.27323C311.841 1.28197 312.685 1.3011 313.368 1.33704C312.537 1.32219 311.72 1.32375 310.907 1.33366C309.396 1.35207 307.902 1.3994 306.366 1.42322C307.056 1.25331 302.893 1.57001 305.328 1.36515C304.762 1.38935 302.021 1.42208 299.328 1.43037C299.328 1.43037 299.328 1.43037 299.328 1.43037C296.636 1.43567 293.956 1.52803 293.55 1.52404C293.549 1.52407 293.548 1.5241 293.547 1.52414ZM176.726 4.6687C177.344 4.55944 174.17 4.6179 173.902 4.7395C174.321 4.75105 176.65 4.68105 176.726 4.6687ZM191.374 4.27706C191.669 4.25712 191.947 4.05466 193.495 4.14456C193.496 4.14455 193.498 4.14454 193.499 4.14453C193.952 4.17084 193.437 4.22333 193.52 4.24009C193.55 4.2469 194.961 4.33627 193.79 4.36068C192.003 4.39847 193.62 4.2131 192.668 4.21814C192.551 4.21873 190.749 4.34124 190.854 4.36426C190.865 4.36693 191.407 4.33966 191.497 4.34884C191.836 4.38328 191.671 4.44703 191.719 4.44963C191.875 4.45568 194.726 4.32807 195.141 4.41853C195.276 4.4467 190.597 4.55098 190.414 4.5378C190.299 4.52894 190.346 4.3552 190.227 4.33914C190.165 4.33103 188.283 4.4121 188.039 4.39847C187.968 4.39449 187.914 4.39001 187.874 4.38627C188.159 4.43728 186.455 4.44884 186.506 4.38794C186.536 4.36384 187.709 4.36693 187.751 4.37076C187.77 4.37236 187.786 4.37464 187.8 4.37618C187.557 4.31249 191.529 4.28179 190.671 4.19192C191.822 4.12931 190.509 4.33589 191.374 4.27706ZM196.909 4.13057C196.79 4.14954 196.671 4.16852 196.553 4.18751C198.569 4.12999 200.896 4.20514 203.22 4.19545C203.81 4.19315 203.131 4.08422 203.904 4.11181C204.523 4.13395 205.209 4.23524 204.873 4.25937C204.79 4.26531 203.529 4.20229 202.898 4.21186C201.036 4.24018 201.507 4.33405 201.398 4.33703C201.278 4.34024 200.105 4.27864 199.465 4.28515C198.081 4.29936 197.343 4.34811 195.763 4.32183C195.507 4.31759 195.229 4.31141 194.923 4.30284C195.43 4.27416 195.623 4.2359 195.763 4.20224C195.972 4.15171 196.06 4.11148 196.909 4.13057ZM271.703 2.73911C271.774 2.67379 273.086 2.62908 273.561 2.58359C273.491 2.64967 272.177 2.69551 271.703 2.73911ZM75.6129 4.97966C75.2081 5.07841 78.242 5.10286 77.4425 5.02067C77.2655 5.00243 75.9941 4.98036 75.6129 4.97966ZM89.2426 5.03972C89.6484 5.01241 88.0142 4.94131 88.0172 5.01774C88.0196 5.04225 89.1903 5.04327 89.2426 5.03972ZM222.904 4.08088C222.981 4.07674 224.093 4.07993 224.128 4.08417C224.867 4.17728 221.206 4.17677 222.904 4.08088ZM105.812 4.91813C105.059 4.95258 105.913 4.97664 106.68 4.97917C107.355 4.9814 107.963 4.96699 107.354 4.92839C107.324 4.92655 107.015 4.9236 106.68 4.92123C106.282 4.91841 105.849 4.91642 105.812 4.91813ZM111.73 4.90006C111.391 4.90353 109.885 4.87139 109.865 4.90153C109.835 4.95014 111.559 4.98336 111.73 4.90006ZM250.898 3.44636C250.732 3.33755 252.727 3.38864 253.422 3.36536C253.589 3.47386 251.589 3.41967 250.898 3.44636ZM238.34 3.63469C239.509 3.59441 240.48 3.56548 241.265 3.54576C245.027 3.4528 244.525 3.56225 241.267 3.64243C240.338 3.66562 239.184 3.68694 237.843 3.70082C237.831 3.6297 237.812 3.65286 238.34 3.63469ZM249.077 3.41037C248.982 3.43444 248.823 3.4507 248.631 3.46192C248.207 3.4866 247.618 3.48707 247.175 3.4922C247.263 3.45254 248.054 3.43802 248.63 3.42412C248.809 3.41979 248.967 3.41548 249.077 3.41037ZM72.0002 4.82682C72.2827 4.77836 73.0866 4.78813 73.7045 4.81328C74.2346 4.83487 74.6277 4.86777 74.4368 4.88493C74.4043 4.88764 74.0939 4.88754 73.7045 4.88431C72.9406 4.87798 71.8725 4.85962 72.0002 4.82682ZM223.601 3.97408C223.405 3.8699 225.91 3.86912 226.103 3.8886C226.877 3.97093 223.803 3.94807 223.601 3.97408ZM262.658 3.075C262.759 3.05017 262.906 3.03027 263.081 3.01366C263.65 2.96008 264.519 2.93932 265.129 2.90484C264.834 2.98174 263.813 3.02822 263.083 3.05726C262.924 3.06372 262.779 3.06952 262.658 3.075ZM256.932 3.19858C256.984 3.19552 258.089 3.18018 258.138 3.18188C259.046 3.24641 255.916 3.28919 256.932 3.19858ZM12.9265 1.49398C12.9651 1.49439 13.8307 1.58189 13.8603 1.58835C14.6255 1.74234 12.028 1.48008 12.9265 1.49398Z" fill="#5067E9"/>
</svg>
