<svg width="193" height="9" viewBox="0 0 193 9" fill="none" xmlns="http://www.w3.org/2000/svg">
<path d="M15.9834 7.88703C16.0982 7.87575 16.5611 7.89773 16.763 7.89308C16.5332 8.00007 15.5697 7.92715 15.9834 7.88703ZM37.0716 0.0725379C36.9006 0.0988884 36.7295 0.125253 36.5585 0.151631C37.0445 0.16929 37.6977 0.150577 38.1485 0.17639C38.2223 0.18072 38.0308 0.257274 38.2053 0.260944C38.3799 0.264597 38.3464 0.159569 38.6002 0.148713C38.7618 0.141984 39.2514 0.163271 39.7272 0.182854C40.0899 0.197776 40.4445 0.211694 40.6398 0.211303C42.1745 0.207813 43.7209 0.161278 45.2593 0.188568C45.413 0.191296 45.5667 0.19476 45.7203 0.199079C45.5249 0.207318 45.3735 0.215675 45.2592 0.223977C44.7955 0.25767 44.9446 0.290441 45.259 0.31055C45.5592 0.329751 46.0101 0.337406 46.2222 0.323296C46.3304 0.315731 46.3138 0.120617 48.0639 0.173639C49.1761 0.207175 48.1483 0.484128 50.0044 0.34804C48.7085 0.168176 49.7476 0.16538 50.7871 0.162926C50.892 0.162677 50.9969 0.162432 51.0994 0.162009C51.2922 0.161251 52.8491 0.192936 53.5364 0.184883C53.7716 0.18212 54.1299 0.0802219 54.4418 0.0777612C54.6564 0.0761428 54.8187 0.13214 55.1375 0.129448C55.5298 0.126307 55.9204 0.123654 56.3104 0.121754C57.399 0.116456 58.4815 0.117773 59.5789 0.131681C58.7077 0.394377 60.2627 0.243639 60.3326 0.256198C60.6878 0.327522 59.0814 0.347824 59.7167 0.392433C60.0309 0.389553 60.3451 0.386673 60.6593 0.383793C61.2329 0.378535 61.8065 0.373276 62.3801 0.368018C61.6514 0.335764 63.3447 0.146804 63.6564 0.232759C63.6027 0.141949 64.2103 0.153111 65.0081 0.195716C66.2497 0.262018 67.9519 0.404468 68.3396 0.357276C68.4661 0.341658 67.6821 0.236568 69.357 0.272429C69.4381 0.274167 69.525 0.276234 69.6181 0.27866C69.8362 0.284491 69.7537 0.354527 69.8681 0.347998C69.9366 0.344072 70.3513 0.121473 70.7931 0.244478C70.9544 0.289374 69.9222 0.435572 72.1889 0.376808C71.7089 0.256341 72.628 0.229294 73.7058 0.238914C74.6551 0.247386 75.7276 0.2843 76.0761 0.310887C75.9275 0.28045 75.7787 0.250013 75.6301 0.219575C76.3658 0.301685 76.4986 0.224655 76.6644 0.228853C77.0754 0.239229 77.5813 0.272619 78.0547 0.295117C78.3505 0.309177 78.6336 0.318983 78.8729 0.316259C79.6011 0.308108 79.6036 0.167208 80.4525 0.222017C80.2511 0.190928 80.0496 0.15984 79.8482 0.128752C80.4345 0.136239 81.0208 0.143726 81.607 0.151213C80.2494 0.337726 81.8999 0.160112 82.0087 0.156096C82.1821 0.149308 81.9329 0.225665 82.223 0.216157C82.2454 0.214986 82.2268 0.174393 82.4035 0.150671C82.4629 0.142705 82.5443 0.136641 82.6567 0.13461C83.5908 0.117972 83.4431 0.208378 83.8353 0.207351C83.8712 0.206886 83.7454 0.142105 84.4228 0.126779C86.5761 0.0780587 84.4121 0.176403 84.3295 0.185375C84.2211 0.197189 84.9592 0.467884 83.1304 0.371918C83.7445 0.402467 83.8062 0.522261 83.8754 0.525234C83.9365 0.527673 85.0006 0.510804 85.0592 0.506688C85.5823 0.466031 85.1221 0.384148 85.224 0.369483C85.3073 0.357644 86.5895 0.464444 86.8901 0.218302C87.5037 0.445565 86.537 0.424488 85.5083 0.459345C85.3582 0.50593 86.4879 0.551357 86.5473 0.55126C88.0047 0.551148 87.1979 0.36417 87.5166 0.244822C87.684 0.182381 88.2778 0.310043 87.7296 0.142344C89.0527 0.125154 88.2502 0.221928 88.3356 0.236319C88.4646 0.257472 88.9276 0.209686 88.9856 0.216118C89.0706 0.225631 88.7749 0.283469 89.1102 0.30408C89.166 0.307081 89.7064 0.207594 89.0097 0.159488C89.9406 0.174217 89.8641 0.0891209 90.1797 0.260854C90.8213 -0.0630779 90.6449 0.453042 90.8974 0.471455C91.5689 0.520061 91.3743 0.265135 91.4098 0.252742C91.4826 0.229103 91.6989 0.22046 91.9787 0.219064C92.6381 0.215724 93.6509 0.252901 93.9743 0.227798C93.7922 0.410843 92.5 0.227221 92.211 0.262514C92.0684 0.279851 91.9977 0.294111 91.9786 0.306561C91.9711 0.311436 91.9715 0.316034 91.9786 0.320431C92.0755 0.380596 93.4246 0.403538 92.8687 0.585746C93.1622 0.522886 93.4557 0.460069 93.7492 0.397299C94.2868 0.54661 93.5235 0.609566 94.9714 0.55855C95.2084 0.431099 93.9477 0.576513 94.2008 0.476304C94.35 0.417417 95.1895 0.406611 95.2061 0.375506C95.2227 0.33798 94.4639 0.380742 94.5836 0.323293C94.8449 0.198907 97.6128 0.325263 95.5054 0.38748C96.0931 0.38687 96.3952 0.635554 96.9051 0.559938C97.235 0.510993 95.3814 0.162407 98.1637 0.234708C98.2225 0.351861 97.0511 0.265262 97.0207 0.274163C96.9779 0.286985 97.189 0.551726 97.2256 0.564885C97.355 0.607693 100.197 0.477707 100.797 0.614268C100.696 0.548311 101.076 0.535918 101.564 0.540036C102.215 0.54545 103.057 0.580552 103.205 0.555042C103.275 0.542673 103.017 0.44744 103.091 0.438047C103.552 0.382113 104.799 0.558279 105.378 0.567641C106.026 0.578054 105.945 0.496711 105.981 0.497154C106.266 0.504203 106.038 0.556897 106.212 0.558311C106.476 0.560017 108.286 0.589369 108.377 0.579317C108.404 0.576048 108.109 0.480616 108.504 0.467409C108.572 0.465245 108.528 0.57364 109.697 0.540197C111.106 0.500517 108.721 0.392423 109.307 0.285068C110.21 0.458809 110.183 0.297149 110.428 0.312866C110.484 0.316617 110.775 0.380693 111.163 0.424463C111.366 0.447284 111.594 0.464587 111.83 0.464914C111.607 0.471851 111.385 0.478861 111.162 0.485943C110.892 0.49456 110.621 0.503283 110.351 0.512109C110.562 0.525276 110.86 0.529367 111.162 0.532618C111.552 0.536804 111.95 0.539615 112.174 0.558204C112.369 0.574273 112.207 0.684741 112.63 0.687923C112.719 0.688084 113.08 0.418156 111.97 0.525496C111.883 0.426058 112.409 0.497492 112.654 0.47341C112.691 0.46964 112.839 0.307784 113.15 0.414497C113.225 0.441042 112.401 0.905684 114.512 0.593661C114.58 0.583638 114.345 0.519776 114.412 0.508469C114.457 0.500771 114.995 0.534166 115.054 0.526747C115.115 0.518679 114.857 0.448776 114.929 0.43716C115.301 0.377264 115.783 0.645329 115.019 0.61209C115.274 0.648588 115.529 0.685194 115.784 0.72191C115.514 0.521437 116.187 0.674151 116.54 0.674961C118.808 0.681281 117.293 0.524113 117.684 0.466029C118.313 0.373403 117.827 0.697755 118.76 0.61714C118.846 0.609916 117.724 0.442403 119.92 0.57184C119.595 0.569863 119.271 0.568087 118.946 0.566505C119.129 0.759491 120.118 0.579905 120.193 0.579203C120.57 0.576751 120.671 0.585849 120.772 0.59122C120.902 0.598248 121.032 0.598855 121.756 0.562305C121.87 0.556483 122.119 0.609553 122.364 0.592735C123.381 0.523454 121.027 0.499485 120.964 0.422349C120.935 0.382983 123.466 0.458456 123.552 0.479927C123.919 0.568928 122.404 0.483147 122.69 0.589191C122.794 0.624466 126.404 0.65822 127.127 0.72345C127.962 0.795635 128.329 1.06548 128.344 0.777641C128.57 1.06853 128.785 0.883138 128.892 0.888927C129.698 0.934385 130.002 0.953362 130.386 0.964529C130.617 0.971314 130.878 0.975393 131.294 0.981765C131.539 0.985616 131.742 1.07974 131.829 1.06878C131.88 1.0621 131.789 0.966482 132.037 0.948273C132.382 0.92248 134.438 1.10638 134.589 1.1651C134.74 1.22257 133.718 1.148 133.898 1.23967C134.637 1.28086 135.35 1.29305 136.096 1.33779C136.406 1.35667 136.244 1.40732 136.377 1.41498C136.435 1.41817 137.507 1.42011 137.463 1.39655C137.36 1.33836 134.051 1.21574 134.927 1.15513C135.096 1.14303 135.683 1.30539 135.596 1.13748C137.071 1.22567 138.542 1.31964 140.008 1.41959C141.465 1.51917 142.908 1.60434 144.351 1.67777C142.981 1.727 141.476 1.6015 140.003 1.50288C140.003 1.50286 140.003 1.50287 140.003 1.50287C139.687 1.4818 139.373 1.46295 139.063 1.44829C138.82 1.43644 137.999 1.37771 138.095 1.46563C138.689 1.50492 139.34 1.53818 139.999 1.57306C141.001 1.62621 142.015 1.67253 142.872 1.74254C142.918 1.7463 142.748 1.81328 142.917 1.83247C143.233 1.86892 144.273 1.79053 144.445 1.82746C144.475 1.83596 143.882 1.91113 144.059 1.98026C144.513 2.15774 144.642 1.80826 145.038 1.82662C145.344 1.84307 147.402 2.07758 147.919 1.98007C148.468 1.87969 146.4 1.87277 146.556 1.78134C147.245 1.75536 147.936 1.77429 148.619 1.80135C149.325 1.82931 150.02 1.86589 150.693 1.87086C150.716 1.87094 150.515 1.79382 150.81 1.78827C151.324 1.77836 151.457 1.88474 151.707 1.90492C151.977 1.92677 152.931 1.92225 153.058 1.96129C153.074 1.96646 152.88 2.06848 152.851 2.07109C152.434 2.10968 152.288 1.97294 152.25 1.9708C152.108 1.96403 151.968 2.01394 151.838 2.00919C151.625 2.00128 151.508 1.95193 151.227 1.94361C151.032 1.93763 151.218 2.03219 151.031 2.02517C150.962 2.02244 150.225 1.80064 150.152 2.01299C150.126 2.09401 156.199 2.23801 156.809 2.16998C156.287 2.14425 155.766 2.11758 155.245 2.08991C155.969 2.1356 156.793 2.06957 157.27 2.10368C157.491 2.11948 157.637 2.15676 157.666 2.23657C160.426 2.24593 163.191 2.23038 165.96 2.20184C167.133 2.18976 168.306 2.17536 169.479 2.15958C170.185 2.16781 169.801 2.33775 170.96 2.26801C170.659 2.22211 170.359 2.17615 170.058 2.13011C170.652 2.1556 173.29 2.17371 173.717 2.1313C173.772 2.12578 173.846 1.97722 174.505 1.95116C174.568 1.94867 174.625 1.94771 174.678 1.948C175.113 1.95038 175.22 2.03791 175.499 2.05106C175.762 2.06314 176.057 2.0283 176.135 2.03281C176.195 2.03647 176.22 2.10334 176.364 2.11219C176.819 2.13935 176.447 1.9571 176.903 2.16583C176.793 2.17633 176.683 2.18683 176.574 2.19734C177.123 2.21781 177.875 2.30184 177.067 2.36669C176.929 2.37789 177.047 2.31034 176.943 2.31252C172.886 2.40684 176.128 2.46744 177.548 2.33808C177.916 2.42707 179.963 2.32898 180.032 2.34711C180.127 2.37294 179.778 2.45655 180.239 2.51474C180.335 2.5262 183.076 2.4256 182.091 2.5707C181.888 2.60034 180.573 2.59547 180.256 2.60526C181.005 2.79584 182.748 2.47341 182.945 2.47822C183.738 2.49749 181.424 2.67988 183.211 2.67526C183.299 2.67506 183.376 2.67442 183.443 2.67336C184.427 2.65808 183.327 2.55121 183.821 2.48924C184.117 2.45161 185.675 2.5815 185.63 2.38746C186.165 2.36014 185.853 2.46719 185.919 2.47381C185.984 2.47936 187.034 2.40921 187.375 2.44732C187.417 2.45203 187.287 2.55463 187.33 2.56251C187.414 2.57564 188.427 2.54657 188.468 2.53792C188.493 2.53175 188.251 2.44493 188.35 2.42262C188.466 2.39663 189.442 2.41087 189.496 2.38545C189.571 2.34631 188.367 2.3798 188.567 2.27934C189.122 2.2999 190.027 2.22877 190.394 2.14764C190.304 2.17076 189.765 2.17653 189.578 2.16963C189.665 2.02343 190.823 2.02056 190.427 2.13725C190.679 2.07454 190.507 2.0424 190.648 1.9836C190.685 1.96867 191.043 1.96455 191.112 1.93926C191.121 1.93419 190.751 1.88041 190.825 1.85069C190.959 1.79656 192.044 1.80684 192.132 1.82119C192.382 1.86068 191.498 1.90914 191.424 1.97082C191.414 1.98009 192.166 2.09947 192.177 2.11026C192.221 2.22388 191.385 2.14265 191.48 2.24515C191.687 2.26646 191.894 2.2879 192.101 2.3095C191.303 2.41274 189.829 2.36549 189.449 2.48631C190.63 2.44379 191.868 2.44702 191.865 2.71296C191.864 2.82484 191.355 2.89118 191.375 2.91968C191.45 3.02123 192.157 2.90993 192.183 2.91547C192.423 2.9843 191.211 3.03417 191.156 3.06469C191.072 3.11322 191.52 3.31138 191.52 3.35548C191.504 3.3642 190.787 3.41307 191.029 3.48934C191.274 3.56617 191.902 3.5671 191.924 3.57525C192.043 3.62131 190.946 3.66539 190.914 3.69328C190.896 3.7071 191.486 3.79092 191.503 3.81549C191.518 3.84 191.07 3.89448 190.894 3.97265C190.763 4.03065 191.146 4.07375 191.078 4.08299C191.03 4.08878 189.994 4.09168 189.944 4.10237C189.868 4.11772 190.111 4.18543 190.075 4.20282C190.025 4.22779 189.691 4.20464 189.735 4.22992C189.768 4.24826 191.064 4.48057 191.056 4.54449C191.042 4.65238 189.669 4.40853 190.947 4.83093C190.956 4.83368 191.266 4.80257 191.275 4.80521C191.466 4.88338 190.472 5.00618 191.688 4.98275C189.425 5.12474 191.407 5.14561 191.073 5.32866C190.944 5.39874 190.067 5.43098 190.063 5.44171C190.149 5.5301 190.428 5.46003 190.523 5.50325C190.575 5.52723 189.791 5.62464 189.968 5.68485C190.059 5.71561 190.892 5.70126 190.926 5.70749C191.255 5.7644 190.852 5.82776 190.924 5.86864C190.972 5.89595 191.474 5.89701 191.487 5.90202C191.508 5.91218 190.827 6.02496 190.686 6.06471C190.578 6.09513 190.983 6.14097 190.908 6.15434C190.454 6.2339 189.489 6.03863 190.42 6.31472C190.476 6.33164 190.828 6.32349 190.838 6.32692C191.056 6.40567 190.409 6.41461 190.293 6.48028C190.095 6.59313 191.024 6.527 190.252 6.60889C190.832 6.67983 191.155 6.67573 191.833 6.65454C189.954 6.71515 189.294 7.00957 191.378 6.99503C190.715 6.99199 190.789 7.15584 190.591 7.15932C190.468 7.16109 189.506 7.00303 189.949 7.36618C190.004 7.41144 190.588 7.35103 190.405 7.4452C189.004 7.42798 190.376 7.50451 190.377 7.51709C190.361 7.72938 186.936 7.57794 186.347 7.61243C185.664 7.64863 185.059 7.82636 184.911 7.82858C184.422 7.83532 184.826 7.74368 184.717 7.71352C184.64 7.69296 183.961 7.77362 183.521 7.8241C183.321 7.84706 183.17 7.86364 183.148 7.86114C182.878 7.829 183.15 7.72268 183.122 7.71797C182.787 7.66016 180.92 7.77174 180.396 7.75805C180.414 7.82383 181.464 7.81037 180.81 7.92834C180.049 8.06602 180 7.7753 179.98 7.76278C178.254 7.79612 176.527 7.8326 174.799 7.86917C173.02 7.9068 171.24 7.94455 169.458 7.97908C169.505 8.13389 171.799 7.97247 171.852 7.99153C172.161 8.10719 168.282 8.17959 167.803 8.13142C168.166 8.15868 168.528 8.18577 168.89 8.21272C168.286 8.39945 166.949 8.20116 166.055 8.28257C166.04 8.28393 166.025 8.28536 166.011 8.28687C165.857 8.30288 165.943 8.32754 166.056 8.34777C166.154 8.36545 166.272 8.37973 166.267 8.382C166.202 8.39694 166.129 8.40705 166.057 8.41287C165.77 8.43603 165.499 8.39103 165.809 8.31194C165.018 8.41301 165.132 8.31287 164.523 8.31399C164.492 8.3141 164.754 8.38258 164.273 8.41895C164.048 8.43621 162.843 8.45114 162.682 8.5156C162.616 8.54292 163.231 8.8152 163.303 8.57386C164.615 8.67464 163.721 8.45915 164.229 8.45811C164.308 8.45814 164.13 8.59545 165.41 8.51378C165.17 8.75972 163.692 8.59888 163.439 8.63082C162.918 8.69789 165.07 8.79536 165.461 8.59995C165.284 8.78705 165.599 8.63075 166.06 8.62378C166.071 8.62361 166.082 8.62353 166.093 8.62354C166.617 8.62371 166.39 8.68351 166.673 8.67926C167.449 8.66792 167.125 8.54 167.766 8.64925C167.137 8.28818 168.859 8.58127 169.361 8.66903C168.548 8.70297 167.734 8.73624 166.92 8.76851C166.967 8.78728 167.013 8.80604 167.06 8.82479C166.846 8.82559 166.631 8.82631 166.417 8.82697C166.451 8.8077 166.485 8.78844 166.519 8.76917C166.348 8.79076 166.197 8.80579 166.063 8.81577C165.334 8.87022 165.128 8.77504 165.052 8.7749C163.889 8.77584 162.546 8.79326 161.369 8.80322C161.192 8.80445 161.315 8.92621 160.027 8.84004C159.616 8.81229 160.003 8.71522 159.537 8.73219C158.956 8.99268 158.966 8.78714 158.793 8.78761C158.296 8.78971 157.992 8.85407 157.946 8.85489C157.747 8.85859 157.518 8.86008 157.277 8.86061C156.773 8.86175 156.212 8.8585 155.756 8.86375C155.743 8.8647 156.094 8.9446 155.656 8.92014C155.501 8.91157 154.121 8.5698 152.911 8.66747C153.225 8.69331 153.54 8.71875 153.854 8.74379C153.484 8.71216 150.892 8.76576 151.524 8.86331C151.912 8.92423 152.863 8.71692 152.965 8.92681C152.387 8.88075 150.047 8.87977 148.458 8.84948C147.679 8.83586 147.082 8.81846 146.96 8.79912C146.909 8.79079 147.227 8.73162 147.156 8.72098C147.102 8.71344 146.007 8.69767 145.863 8.6664C145.777 8.64827 146.261 8.62169 146.223 8.59596C146.189 8.57839 144.825 8.50454 144.743 8.5858C145.081 8.56414 146.022 8.62435 145.525 8.67996C145.461 8.68683 145.133 8.62092 145.056 8.62949C144.335 8.70969 146.479 8.75688 146.81 8.76463C145.464 8.83642 143.377 8.6337 141.811 8.62964C141.183 8.5297 142.752 8.56446 142.04 8.47308C140.566 8.2816 141.641 8.55247 141.595 8.55936C141.222 8.61424 139.997 8.16714 139.98 8.45736C139.8 8.43273 139.701 8.41317 139.62 8.39805C139.62 8.39804 139.62 8.39804 139.62 8.39804C139.463 8.36866 139.371 8.35587 138.878 8.35436C138.974 8.37981 139.071 8.40528 139.168 8.43079C138.332 8.55314 136.611 8.03948 136.743 8.01403C137.099 7.94448 138.001 8.12692 138.079 8.12794C138.19 8.12935 138.503 7.87086 139.634 8.14759C139.68 8.15873 139.727 8.1707 139.775 8.18357C139.927 8.13532 139.829 8.09483 139.639 8.05969C139.165 7.97132 138.112 7.9206 138.935 7.86795C138.16 7.84512 134.999 7.55081 134.538 7.61946C134.483 7.6284 134.728 7.83713 133.949 7.70125C133.579 7.63668 134.477 7.67474 134.308 7.62215C134.051 7.54138 132.151 7.44265 130.141 7.37189C128.116 7.29923 125.978 7.2553 125.298 7.2384C125.21 7.23592 125.244 7.17561 125.157 7.17352C124.892 7.16693 123.921 7.22969 123.446 7.18833C124.428 7.32963 122.514 7.28423 122.028 7.2598C121.289 7.22164 121.338 7.11513 121.019 7.08417C120.891 7.0718 120.756 7.06301 120.615 7.0569C119.402 7.00395 117.778 7.15276 116.925 6.92162C116.973 7.16004 115.273 6.77321 114.496 6.75856C113.887 6.74648 113.002 6.89003 113.822 6.99891C112.91 6.97462 111.956 6.9928 111.075 6.99913C110.941 7.00009 110.809 7.00077 110.679 7.00099C110.517 7.0013 110.742 6.9339 110.464 6.93667C110.438 6.93744 110.403 7.00586 110.164 7.01003C108.193 7.04633 109.153 6.91168 108.785 6.86423C108.579 6.83781 108.427 6.82416 108.315 6.819C109.402 6.81787 110.646 6.80888 111.078 6.81046C111.102 6.81055 111.124 6.81066 111.144 6.81082C111.127 6.80233 111.105 6.79474 111.078 6.78799C110.604 6.6699 108.562 6.80545 107.94 6.76079C107.918 6.75906 107.998 6.67604 107.975 6.67521C107.974 6.6752 107.974 6.6752 107.973 6.67519C107.727 6.66584 106.158 6.68174 106.48 6.78489C106.566 6.81243 107.288 6.81901 108.145 6.81912C107.913 6.8354 108.085 6.93118 108.044 6.93475C107.548 6.97573 106.333 6.87233 105.902 6.85632C105.804 6.85274 105.81 6.91299 105.794 6.91299C105.402 6.89593 105.565 6.72545 105.161 6.8993C104.453 6.67909 106.492 6.8788 106.349 6.73876C106.24 6.62849 101.705 6.65267 101.718 6.82333C101.703 6.80598 101.645 6.7844 101.528 6.75962C101.523 6.75849 101.518 6.75736 101.512 6.75622C101.229 6.69782 99.9662 6.70904 99.7482 6.73926C99.7114 6.7452 99.7253 6.90903 99.6797 6.91033C99.5658 6.9134 98.0231 6.7785 97.4463 6.87352C97.7575 6.89755 98.0687 6.92164 98.3798 6.94581C96.5002 6.94031 96.7905 6.99047 97.4166 7.0414C97.4479 7.04195 97.4784 7.04827 97.5083 7.04904C97.9936 7.0869 98.6156 7.12425 98.625 7.13722C98.6606 7.18597 95.4716 7.20314 96.0853 7.05337C96.1709 7.03271 97.6463 7.10507 96.916 6.99433C96.7882 6.97487 95.8405 7.00307 95.7907 6.99104C95.4578 6.91051 97.5277 6.81115 97.2751 6.69764C96.7725 6.80342 96.128 6.74489 95.5518 6.77116C95.2895 6.78304 95.2249 6.865 95.1926 6.86646C94.7091 6.88675 94.9806 6.80131 94.8192 6.80308C94.7327 6.80431 93.7797 6.98559 93.9602 6.7334C90.8206 6.91422 93.0917 6.91684 95.017 6.90706C94.4086 6.99754 93.2158 6.95083 92.6804 6.97145C92.4883 6.97892 92.602 7.06336 92.2776 7.07976C92.2037 7.0835 92.0989 7.08558 91.9699 7.08632C90.9332 7.09192 88.3289 7.01154 87.5897 6.99119C88.1001 6.96158 87.9509 6.86972 87.557 6.87595C87.163 6.88222 87.4939 7.00485 87.417 7.018C87.3348 7.03156 85.4862 6.97345 85.1786 6.98936C86.5704 6.94508 86.2564 6.85349 85.0751 6.84384C85.2459 6.81748 85.4167 6.79112 85.5874 6.76477C84.8951 6.80176 83.4391 6.66214 83.0387 6.7037C82.9759 6.71038 83.2015 6.78736 83.1662 6.79111C83.0153 6.80516 82.7086 6.79869 82.4036 6.78881C82.4034 6.78881 82.4035 6.78881 82.4035 6.78881C81.9987 6.7757 81.5965 6.7566 81.5648 6.77158C81.5176 6.79345 82.0272 6.85798 81.8381 6.88975C81.7986 6.89644 81.3073 6.79239 80.8235 6.81797C80.644 6.82738 80.7521 6.90018 80.7069 6.9044C80.3299 6.93942 80.5524 6.81683 79.8635 6.83653C79.3588 6.8511 78.9829 6.97095 78.2854 6.93126C80.3115 7.06642 79.0383 7.03206 78.0547 7.05439C77.9265 7.0573 77.8032 7.06118 77.6928 7.06651C77.5394 7.0739 77.6709 7.20606 76.754 7.14171C78.7053 6.90275 76.1977 7.01541 75.6847 7.0128C75.6566 7.01199 75.6469 6.92484 75.3953 6.92344C75.3741 6.92352 75.4047 6.98242 75.1708 6.98692C72.9533 7.0295 74.3712 6.96297 73.9499 6.90489C73.9089 6.89922 73.8208 6.89922 73.7058 6.9026C73.3183 6.914 72.6257 6.96388 72.4017 6.96544C72.3349 6.96564 72.3657 6.90445 72.1073 6.90684C71.6501 6.91123 71.2406 6.97639 70.9388 6.98155C70.9036 6.98185 70.9022 6.88529 70.3302 6.91661C70.1694 6.92536 69.9888 6.95965 70.2172 6.98741C70.9747 7.07872 72.4115 6.92069 73.2677 7.01183C74.0484 7.09483 71.5866 7.10265 71.4585 7.10314C71.4116 7.10344 71.8923 7.05549 71.4039 7.04601C70.9868 7.03811 70.2244 7.20489 69.6028 7.16857C69.5816 7.16737 69.471 7.13853 69.357 7.10624C69.2155 7.06618 69.0689 7.02079 69.0816 7.01622C69.0899 7.01382 69.2156 7.00752 69.357 6.99823C69.571 6.98416 69.8211 6.96322 69.7544 6.93858C69.7454 6.93543 69.521 6.93484 69.357 6.92538C69.2784 6.92084 69.2136 6.91427 69.1931 6.9044C69.1156 6.86731 68.9067 6.50335 68.8032 6.49423C68.5375 6.47168 68.7104 6.55469 68.5386 6.54892C68.1701 6.53674 66.892 6.42911 66.8504 6.55526C67.0616 6.56275 67.2727 6.57024 67.4838 6.57773C66.3091 6.5907 66.8099 6.6444 66.6434 6.66806C66.4642 6.69366 66.5146 6.58277 66.1186 6.57236C66.0683 6.57102 65.4812 6.57837 65.0081 6.594C64.6719 6.60511 64.3932 6.62041 64.4057 6.63974C64.7738 6.60999 64.9392 6.61431 65.0081 6.63029C65.1107 6.65408 64.9992 6.70371 65.0245 6.70517C65.1851 6.7141 65.3901 6.63723 65.6055 6.63876C67.1204 6.65079 65.5926 6.77212 65.9502 6.80332C66.0733 6.81382 66.3186 6.7482 66.3708 6.75156C66.5406 6.76243 66.5433 6.84836 66.6565 6.84141C66.9208 6.82528 66.6123 6.70369 66.6332 6.69736C66.8693 6.62127 67.7945 6.71594 67.2185 6.84824C67.5643 6.89592 67.6048 6.73513 67.8789 6.79941C68.424 6.9267 67.6074 6.89401 67.3862 6.91514C66.5926 6.99138 66.3571 6.92967 65.2337 6.95079C65.1603 6.95214 65.0843 6.95582 65.0081 6.96097C64.6647 6.98418 64.3159 7.03713 64.1622 7.04063C64.044 7.04333 62.9275 6.77158 62.8947 7.19689C62.4607 7.15574 61.7798 6.87547 61.3326 6.88829C60.9312 6.89998 61.0589 7.05044 61.0214 7.05626C60.9896 7.06133 60.8264 7.05995 60.6593 7.06133C60.5247 7.06244 60.3876 7.06533 60.3144 7.07482C60.122 7.09994 60.218 7.15737 59.9127 7.18078C59.1531 7.23887 59.173 7.08528 59.0949 7.0753C58.1885 6.95994 58.5854 7.17839 58.3842 7.19591C58.2687 7.20586 57.2231 7.17757 56.3104 7.16753C55.7455 7.16132 55.2312 7.16186 55.0199 7.18288C55.2449 7.15223 55.4699 7.12156 55.6948 7.09085C55.2923 6.99496 54.8654 7.15097 54.858 6.97917C54.7762 7.25651 53.9449 7.07051 53.6952 7.0774C53.5968 7.08025 53.6045 7.12752 53.4813 7.12943C53.0002 7.13727 51.9161 7.09816 51.6552 7.12168C50.5271 7.22316 53.4111 7.39913 53.6387 7.40938C53.1837 7.40615 50.6119 7.46432 51.7938 7.59945C51.9766 7.6203 52.3005 7.49664 52.4032 7.49192C53.098 7.46087 52.5515 7.57139 52.6059 7.58203C52.6985 7.59924 53.1559 7.49227 53.2766 7.5052C53.3169 7.50934 53.0574 7.6098 53.7203 7.6126C53.3939 7.71008 51.5318 7.62801 51.2874 7.65041C51.2146 7.65713 51.5844 7.80494 50.7739 7.73274C50.6157 7.71865 50.4125 7.69616 50.1524 7.66257C50.1708 7.68198 50.1893 7.70138 50.2077 7.72079C49.3205 7.72711 48.4334 7.73321 47.5465 7.73921C47.643 7.6948 48.1412 7.60627 47.514 7.6239C47.1529 7.63409 47.4198 7.73409 47.3868 7.7369C47.2643 7.74697 46.3684 7.74665 45.2417 7.74273C43.3881 7.73619 40.9107 7.72067 40.2203 7.72643C40.1013 7.72735 39.9154 7.73571 39.714 7.7468C39.2759 7.77089 38.7647 7.80791 38.7097 7.80884C38.2298 7.81598 36.5309 7.76204 36.1921 7.7732C35.9805 7.78028 36.1816 7.86352 35.9926 7.85948C35.8169 7.85563 35.9989 7.77544 35.9468 7.77205C35.7577 7.75919 35.0227 7.77169 34.1907 7.78401C33.121 7.79974 31.891 7.8156 31.4527 7.77363C31.8761 7.79301 33.8024 7.66726 34.1907 7.59983C34.2391 7.5914 34.2635 7.58385 34.2582 7.57758C34.2562 7.576 34.2308 7.57225 34.1907 7.5675C34.0327 7.54879 33.6459 7.5148 33.5509 7.5386C33.3539 7.4691 32.6779 7.68112 32.3103 7.63989C32.2687 7.63522 32.4323 7.51626 31.7761 7.4954C31.55 7.48828 30.9583 7.58158 30.3625 7.47897C30.0873 7.49541 29.4378 7.49184 28.6711 7.48423C27.0359 7.46747 24.8701 7.43529 24.6592 7.52366C24.6501 7.53042 25.2879 7.57082 24.8575 7.62557C24.2851 7.69847 24.7982 7.46099 24.1302 7.44479C24.0817 7.4436 23.6236 7.45119 23.1554 7.46144C22.6476 7.47259 22.1201 7.48221 22.0882 7.48973C21.5105 7.62194 23.1782 7.6736 23.1497 7.68661C23.0979 7.72739 21.7101 7.75273 21.6545 7.74214C21.599 7.7327 22.7304 7.56011 21.3743 7.62368C21.5293 7.64502 21.6843 7.66624 21.8387 7.68729C21.2031 7.72662 21.1419 7.60516 20.9909 7.59728C20.5582 7.5741 20.0953 7.72165 19.4497 7.573C19.3871 7.55861 19.3228 7.54145 19.2566 7.5211C19.0581 7.45991 19.3886 7.39511 19.3637 7.38597C19.1238 7.30375 18.8229 7.51825 18.4654 7.35543C18.4398 7.34353 19.2676 7.24966 17.8205 7.24441C17.9201 7.26009 18.0197 7.27583 18.1191 7.29162C17.9123 7.32413 16.4585 7.34524 16.2652 7.34009C15.8007 7.32379 16.0465 7.24433 15.8395 7.22556C15.7934 7.22142 15.7244 7.22035 15.6208 7.22388C15.9857 7.36985 14.2614 7.41506 14.3591 7.28543C14.1547 7.43076 13.0424 7.38538 12.3105 7.39696C12.194 7.39844 12.087 7.40101 11.9945 7.40534C11.5675 7.42333 10.7124 7.55406 10.5794 7.55755C10.4163 7.56006 10.457 7.44382 10.1615 7.44341C10.0921 7.44345 9.49897 7.54763 8.86901 7.5752C8.73014 7.58116 8.5895 7.58326 8.45186 7.57922C8.30478 7.57458 7.97261 7.42648 8.23836 7.34382C8.39984 7.29386 8.6179 7.26789 8.83227 7.25156C9.22004 7.22168 9.59284 7.22453 9.5787 7.15301C9.56502 7.08826 9.19963 7.11457 8.822 7.16104C8.50776 7.19922 8.18716 7.25129 8.0409 7.26379C6.56448 7.40309 7.39062 7.15594 7.34752 7.12091C7.23475 7.0399 6.43411 7.17696 6.4016 7.1771C6.25672 7.16432 6.80843 6.99114 6.80928 6.93421C6.80653 6.8563 6.01006 6.86229 6.18048 6.80662C6.42465 6.72198 7.16229 6.71517 7.2065 6.70481C7.79184 6.54365 6.94855 6.49372 6.70888 6.45048C6.63582 6.43607 6.90246 6.34847 6.84418 6.35042C5.958 6.38364 6.70181 6.61872 6.12739 6.69781C5.61615 6.7736 6.24755 6.53712 6.22821 6.53564C6.20071 6.53199 5.59245 6.64329 5.49053 6.62555C5.43157 6.60589 6.98653 6.09816 6.91058 6.02019C6.39782 6.12407 5.89 6.23893 5.389 6.36642C5.32302 6.24611 6.07244 6.19368 6.14776 6.16912C6.29655 6.11443 5.8563 6.12949 5.86696 6.08666C5.87093 6.05875 6.36056 5.87384 5.89615 5.92152C5.76583 5.93564 5.53862 6.03707 5.14327 6.09426C5.05213 6.10751 4.95227 6.11842 4.84283 6.12554C4.94838 6.09488 5.04458 6.06714 5.13193 6.04188C6.65196 5.6255 5.40674 5.80457 5.34163 5.77523C5.27355 5.74222 6.20563 5.4426 5.05745 5.69812C5.05568 5.69853 5.05392 5.69894 5.05214 5.69936C5.0122 5.60877 5.00422 5.57579 5.02813 5.56279C5.06612 5.54223 5.18434 5.5718 5.38213 5.50368C5.77847 5.37242 4.81829 5.46606 6.32395 5.25094C6.22737 5.1537 5.20726 5.34533 4.9909 5.39096C4.97134 5.39457 4.95824 5.39675 4.95285 5.39713C4.93172 5.39849 4.95398 5.38327 4.98503 5.36383C5.03685 5.33135 5.11346 5.28725 5.05132 5.28795C5.02267 5.28841 4.99521 5.28885 4.96888 5.28928C3.91533 5.31636 4.6635 5.24386 4.31284 5.17975C4.28067 5.16929 3.20285 5.39311 4.00844 5.1638C4.34361 5.07082 4.64024 5.0052 4.89618 4.95375C5.76504 4.78182 6.18928 4.75369 6.33991 4.44772C5.84064 4.46306 5.30693 4.57078 4.84139 4.70083C4.23829 4.8682 3.75217 5.07223 3.56386 5.12509C3.05632 5.2694 3.5641 5.05496 3.49657 5.05266C3.47244 5.05115 3.0354 5.17981 3.02736 5.17731C2.74524 5.05408 3.8958 4.80273 4.83126 4.65407C5.19222 4.59326 5.51579 4.54185 5.71737 4.49086C5.51368 4.48756 5.31032 4.48602 5.1069 4.48644C5.37107 4.43027 5.63808 4.37713 5.90428 4.32742C4.61921 4.4899 5.8517 4.2997 6.13355 4.03212C6.19694 3.9705 5.36931 4.20179 6.30723 3.89917C5.59192 3.99085 5.80893 3.90585 5.17898 4.09151C5.17523 3.99477 6.6102 3.63026 7.18098 3.51391C5.18218 3.73243 6.28868 3.85221 4.69418 4.02134C4.65359 4.0264 4.61126 4.03161 4.56712 4.03702C4.41775 4.12629 4.54919 4.11903 4.71013 4.09495C4.87121 4.07072 5.06294 4.03062 5.03068 4.04646C4.95874 4.08189 4.85185 4.10815 4.71978 4.1395C4.42983 4.20832 4.00915 4.30411 3.58217 4.5773C3.48203 4.64275 3.97505 4.62973 3.28697 4.80811C3.21239 4.82646 2.74712 4.85889 2.75136 4.85129C2.78688 4.75926 3.23024 4.66289 3.23905 4.62834C3.24824 4.59302 2.76729 4.74896 2.76363 4.74272C2.7208 4.65401 3.15974 4.58993 3.08958 4.57915C2.94185 4.54994 1.12158 4.87302 3.43792 4.2648C1.55887 4.91728 3.21772 4.41377 3.95536 4.20012C4.14325 4.14401 4.17963 4.07584 4.44758 3.99463C4.52106 3.97247 4.59796 3.95234 4.67526 3.93402C4.96184 3.86592 5.2493 3.82459 5.39159 3.78881C5.58668 3.74169 4.44173 3.81568 6.0677 3.5569C5.67848 3.56035 5.16132 3.65355 4.64027 3.77251C4.0305 3.9104 3.41439 4.08631 2.96859 4.1592C1.28762 4.44718 4.04124 3.59967 4.33482 3.55553C4.41108 3.53304 4.13467 3.5162 4.18502 3.49997C4.20897 3.49235 4.35824 3.45933 4.56317 3.41662C5.06836 3.30776 5.90685 3.16163 6.01073 3.09947C6.15583 3.00819 5.42912 3.20459 5.36608 3.15085C5.32289 3.10043 7.24047 2.70646 6.19076 2.84637C5.72647 2.90795 5.03008 3.10832 4.52082 3.22117C4.23351 3.28385 4.00477 3.31607 3.90717 3.26702C4.10577 3.21678 4.30172 3.16929 4.49963 3.12333C5.36071 2.9234 6.22483 2.76038 7.08621 2.62532C6.49417 2.63425 5.89869 2.65619 5.29911 2.69438C6.35425 2.4748 7.28932 2.40509 8.26303 2.23637C8.39729 2.21329 8.53081 2.18861 8.66657 2.1615C8.50935 2.16438 8.37372 2.16665 8.2553 2.16825C7.24358 2.18826 7.62669 2.1028 8.23785 2.01452C8.80188 1.93353 9.55493 1.86954 9.57163 1.85551C9.58514 1.83428 8.48748 1.74594 8.30791 1.73419C9.26372 1.53101 12.1611 1.31759 10.4471 1.19136C10.7597 1.22149 11.4985 1.04551 11.488 1.03689C11.3894 0.931081 9.75621 1.11323 10.0155 1.00218C10.3182 0.868025 10.7632 0.986071 11.2369 0.946484C11.5335 0.921516 11.7833 0.893858 11.9979 0.863495C13.5352 0.656137 13.2792 0.244963 15.3963 0.285773C15.3483 0.266811 15.3003 0.247876 15.2522 0.22897C15.4273 0.228768 15.6011 0.228946 15.776 0.229439C17.0301 0.233009 18.2685 0.253616 19.4928 0.275833C20.6439 0.296581 21.7666 0.319029 22.8874 0.327436C22.953 0.31577 23.026 0.304315 23.1052 0.29305C24.2249 0.136893 26.6131 0.0371418 27.8241 0.0508254C27.948 0.0521021 28.3015 0.0715215 28.6496 0.0933771C29.0368 0.117668 29.4173 0.144968 29.4684 0.152962C29.648 0.182016 28.6606 0.195848 29.107 0.250068C29.2013 0.260789 31.3766 0.2936 31.2208 0.20041C30.9771 0.189836 30.2144 0.238306 30.0895 0.216524C29.5159 0.114575 32.1831 0.127007 34.1907 0.134807C35.2545 0.138599 36.1333 0.140088 36.2483 0.118167C36.0999 0.0876131 35.9516 0.0570705 35.8032 0.0265398C36.226 0.0417805 36.6488 0.0571175 37.0716 0.0725379ZM17.6582 7.61668C17.4085 7.71012 16.7852 7.6398 16.4185 7.66836C16.2469 7.68176 16.035 7.73323 15.8445 7.78139C15.4745 7.87503 15.1867 7.95596 15.4261 7.713C15.5652 7.70588 15.7037 7.699 15.8437 7.69234C16.4443 7.66363 17.049 7.63899 17.6582 7.61668ZM28.8031 7.74535C28.7498 7.74021 28.7063 7.73339 28.6718 7.72537C28.5087 7.6875 28.544 7.62306 28.6714 7.58549C28.7747 7.55503 28.9384 7.54223 29.1059 7.57557C29.1523 7.58504 29.4925 7.81146 28.8031 7.74535ZM23.4648 7.6742C23.4862 7.67134 23.9266 7.67383 23.942 7.67694C24.3374 7.75573 23.0097 7.7478 23.4648 7.6742ZM49.2912 7.56421C48.7283 7.57181 49.1355 7.75693 49.4857 7.6818C49.5077 7.67702 49.3282 7.56386 49.2912 7.56421ZM48.8908 7.55851C48.454 7.3926 47.5729 7.7251 48.2729 7.69295C48.3408 7.6897 48.911 7.56659 48.8908 7.55851ZM26.9873 7.67099C27.0444 7.60749 27.5699 7.636 27.7943 7.65038C27.7884 7.70812 27.2073 7.663 26.9873 7.67099ZM40.3195 7.64654C40.3282 7.62721 40.0566 7.61529 39.7142 7.61184C39.1765 7.6064 38.4642 7.62194 38.3881 7.66188C38.5613 7.64543 39.2147 7.65918 39.7141 7.66327C40.0468 7.66599 40.3111 7.66439 40.3195 7.64654ZM45.0128 7.58689C44.9664 7.57819 44.334 7.58979 44.3524 7.6337C44.6609 7.69196 45.2217 7.62628 45.0128 7.58689ZM54.3503 7.60679C54.3847 7.59577 53.9106 7.31633 55.0344 7.50077C55.1994 7.52777 54.61 7.60039 54.6686 7.61043C54.7914 7.63004 54.8885 7.63921 54.9664 7.64088C54.443 7.66375 53.8991 7.67414 53.8465 7.65715C53.5996 7.57695 54.3351 7.6114 54.3503 7.60679ZM59.2516 7.39954C59.3593 7.354 60.0471 7.37834 60.2036 7.39709C60.2305 7.40062 60.1133 7.52031 60.423 7.51136C60.6457 7.50474 60.3709 7.4057 60.6593 7.39921C60.6928 7.39846 60.734 7.39895 60.7845 7.401C61.274 7.42069 60.62 7.50805 60.6628 7.51429C60.7201 7.52246 61.4772 7.46741 61.4536 7.5387C61.4404 7.57865 60.9729 7.56794 60.6593 7.56522C60.5583 7.56434 60.4733 7.56429 60.4244 7.56702C60.1676 7.58144 60.479 7.66942 60.0498 7.65052C59.7801 7.63872 59.9296 7.48401 59.8727 7.4762C59.8249 7.4699 58.8821 7.55893 59.2531 7.40002C59.2526 7.39986 59.2521 7.3997 59.2516 7.39954ZM55.108 7.63411C55.0686 7.63932 55.0224 7.64208 54.9664 7.64088C55.0139 7.6388 55.0612 7.63639 55.108 7.63411ZM19.1189 7.5545C19.3822 7.60369 18.5994 7.66041 18.3046 7.59698C18.2976 7.54634 19.078 7.54669 19.1189 7.5545ZM55.5934 7.50832C56.3705 7.54721 55.799 7.60051 55.108 7.63411C55.3274 7.60509 55.3324 7.49529 55.5934 7.50832ZM33.5509 7.5386C33.5835 7.55013 33.6043 7.56811 33.6069 7.59767C33.521 7.56537 33.5133 7.54801 33.5509 7.5386ZM35.3595 7.59153C35.9796 7.50179 34.7197 7.50483 34.7277 7.56933C34.7314 7.59364 35.3346 7.59507 35.3595 7.59153ZM50.0132 7.57442C49.9564 7.56549 50.8399 7.29533 49.5575 7.49687C50.2417 7.53024 49.5198 7.55845 49.5304 7.58227C49.5536 7.63955 50.3614 7.60449 50.7741 7.60896C50.8549 7.60984 50.9205 7.61224 50.9621 7.61715C51.041 7.56887 50.9385 7.5567 50.7742 7.5578C50.5229 7.55949 50.1272 7.59219 50.0147 7.57442C50.0142 7.57442 50.0137 7.57442 50.0132 7.57442ZM68.0808 7.46546C67.9252 7.5372 67.4314 7.51411 67.0983 7.50989C67.2539 7.43815 67.7476 7.46123 68.0808 7.46546ZM155.229 8.94172C152.925 8.99591 152.629 8.69923 154.735 8.82922C154.777 8.83198 155.369 8.91269 155.229 8.94172ZM135.497 8.22595C135.289 8.0886 135.996 8.10166 136.457 8.17725C136.561 8.19423 136.942 8.34238 136.498 8.34553C136.52 8.19201 135.838 8.09944 135.497 8.22595ZM56.0326 7.42686C56.095 7.40345 56.1932 7.39109 56.3104 7.38574C56.6178 7.37168 57.056 7.40593 57.3215 7.41516C57.149 7.46904 56.6697 7.46262 56.3104 7.44468C56.2034 7.43934 56.107 7.43297 56.0326 7.42686ZM147.656 8.68284C147.413 8.667 147.246 8.77326 147.287 8.78362C147.474 8.83101 147.931 8.75289 147.656 8.68284ZM53.7833 7.41245C53.7514 7.36171 54.6746 7.31362 54.7388 7.43908C54.5415 7.42991 53.8061 7.44434 53.7833 7.41245ZM67.4525 7.42737C67.3094 7.40157 68.0505 7.35537 68.2747 7.38098C68.2567 7.43499 67.5463 7.44414 67.4525 7.42737ZM143.733 8.59392C143.515 8.57589 142.967 8.55031 142.905 8.59234C142.827 8.64533 143.631 8.65946 143.733 8.59392ZM184.005 8.31942C184.019 8.32978 183.798 8.37804 183.53 8.41716C183.289 8.45251 183.01 8.48042 182.834 8.46582C182.367 8.42667 183.027 8.36816 183.529 8.33805C183.782 8.32287 183.995 8.31481 184.005 8.31942ZM149.958 8.67588C150.643 8.79337 149.883 8.67795 149.911 8.78929C150.373 8.80232 151.521 8.82485 150.733 8.70372C150.58 8.68025 150.174 8.68705 149.958 8.67588ZM149.326 8.62665C149.252 8.66118 148.755 8.76404 149.183 8.76487C149.38 8.76504 149.701 8.64538 149.326 8.62665ZM178.856 8.4575C178.247 8.37061 181.033 8.37081 181.113 8.38741C181.156 8.39574 181.183 8.40382 181.199 8.4108C181.301 8.37784 181.827 8.36315 181.889 8.44088C181.731 8.43703 181.301 8.45142 181.251 8.44359C181.229 8.44025 181.213 8.43705 181.202 8.4337C181.018 8.50482 178.973 8.47351 178.856 8.4575ZM174.232 8.44902C174.504 8.38681 174.689 8.38623 174.81 8.40913C174.998 8.44477 175.031 8.53732 174.995 8.54289C174.924 8.55383 174.863 8.56204 174.813 8.56794C174.326 8.6247 174.727 8.46668 174.706 8.4594C174.652 8.44633 174.115 8.54158 174.235 8.44898C174.234 8.44899 174.233 8.44901 174.232 8.44902ZM177.909 8.43541C177.937 8.43162 178.521 8.42782 178.546 8.43127C179.026 8.50467 177.373 8.5158 177.909 8.43541ZM62.9442 7.22717C63.3632 7.25165 62.9522 7.34228 62.6738 7.30969C62.651 7.30648 62.5747 7.20553 62.9442 7.22717ZM148.988 8.64407C148.961 8.63877 148.751 8.62604 148.463 8.61275C147.708 8.57878 146.422 8.53538 146.528 8.63729C146.657 8.63171 147.75 8.68418 148.461 8.69444C148.927 8.70155 149.228 8.69234 148.988 8.64407ZM130.381 7.8255C130.808 7.84315 130.356 7.94948 130.121 7.9003C130.116 7.89927 130.111 7.89818 130.106 7.89702C130.076 7.88942 130.088 7.8775 130.122 7.86553C130.182 7.84415 130.311 7.82265 130.381 7.8255ZM52.5392 7.29385C52.0837 7.36416 52.1782 7.12635 52.5728 7.20844C52.5883 7.21165 52.557 7.2911 52.5392 7.29385ZM133.855 8.04458C132.351 8.05738 132.725 7.66201 134.669 7.88848C134.608 7.90387 134.546 7.91928 134.484 7.9347C136.729 8.1015 134.637 7.96967 134.084 7.96835C133.875 7.96762 134.047 8.04376 133.857 8.04514C133.856 8.04495 133.856 8.04477 133.855 8.04458ZM128.091 7.73327C126.695 7.40268 129.254 7.66082 130.129 7.67147C130.156 7.67174 130.18 7.67178 130.203 7.67156C130.179 7.67444 130.154 7.67716 130.129 7.67975C129.37 7.75872 128.475 7.71285 129.787 7.88048C127.798 7.8308 128.63 7.74628 128.551 7.73342C128.457 7.71926 128.152 7.74787 128.091 7.73327ZM131.906 7.87674C131.99 7.87163 132.617 7.95708 132.844 7.95729C132.523 8.04245 131.349 7.91144 131.906 7.87674ZM169.378 8.61204C169.43 8.53331 169.559 8.47369 170.061 8.49326C169.907 8.53526 169.587 8.57489 169.378 8.61204ZM17.1848 7.20726C16.8462 7.20142 16.173 7.1757 16.38 7.25643C16.4027 7.26276 17.183 7.2527 17.1848 7.20726ZM141.686 8.33489C141.61 8.32378 139.702 8.2189 140.357 8.33853C140.552 8.37656 142.296 8.44899 141.686 8.33489ZM151.609 8.63591C151.448 8.63316 150.799 8.63816 150.784 8.65617C150.739 8.71928 151.538 8.69609 151.609 8.63591ZM15.4829 7.13754C15.4376 7.12869 14.416 7.16029 14.5295 7.1968C14.7425 7.26256 15.6342 7.16298 15.4829 7.13754ZM64.4684 7.04503C64.5563 7.04215 64.6727 7.12661 64.7031 7.12755C64.7218 7.12787 64.846 7.12587 65.0081 7.1247C65.4651 7.12141 66.2235 7.12466 65.7695 7.2047C65.7329 7.21118 65.4154 7.21006 65.0081 7.20545C64.2722 7.19713 63.2432 7.17742 63.0492 7.17052C62.9327 7.05458 63.9222 7.16487 64.163 7.15294C64.2054 7.15068 64.2326 7.05368 64.4677 7.04552C64.4679 7.04536 64.4681 7.04519 64.4684 7.04503ZM171.987 8.47968C172.057 8.40471 173.949 8.31766 173.929 8.40733C173.282 8.43156 172.634 8.45573 171.987 8.47968ZM171.024 8.48645C170.619 8.4422 171.565 8.4065 171.845 8.4239C171.849 8.47345 171.083 8.49296 171.024 8.48645ZM147.99 8.29261C147.798 8.30601 148.386 8.42776 148.253 8.44545C148.168 8.45656 147.74 8.40576 147.602 8.43578C147.563 8.44553 147.998 8.55765 148.125 8.55622C148.305 8.55467 148.133 8.471 148.329 8.47508C148.375 8.47603 148.421 8.47726 148.466 8.47872C149.063 8.49788 149.6 8.55754 150.168 8.56632C150.223 8.56703 149.796 8.50328 150.267 8.51237C150.34 8.51362 150.775 8.60495 151.338 8.60045C152.583 8.35814 153.492 8.62202 155.067 8.53579C155.007 8.51162 153.831 8.43941 153.761 8.43597C152.446 8.38549 150.087 8.3479 148.706 8.31464C148.547 8.31102 148.494 8.32078 148.47 8.33258C148.44 8.34704 148.454 8.36452 148.37 8.36369C148.249 8.36232 148.395 8.26428 147.99 8.29261ZM17.3652 7.15107C17.2021 7.04941 16.6372 7.11431 16.2766 7.1115C16.4037 7.20197 17.0101 7.12816 17.3652 7.15107ZM162.499 8.54349C162.314 8.54949 161.739 8.52467 161.691 8.5556C161.631 8.5962 162.46 8.61302 162.499 8.54349ZM73.5461 7.07384C73.5529 7.07278 73.6221 7.07292 73.7058 7.07368C73.8409 7.0749 74.0139 7.07773 74.0243 7.0797C74.2392 7.12386 73.9463 7.13916 73.7058 7.13266C73.5029 7.12717 73.3374 7.10615 73.5461 7.07384ZM84.1568 7.09335C84.4931 7.08083 84.8324 7.04913 84.9454 7.13145C84.7311 7.11883 84.1173 7.15068 84.1568 7.09335ZM98.7823 7.11198C98.7135 7.00384 99.7239 7.07802 99.9147 7.08869C99.8437 7.13618 98.8329 7.18979 98.7823 7.11198ZM169.299 8.27506C169.919 8.26991 169.785 8.10906 170.18 8.17549C170.245 8.18673 170.459 8.52279 169.775 8.40831C169.652 8.38769 170.13 8.29797 169.299 8.27506ZM134.987 7.90663C135.146 7.84264 135.633 7.88684 135.962 7.9086C135.886 7.95782 135.222 7.91237 134.987 7.90663ZM13.6386 7.09376C13.3536 6.99809 12.0703 7.12858 12.3922 7.18178C12.4365 7.18647 13.4558 7.09338 13.6386 7.09376ZM57.6065 7.10167C58.1583 7.02239 57.0154 6.99784 56.6546 7.0753C56.8179 7.07023 57.5693 7.10689 57.6065 7.10167ZM95.2715 7.04195C95.298 7.03875 95.8823 7.04791 95.9085 7.0519C96.3871 7.13592 94.7338 7.11046 95.2715 7.04195ZM80.6675 6.96251C80.8508 6.90578 81.9228 6.93818 82.4035 6.99055C82.4757 6.99841 82.5345 7.00672 82.575 7.01524C82.5388 7.02681 82.4794 7.036 82.4036 7.04306C82.4034 7.04306 82.4035 7.04306 82.4035 7.04306C81.8538 7.09425 80.4376 7.03411 80.6675 6.96251ZM166.747 8.366C167.19 8.3554 167.61 8.36836 168.017 8.38946C167.933 8.44605 166.795 8.40643 166.747 8.366ZM97.4166 7.0414C97.4479 7.04195 97.4784 7.04827 97.5083 7.04904C97.4771 7.0466 97.4465 7.04384 97.4166 7.0414ZM156.815 8.41827C156.443 8.39649 156.52 8.49709 156.543 8.50021C156.823 8.53302 157.237 8.44263 156.815 8.41827ZM16.9487 7.00197C16.8225 6.91115 16.2109 6.98375 15.8611 6.96564C15.9632 7.036 16.6647 7.01151 16.9487 7.00197ZM126.547 7.49491C126.088 7.38102 127.974 7.32898 128.368 7.40736C128.395 7.46856 126.614 7.5099 126.547 7.49491ZM55.8926 6.9654C55.8555 6.89426 55.0605 6.97986 55.2294 7.01354C55.3364 7.035 55.9148 7.00964 55.8926 6.9654ZM129.313 7.48309C129.49 7.46787 129.9 7.55359 129.753 7.59089C129.565 7.63868 129.267 7.48761 129.313 7.48309ZM145.252 8.14956C145.174 8.13663 144.115 8.17142 144.549 8.25975C144.85 8.32112 144.902 8.21987 144.973 8.22207C145.053 8.22611 146.743 8.40646 145.252 8.14956ZM116.001 7.1662C116.394 7.14613 116.869 7.18706 117.28 7.19337C117.111 7.23386 116.167 7.2276 116.001 7.1662ZM58.9557 6.94639C58.8599 6.91761 56.2515 6.90028 57.7333 6.98887C57.8197 6.99388 59.2465 7.03356 58.9557 6.94639ZM169.299 8.27506C169.221 8.2757 169.131 8.27396 169.026 8.26885C169.13 8.26972 169.22 8.27287 169.299 8.27506ZM162.246 8.36988C162.389 8.31664 161.668 8.31015 161.455 8.33952C161.39 8.40355 162.227 8.37748 162.246 8.36988ZM117.312 7.12175C117.55 7.09685 117.979 7.13734 118.272 7.14016C118.222 7.18714 117.414 7.17261 117.312 7.12175ZM100.662 6.87023C100.966 6.89028 101.316 6.89328 101.528 6.87711C101.644 6.86821 101.719 6.85351 101.723 6.83264C101.732 6.8419 101.755 6.85181 101.793 6.86186C101.831 6.87179 102.336 6.84745 102.555 6.86899C103.091 6.92123 102.346 6.93679 101.527 6.92821C100.339 6.91583 98.9933 6.85195 101.185 6.76463C101.011 6.7998 100.837 6.83501 100.662 6.87023ZM78.792 6.82383C78.6193 6.77759 78.2459 6.79852 78.0547 6.8268C77.9493 6.84238 77.8992 6.86019 77.9684 6.87022C77.9855 6.87266 78.0156 6.87489 78.0547 6.87679C78.3256 6.88995 79.0265 6.88693 78.792 6.82383ZM89.1015 6.78235C89.0215 6.76949 88.2891 6.81937 88.2702 6.85715C88.6913 6.8971 89.4661 6.84202 89.1015 6.78235ZM76.7322 6.73984C76.564 6.72902 76.3494 6.84466 76.3692 6.84971C76.5401 6.89193 77.0146 6.80423 76.7322 6.73984ZM168.009 7.9867C167.757 7.95807 166.96 8.05524 166.786 8.13436C166.754 8.12012 166.666 8.1023 166.506 8.08177C166.506 8.08176 166.507 8.08175 166.507 8.08174C166.475 8.07767 166.304 8.07577 166.052 8.07559C164.607 8.07736 160.465 8.11728 164.162 8.19872C164.298 8.20159 164.112 8.13564 164.665 8.14014C164.701 8.14051 164.72 8.19623 164.833 8.19736C164.991 8.19877 165.566 8.20495 166.054 8.19792C166.367 8.19344 166.645 8.1836 166.753 8.1642C166.756 8.17454 166.774 8.18411 166.812 8.19254C167.155 8.26785 168.204 8.0089 168.009 7.9867ZM90.5533 6.77314C90.406 6.75226 89.9395 6.77159 89.8911 6.82094C90.1225 6.8453 90.8952 6.82182 90.5533 6.77314ZM58.8748 6.74375C58.5744 6.70313 57.813 6.77907 58.0431 6.81944C58.1842 6.84427 59.2213 6.79038 58.8748 6.74375ZM85.8804 6.79751C87.6025 6.85613 86.2914 6.79284 86.5552 6.72044C86.3302 6.74612 86.1053 6.77181 85.8804 6.79751ZM175.991 8.01763C175.716 8.00654 176.036 7.8571 176.34 7.92853C176.435 7.95124 176.145 8.02357 175.991 8.01763ZM188.358 7.77743C188.124 7.65236 189.263 7.7184 188.82 7.8086C188.8 7.81162 188.375 7.78207 188.358 7.77743ZM179.721 7.84819C179.536 7.93796 179.415 7.95042 178.891 7.93915C179.666 7.90004 178.945 7.83739 179.721 7.84819ZM101.718 6.82333C101.721 6.82683 101.723 6.82943 101.723 6.83264C101.719 6.82944 101.718 6.82643 101.718 6.82333ZM75.1125 6.7623C74.8969 6.68921 74.2925 6.69459 74.4726 6.76816C74.4899 6.77498 75.0242 6.81631 75.1125 6.7623ZM166.786 8.13436C166.815 8.14698 166.801 8.15569 166.753 8.1642C166.751 8.15447 166.763 8.14505 166.786 8.13436ZM78.3576 6.70273C78.336 6.75727 79.2559 6.77847 79.2928 6.77207C79.8207 6.67749 78.7374 6.69945 78.3576 6.70273ZM52.7895 6.66475C52.742 6.67039 53.048 6.81154 53.2358 6.75659C53.3812 6.71396 52.9673 6.64332 52.7895 6.66475ZM181.5 7.78093C181.79 7.77597 182.199 7.76906 182.275 7.83468C182.081 7.82758 181.494 7.83005 181.5 7.78093ZM187.911 7.68938C187.569 7.77088 186.787 7.77841 186.287 7.77134C186.276 7.66765 187.59 7.71606 187.911 7.68938ZM168.801 8.01117C168.777 8.00745 168.045 7.98961 168.146 8.05706C168.294 8.15611 169.009 8.04511 168.801 8.01117ZM54.2093 6.74092C54.5364 6.69348 53.7839 6.54631 53.4388 6.65915C53.2615 6.71697 54.1542 6.74891 54.2093 6.74092ZM73.2254 6.6666C72.9203 6.69496 73.3662 6.73901 73.7058 6.73668C73.8461 6.73571 73.9683 6.72683 74.0119 6.70566C73.9352 6.70342 73.8232 6.69496 73.7058 6.68624C73.5194 6.67239 73.3194 6.65789 73.2254 6.6666ZM87.8907 6.59381C86.5331 6.38454 87.2725 6.76581 87.5133 6.73237C87.5472 6.7276 87.9239 6.59874 87.8907 6.59381ZM10.3919 6.84733C10.2119 6.89017 10.8996 6.94251 10.9835 6.86868C11.0354 6.82119 10.5065 6.81882 10.3919 6.84733ZM108.315 6.819C108.258 6.81905 108.201 6.81912 108.145 6.81912C108.187 6.81616 108.242 6.81564 108.315 6.819ZM69.3127 6.3868C69.3277 6.39144 69.3425 6.39594 69.357 6.40032C70.2657 6.67463 70.1697 6.45443 70.2515 6.45565C70.4311 6.45883 70.8483 6.53857 71.1867 6.52548C70.7991 6.55868 70.4116 6.59189 70.0241 6.62509C70.3302 6.64638 72.9896 6.75495 73.0454 6.70713C73.1252 6.63902 72.2884 6.66039 72.264 6.65439C72.2289 6.64584 72.0982 6.4565 72.0205 6.4493C71.8973 6.4382 69.8227 6.43415 69.357 6.3916C69.34 6.39005 69.3252 6.38845 69.3127 6.3868ZM85.0511 6.62606C85.2694 6.64858 85.3315 6.7236 85.4329 6.70567C85.4675 6.69954 85.4731 6.62799 85.5911 6.60949C85.4111 6.61501 85.2311 6.62053 85.0511 6.62606ZM67.6005 6.65195C67.3298 6.56452 68.5434 6.59772 68.5823 6.60751C68.7899 6.66678 67.8217 6.72337 67.6005 6.65195ZM77.8984 6.63925C77.8541 6.63415 76.9222 6.60685 76.9297 6.65537C77.1762 6.69235 78.4223 6.70313 77.8984 6.63925ZM85.7368 6.60461C86.0642 6.61298 86.683 6.68513 86.612 6.57738C86.6115 6.57738 86.611 6.57738 86.6106 6.57738C86.3193 6.58644 86.0281 6.59552 85.7368 6.60461ZM55.3287 6.51405C54.7215 6.34216 55.0091 6.55917 55.5468 6.61472C55.7097 6.53773 55.4283 6.54202 55.3287 6.51405ZM53.3851 6.38467C53.2161 6.35374 51.4754 6.38515 51.7408 6.47627C51.8352 6.50882 52.8363 6.42858 52.8824 6.43488C52.9523 6.44426 52.6328 6.54433 53.1668 6.52506C53.1356 6.49099 53.4429 6.39505 53.3851 6.38467ZM54.8261 6.40394C54.2226 6.27306 54.0868 6.5136 54.5408 6.5146C54.7181 6.51515 54.9122 6.42282 54.8261 6.40394ZM57.2902 6.42489C57.1096 6.4059 56.6793 6.37966 56.3104 6.41748C56.2359 6.42511 56.1638 6.43536 56.0968 6.44881C56.168 6.44972 56.2392 6.45064 56.3104 6.45155C56.7723 6.45748 57.2342 6.4634 57.6962 6.46932C57.7576 6.42398 57.48 6.44495 57.2887 6.42489C57.2892 6.42489 57.2897 6.42489 57.2902 6.42489ZM191.514 7.05339C191.037 6.98586 192.136 6.95805 192.182 6.97519C192.32 7.0308 191.727 7.0834 191.514 7.05339ZM6.54568 5.10544C6.41166 5.10033 6.31092 5.02585 6.03478 5.12308C6.33176 5.1365 6.63131 5.15336 6.92644 5.17441C7.12613 4.99033 6.69196 5.11073 6.54568 5.10544ZM5.34602 4.76221C5.38648 4.75098 5.11625 4.56531 5.67718 4.61517C5.88075 4.63532 5.41378 4.77526 4.88746 4.9135C4.43797 5.0301 3.94315 5.15001 3.77226 5.14592C4.02031 5.04734 4.49302 4.94733 4.87775 4.86868C5.06521 4.82987 5.23373 4.79465 5.34602 4.76221ZM1.66856 4.70152C1.63743 4.68904 2.38019 4.41716 2.4705 4.40754C2.94538 4.33369 1.8198 4.74521 1.66856 4.70152ZM4.07911 4.05329C3.7447 4.09122 4.36644 3.91177 4.6605 3.86587C4.68903 3.86119 4.71451 3.85762 4.73577 3.85542C4.74313 3.86406 4.71508 3.87852 4.667 3.89587C4.50639 3.95293 4.12296 4.04739 4.07911 4.05329ZM186.645 3.71273C186.262 3.55867 185.924 3.90328 186.511 3.82798C186.539 3.82444 186.662 3.7203 186.645 3.71273ZM2.33021 4.23906C2.69798 4.17339 1.92063 4.44125 1.68129 4.50001C1.644 4.46447 2.27442 4.24645 2.33021 4.23906ZM186.372 3.33876C185.864 3.23071 186.047 3.61085 186.11 3.62548C186.372 3.68305 187.265 3.52363 187.448 3.48479C186.109 3.55566 186.612 3.38996 186.372 3.33876ZM184.036 3.59855C183.567 3.64611 184.77 3.70667 184.998 3.59738C184.764 3.60551 184.17 3.58476 184.036 3.59855ZM181.181 3.52199C180.928 3.51266 180.176 3.49349 180.051 3.55599C180.327 3.53996 181.076 3.58566 181.181 3.52199ZM180.606 3.352C180.209 3.27746 180.119 3.51722 180.573 3.43806C180.591 3.435 180.62 3.35629 180.606 3.352ZM178.384 3.30775C178.123 3.21813 177.832 3.45444 178.252 3.45244C178.377 3.45144 178.412 3.31807 178.384 3.30775ZM185.732 2.9351C185.36 2.89902 184.883 3.07028 185.677 3.07837C185.399 3.10703 185.12 3.13586 184.842 3.16484C185.882 3.24369 185.803 3.01619 186.102 3.022C186.519 3.03064 186.488 3.22004 186.405 3.28027C186.746 3.16031 188.199 3.14392 189.039 3.11685C188.3 3.07289 187.101 2.99968 186.373 2.97739C186.165 2.97082 185.963 3.02501 185.786 3.02137C185.502 3.01529 185.753 2.93758 185.734 2.93508C185.733 2.93509 185.733 2.9351 185.732 2.9351ZM175.467 3.36258C174.705 3.27083 175.19 3.49253 175.619 3.44252C175.638 3.43897 175.486 3.36481 175.467 3.36258ZM1.07895 3.91393C2.16368 3.65946 1.42522 3.97983 3.5816 3.19382C2.68735 3.56604 3.55509 3.30158 3.38764 3.40246C3.25263 3.48084 2.70353 3.59415 3.04064 3.5937C2.60014 3.58971 0.820862 4.21197 0.741718 4.24726C0.742458 4.24698 0.743197 4.2467 0.743937 4.24642C0.693412 4.25635 0.732923 4.00606 1.07895 3.91393ZM181.167 2.91666C180.908 2.64023 180.816 3.08781 180.312 2.86406C179.653 3.21395 182.15 2.83111 182.458 3.1126C179.739 3.12475 184.259 3.3659 182.354 2.96974C183.92 3.09989 182.866 2.90859 183.106 2.85025C183.18 2.83249 183.305 2.82386 183.445 2.81819C183.794 2.804 184.236 2.80843 184.203 2.73421C184.203 2.73421 184.202 2.73422 184.202 2.73423C183.949 2.74126 183.697 2.74841 183.444 2.75567C183.155 2.76397 182.867 2.77242 182.578 2.781C183.111 2.99817 182.005 2.94826 181.627 2.77097C181.474 2.8195 181.32 2.86806 181.167 2.91666ZM184.232 3.07954C184.2 3.07692 183.775 3.09288 183.45 3.11581C183.225 3.13159 183.048 3.1506 183.079 3.1686C183.121 3.1756 183.268 3.17648 183.45 3.17305C183.956 3.16342 184.728 3.12112 184.232 3.07954ZM189.416 2.97628C188.992 2.97813 188.338 2.93907 188.108 3.02621C188.531 3.02312 189.186 3.06272 189.416 2.97628ZM167.686 3.32444C167.15 3.40368 168.803 3.39542 168.323 3.32107C168.3 3.31763 167.712 3.32077 167.686 3.32444ZM179.944 2.9812C179.395 2.90554 179.659 3.17393 180.062 3.09524C180.086 3.09061 179.969 2.98465 179.944 2.9812ZM1.9212 3.59485C1.93665 3.50607 3.49043 3.11433 3.76215 3.06322C3.62059 3.14366 1.89858 3.66584 1.9212 3.59485ZM190.159 2.7219C189.315 2.48453 188.174 2.77177 188.049 2.76692C187.924 2.76179 188.118 2.65489 188.09 2.65231C188.025 2.64652 186.698 2.66819 186.634 2.67662C186.588 2.68283 186.83 2.82811 186.557 2.87768C187.089 2.78615 189.516 2.81967 189.642 2.80407C189.74 2.79054 189.003 2.63896 190.158 2.72191C190.158 2.7219 190.159 2.7219 190.159 2.7219ZM187.735 2.73744C188.067 2.79639 187.138 2.81262 186.913 2.79232C186.412 2.74624 187.692 2.73011 187.735 2.73744ZM185.499 2.70457C185.393 2.6918 184.435 2.69199 184.355 2.76233C184.809 2.84525 185.74 2.7339 185.499 2.70457ZM174.862 2.90213C174.818 2.90456 174.762 2.90537 174.697 2.90537C174.395 2.9054 173.925 2.88756 173.893 2.93796C174.071 2.92806 174.471 2.94528 174.698 2.93345C174.788 2.92876 174.851 2.91949 174.862 2.90213ZM7.09401 1.92801C6.6522 1.93836 7.65791 1.77704 7.95217 1.77024C7.97325 1.80619 7.13166 1.92478 7.09401 1.92801ZM179.84 2.40634C179.692 2.39001 176.695 2.49432 176.276 2.53154C176.688 2.56836 179.658 2.51381 179.794 2.48974C179.833 2.48234 179.859 2.40887 179.84 2.40634ZM186.335 2.27853C186.609 2.1866 186.791 2.29124 186.825 2.29221C187.166 2.30206 187.874 2.27557 187.719 2.36255C187.117 2.33302 185.788 2.46113 186.335 2.27853ZM174.641 2.50468C174.136 2.53135 174.364 2.55804 174.691 2.56739C175.021 2.57687 175.451 2.56859 175.321 2.52452C175.307 2.51981 174.86 2.50326 174.689 2.50371C174.669 2.50377 174.652 2.50407 174.641 2.50468ZM180.175 2.37428C180.359 2.31114 182.448 2.30629 183.437 2.30486C183.643 2.30441 183.801 2.30393 183.885 2.30273C183.73 2.35249 183.586 2.37216 183.438 2.37765C183.174 2.38748 182.897 2.352 182.525 2.36236C182.368 2.36689 182.411 2.42127 182.394 2.42163C182.123 2.42864 182.325 2.3617 182.158 2.3635C182.052 2.3642 179.86 2.48079 180.175 2.37428ZM186.491 2.21524C186.659 2.16162 188.538 2.12257 188.614 2.13639C189.18 2.23184 186.637 2.22978 186.491 2.21524ZM179.897 2.26169C180.217 2.10167 181.71 2.17832 180.691 2.27311C180.594 2.28182 180.18 2.22261 179.897 2.26169ZM174.746 2.35601C174.74 2.35558 174.719 2.35507 174.686 2.35459C174.452 2.35115 173.634 2.34937 173.618 2.39265C173.714 2.40267 174.362 2.40069 174.687 2.38831C174.878 2.38103 174.958 2.37015 174.746 2.35601ZM175.292 2.17932C175.267 2.18101 175.517 2.27021 175.02 2.26838C174.99 2.26818 174.941 2.21407 174.683 2.20289C174.583 2.19853 174.45 2.2007 174.275 2.21517C174.149 2.22575 173.954 2.2999 173.968 2.30397C174.143 2.345 174.411 2.34931 174.686 2.33517C175.436 2.29652 176.231 2.12021 175.292 2.17932ZM186.525 2.12893C186.423 2.08528 186.666 1.94968 186.887 2.01468C186.982 2.04277 186.806 2.12428 186.525 2.12893ZM171.386 2.38077C172 2.28816 170.068 2.31078 169.97 2.33299C170.033 2.38213 171.324 2.38997 171.386 2.38077ZM8.03713 1.18111C8.03661 1.18117 8.0361 1.18123 8.03558 1.18129C8.07569 1.17797 8.11115 1.17551 8.14242 1.17376C8.54246 1.15229 8.25683 1.2422 8.2812 1.24143C9.46082 1.2165 9.1341 1.10274 9.31587 1.06591C9.70391 0.993201 9.65682 1.18067 10.3072 1.05457C9.2307 1.25179 10.215 1.12633 10.2502 1.19048C10.3936 1.44476 8.79731 1.17981 8.25228 1.30508C8.1777 1.32054 8.74614 1.34561 8.55455 1.39064C8.4548 1.41385 8.3208 1.42834 8.17225 1.43654C7.39823 1.48026 6.24575 1.35009 8.03713 1.18111ZM187.057 2.00122C187.297 1.91912 189.132 1.98085 188.646 2.04972C188.568 2.05982 186.703 2.11907 187.057 2.00122ZM101.918 0.90524C102.202 0.862962 101.878 0.812 101.563 0.795264C101.389 0.786071 101.218 0.787196 101.151 0.805632C101.093 0.821743 101.329 0.867388 101.562 0.892759C101.704 0.908194 101.845 0.916117 101.918 0.90524ZM94.783 0.585464C94.2613 0.598123 93.7109 0.881266 94.3599 0.838463C94.4289 0.833776 94.8427 0.625012 94.783 0.585464ZM129.096 1.27545C128.553 1.15428 128.579 1.34408 128.98 1.35579C129.121 1.36 129.113 1.27929 129.096 1.27545ZM108.256 0.836343C108.202 0.829119 107.571 0.834604 107.594 0.878246C107.827 0.906551 108.609 0.885351 108.256 0.836343ZM129.27 1.25492C128.945 1.27714 129.497 1.43368 129.898 1.31533C129.697 1.31867 129.304 1.25264 129.27 1.25492ZM178.764 1.86601C178.495 1.94864 177.729 1.94017 177.29 1.96226C177.24 1.86278 178.45 1.89013 178.764 1.86601ZM96.9974 0.705747C96.5032 0.774903 97.5612 0.836247 97.4645 0.742459C97.451 0.737319 97.0168 0.70278 96.9974 0.705747ZM146.608 2.01399C146.252 2.06358 147.376 2.17668 147.069 2.06246C147.054 2.05783 146.628 2.01133 146.608 2.01399ZM151.525 2.15444C151.256 2.13116 150.108 2.11826 150.554 2.18406C150.623 2.19454 151.504 2.20931 151.525 2.15444ZM9.34176 0.991016C9.1774 0.900898 10.0806 0.848399 10.2094 0.85909C10.2597 0.861953 9.55625 1.10491 9.34176 0.991016ZM125.548 1.14043C125.265 1.14448 124.532 1.09812 124.401 1.14853C124.748 1.14723 125.637 1.25091 125.548 1.14043ZM99.2498 0.713766C98.82 0.599786 98.0849 0.608033 98.2661 0.755142C99.078 0.748571 98.1662 0.623031 99.2498 0.713766ZM131.096 1.20359C130.869 1.1861 130.69 1.31987 130.716 1.32748C130.959 1.39997 131.319 1.26718 131.096 1.20359ZM114.085 0.858594C114.073 0.798224 113.346 0.813918 113.443 0.854165C113.474 0.867588 114.095 0.907332 114.085 0.858594ZM169.291 2.01999C168.959 1.97132 169.969 1.89892 170.269 1.9571C170.416 2.04662 169.333 2.02562 169.291 2.01999ZM137.388 1.52135C137.427 1.43372 136.286 1.4277 136.731 1.52372C136.842 1.54765 137.375 1.55046 137.388 1.52135ZM148.116 1.87263C147.808 1.90851 148.154 1.95593 148.615 1.98751C149.277 2.03326 150.173 2.04381 149.687 1.95644C149.65 1.94985 149.063 1.9167 148.617 1.8934C148.354 1.87979 148.14 1.86988 148.116 1.87263ZM153.263 2.02372C153.133 2.01076 153.201 1.71204 153.736 1.83182C153.806 1.84737 153.476 1.92398 153.534 1.94254C153.568 1.95363 154.734 2.00336 154.788 1.99613C154.846 1.98847 154.778 1.8921 154.837 1.88161C154.903 1.87003 155.622 1.95731 155.998 1.95874C156.708 1.96147 156.785 1.88106 156.843 1.88091C156.946 1.88058 157.093 1.90161 157.27 1.91785C157.383 1.92818 157.508 1.93658 157.641 1.93631C159.374 1.93425 162.028 1.84344 163.408 1.99471C162.181 1.94167 161.015 2.02514 159.796 2.05498C160.152 1.88668 158.006 2.19277 159.261 1.99407C159.048 2.01055 158.233 2.02906 157.27 2.04C155.619 2.06053 153.532 2.05015 153.264 2.02374C153.264 2.02373 153.263 2.02373 153.263 2.02372ZM92.7244 0.497631C92.91 0.438669 92.4368 0.420704 91.9784 0.439119C91.6453 0.452493 91.3201 0.485067 91.2614 0.534817C91.3611 0.542474 91.6699 0.537616 91.9783 0.529068C92.3409 0.519011 92.7029 0.503863 92.7244 0.497631ZM100.314 0.271445C100.467 0.254585 100.613 0.0551932 101.414 0.161063C101.415 0.161067 101.415 0.161072 101.416 0.161076C101.65 0.192023 101.383 0.239232 101.426 0.256839C101.43 0.258882 101.493 0.268737 101.566 0.282089C101.749 0.315639 101.999 0.371248 101.565 0.380187C101.565 0.38019 101.565 0.380192 101.565 0.380194C100.639 0.399568 101.478 0.230908 100.985 0.226085C100.924 0.22552 99.9896 0.329052 100.044 0.353136C100.049 0.355925 100.331 0.334402 100.377 0.344518C100.552 0.382525 100.466 0.444542 100.491 0.447639C100.539 0.452426 101.087 0.419069 101.565 0.411821C101.887 0.406919 102.178 0.413821 102.264 0.45175C102.29 0.462972 101.976 0.477385 101.564 0.490526C100.861 0.512896 99.874 0.532044 99.8145 0.521976C99.7548 0.511881 99.7808 0.338661 99.719 0.321326C99.6871 0.312616 98.7118 0.373326 98.5853 0.356963C98.5485 0.352206 98.5205 0.347126 98.4999 0.34295C98.6472 0.397123 97.7643 0.389889 97.7916 0.329529C97.807 0.305776 98.4147 0.321828 98.4364 0.326097C98.446 0.327894 98.4542 0.330353 98.462 0.332057C98.3363 0.265919 100.394 0.278022 99.9505 0.178852C100.547 0.128462 99.8651 0.321107 100.314 0.271445ZM103.183 0.181332C103.121 0.199142 103.059 0.216956 102.998 0.234774C104.043 0.197109 105.248 0.294131 106.452 0.304624C106.758 0.307438 106.407 0.192653 106.808 0.226895C107.128 0.254353 107.482 0.36134 107.308 0.382651C107.265 0.387943 106.613 0.314237 106.286 0.318233C105.32 0.330085 105.563 0.428001 105.507 0.430043C105.444 0.432202 104.838 0.35992 104.506 0.360392C103.672 0.361806 103.291 0.417674 102.152 0.333868C102.81 0.274975 102.451 0.135747 103.183 0.181332ZM142.162 1.49934C142.205 1.44128 142.873 1.52503 143.116 1.52629C143.075 1.58514 142.407 1.5022 142.162 1.49934ZM40.3771 0.234242C40.1673 0.332556 41.7384 0.360118 41.3245 0.277115C41.2329 0.258679 40.5746 0.235303 40.3771 0.234242ZM47.4319 0.309942C47.642 0.283114 46.7966 0.210105 46.798 0.286533C46.7992 0.311048 47.4049 0.313436 47.4319 0.309942ZM116.7 0.447499C116.74 0.445119 117.32 0.478507 117.338 0.483947C117.72 0.596114 115.812 0.498546 116.7 0.447499ZM55.9988 0.200511C55.6544 0.230931 55.9604 0.253364 56.3104 0.259861C56.7039 0.267159 57.1529 0.254448 56.7967 0.210786C56.7773 0.208466 56.5261 0.204359 56.3104 0.201907C56.1525 0.200111 56.0137 0.199183 55.9988 0.200511ZM59.0614 0.182464C58.8859 0.185934 58.1066 0.153795 58.0963 0.183929C58.0808 0.232545 58.9728 0.265764 59.0614 0.182464ZM131.264 0.83689C131.183 0.72216 132.213 0.847912 132.573 0.849288C132.654 0.963939 131.623 0.836806 131.264 0.83689ZM124.746 0.529463C129.104 0.579907 128.135 0.784433 124.485 0.575997C124.482 0.504501 124.471 0.526857 124.746 0.529463ZM130.322 0.73132C130.161 0.796462 129.668 0.756696 129.334 0.738817C129.396 0.691395 130.081 0.734787 130.322 0.73132ZM38.5062 0.0782595C38.718 0.00844717 39.4947 0.061445 39.7273 0.105762C39.7935 0.118367 39.8157 0.13026 39.7682 0.138405C39.7638 0.139106 39.7495 0.139598 39.7273 0.139877C39.4975 0.142714 38.4151 0.123237 38.5062 0.0782595ZM117.066 0.359395C116.967 0.248974 118.273 0.319601 118.372 0.346055C118.774 0.451032 117.173 0.337151 117.066 0.359395ZM137.457 1.02074C137.692 0.94771 138.346 1.02503 138.768 1.04865C138.572 1.11069 137.815 1.04024 137.457 1.02074ZM134.408 0.808398C134.435 0.806252 135.024 0.840811 135.05 0.846019C135.529 0.950716 133.863 0.853499 134.408 0.808398ZM7.16385 0.469266C7.18525 0.46294 7.66696 0.407311 7.68371 0.40919C8.12259 0.435084 6.67805 0.602635 7.16385 0.469266Z" fill="#5067E9"/>
</svg>
