<svg width="48" height="48" viewBox="0 0 48 48" fill="none" xmlns="http://www.w3.org/2000/svg">
<path d="M24 27.8327L10.5856 41.2471C10.0836 41.749 9.44487 42 8.6692 42C7.89354 42 7.25475 41.749 6.75285 41.2471C6.25095 40.7452 6 40.1065 6 39.3308C6 38.5551 6.25095 37.9163 6.75285 37.4144L20.1673 24L6.75285 10.5856C6.25095 10.0836 6 9.44487 6 8.6692C6 7.89354 6.25095 7.25475 6.75285 6.75285C7.25475 6.25095 7.89354 6 8.6692 6C9.44487 6 10.0836 6.25095 10.5856 6.75285L24 20.1673L37.4144 6.75285C37.9163 6.25095 38.5551 6 39.3308 6C40.1065 6 40.7452 6.25095 41.2471 6.75285C41.749 7.25475 42 7.89354 42 8.6692C42 9.44487 41.749 10.0836 41.2471 10.5856L27.8327 24L41.2471 37.4144C41.749 37.9163 42 38.5551 42 39.3308C42 40.1065 41.749 40.7452 41.2471 41.2471C40.7452 41.749 40.1065 42 39.3308 42C38.5551 42 37.9163 41.749 37.4144 41.2471L24 27.8327Z" fill="black"/>
</svg>
