<svg width="19" height="18" viewBox="0 0 19 18" fill="none" xmlns="http://www.w3.org/2000/svg">
<g clip-path="url(#clip0_100_1092)">
<path d="M13.9111 4.20014C13.1268 2.11854 11.4406 0.800156 8.89388 0.800156C5.65308 0.800156 3.3856 3.20657 3.19073 6.34612C1.62798 6.84585 0.5 8.43982 0.5 10.2453C0.5 12.4554 2.23739 14.3224 4.29338 14.3224H4.79339C5.10386 14.3224 5.35583 14.0707 5.35583 13.76C5.35583 13.4492 5.10386 13.1975 4.79339 13.1975H4.29338C2.84678 13.1975 1.60715 11.8457 1.60715 10.2453C1.60715 8.831 2.59874 7.55509 3.84258 7.34137L4.353 7.25334L4.30744 6.73758L4.30322 6.73112C4.3035 3.99146 6.10668 1.92504 8.89388 1.92504C11.1279 1.92504 12.383 3.02574 12.9637 4.90318L13.0838 5.29042L13.4893 5.29915C15.5785 5.34302 17.4104 7.03823 17.4104 9.14458C17.4104 11.0614 16.1401 13.1975 14.2166 13.1975H14.0565C13.7461 13.1975 13.4941 13.4492 13.4941 13.76C13.4941 14.0707 13.7461 14.3224 14.0565 14.3224V14.3207C16.8688 14.2465 18.49 11.5597 18.49 9.14458C18.4894 6.54806 16.4548 4.47379 13.9112 4.20014H13.9111ZM11.8602 13.2602C11.703 13.096 11.4488 13.096 11.2919 13.2602L10.0548 14.625V8.96285C10.0548 8.65239 9.80281 8.40041 9.49234 8.40041C9.18187 8.40041 8.92989 8.65239 8.92989 8.96285V14.63L7.73273 13.2954C7.57553 13.1311 7.32074 13.096 7.16382 13.2602L7.02207 13.3378C6.86487 13.5026 6.86487 13.7681 7.02207 13.9323L9.05221 16.1776C9.05502 16.1804 9.0556 16.1841 9.05811 16.1869L9.20041 16.3356C9.27943 16.4181 9.38264 16.4588 9.48669 16.4583C9.5899 16.4588 9.69367 16.4181 9.77187 16.3356L9.91415 16.1869C9.91696 16.1841 9.91837 16.181 9.92062 16.1776L12.0022 13.8972C12.1594 13.733 12.1594 13.5378 12.0022 13.373L11.8602 13.2602Z" fill="black"/>
</g>
<defs>
<clipPath id="clip0_100_1092">
<rect width="18" height="18" fill="white" transform="translate(0.5)"/>
</clipPath>
</defs>
</svg>
