<?xml version="1.0" encoding="UTF-8"?>
<svg id="Layer_1" xmlns="http://www.w3.org/2000/svg" version="1.1" viewBox="0 0 750 270">
  <!-- Generator: Adobe Illustrator 29.6.0, SVG Export Plug-In . SVG Version: 2.1.1 Build 207)  -->
  <defs>
    <style>
      .st0 {
        fill: none;
      }
    </style>
  </defs>
  <g>
    <path d="M81.52,112.15c-1.4,1.23-3.39,2.34-5.97,3.33-2.58.99-5.68,1.49-9.3,1.49-1.92,0-3.76-.21-5.53-.61-1.78-.41-3.34-1.03-4.69-1.87-1.35-.84-2.43-1.89-3.23-3.18-.8-1.28-1.2-2.79-1.2-4.54v-33.01h-11.94c-1.3-1.88-2.24-3.75-2.82-5.61-.58-1.87-.87-3.84-.87-5.92,0-1.57.14-3,.41-4.28.27-1.28.63-2.43,1.08-3.43.44-1.01.95-1.89,1.51-2.66s1.14-1.41,1.72-1.92h53c.95,1.47,1.77,3.3,2.44,5.48s1,4.39,1,6.62c0,2.09-.25,3.87-.74,5.35-.5,1.49-1.18,2.7-2.05,3.64-.87.94-1.91,1.63-3.1,2.08-1.2.44-2.51.67-3.94.67h-15.02c-.1.27-.16.53-.16.77,0,.31.07.56.21.74.14.19.42.35.85.48.43.14,1.03.23,1.79.28s1.79.08,3.05.08h3.54v36.03h-.01Z"/>
    <path d="M126.37,57.97c-1.67.1-3.25.4-4.71.9-1.47.5-2.75,1.06-3.85,1.69s-1.96,1.28-2.59,1.95c-.63.67-.95,1.25-.95,1.77,0,.41.14.75.43,1.03.29.27.61.44.95.51.61-.72,1.4-1.42,2.36-2.13.95-.7,2.09-1.33,3.38-1.89s2.78-1.02,4.46-1.36c1.67-.34,3.55-.51,5.64-.51,1.37,0,2.84.12,4.44.36,1.59.24,3.18.67,4.79,1.28s3.14,1.42,4.61,2.44c1.47,1.01,2.78,2.28,3.92,3.82s2.06,3.37,2.74,5.48c.68,2.12,1.03,4.58,1.03,7.38,0,1.54-.03,3.18-.08,4.92s-.08,3.43-.08,5.08c0,2.36.26,4.31.77,5.85s1.49,2.75,2.92,3.64c.04.27.05.61.05,1v.9c0,2.43-.38,4.57-1.13,6.43-.75,1.87-1.78,3.43-3.08,4.69s-2.81,2.21-4.54,2.84c-1.72.63-3.56.95-5.51.95-2.05,0-4.01-.28-5.87-.85-1.87-.56-3.5-1.49-4.92-2.77s-2.55-2.96-3.38-5.02c-.84-2.07-1.25-4.61-1.25-7.61,0-1.61.06-3.13.18-4.56s.26-2.78.41-4.02.3-2.4.43-3.46.21-2.03.21-2.92c0-1.64-.18-2.76-.54-3.35-.36-.6-.93-.9-1.72-.9-.51,0-.99.14-1.44.41l.67,8.35c-.17,1.03-.31,2.06-.43,3.1s-.21,2.02-.28,2.95c-.07.93-.12,1.76-.16,2.51s-.05,1.37-.05,1.84c0,2.66.26,4.87.8,6.62.53,1.74,1.14,3.25,1.82,4.51-1.5,1.57-3.46,2.83-5.87,3.77s-5.15,1.41-8.22,1.41c-1.54,0-3.1-.22-4.69-.67s-3.03-1.12-4.31-2.02-2.34-2.03-3.15-3.38-1.23-2.95-1.23-4.79v-59.82c1.57-.93,3.51-1.7,5.82-2.34,2.31-.63,4.67-.95,7.1-.95,1.77,0,3.51.19,5.21.56s3.2.97,4.51,1.77c1.32.8,2.37,1.84,3.18,3.13s1.2,2.83,1.2,4.64v4.87h0Z"/>
    <path d="M210.18,90.67c0,2.36.26,4.31.77,5.85s1.49,2.75,2.92,3.64c.04.27.05.61.05,1v.9c0,2.6-.41,4.84-1.23,6.71-.82,1.88-1.89,3.43-3.2,4.64-1.32,1.21-2.81,2.11-4.49,2.69-1.67.58-3.38.87-5.13.87-1.23,0-2.44-.14-3.61-.43-1.18-.29-2.29-.73-3.33-1.31s-1.98-1.32-2.82-2.23-1.5-1.97-1.97-3.2c-.58,0-1.02.16-1.31.46s-.43.72-.43,1.23c0,.48.16.99.46,1.54.31.55.75,1.11,1.33,1.69-1.1.75-2.56,1.32-4.41,1.69s-3.72.56-5.64.56c-3.11,0-5.94-.43-8.48-1.28-2.55-.85-4.74-2.11-6.56-3.8-1.83-1.67-3.25-3.72-4.25-6.12-1.01-2.41-1.51-5.18-1.51-8.33s.54-6.06,1.62-8.43c1.08-2.37,2.54-4.34,4.38-5.9,1.84-1.55,3.99-2.71,6.43-3.46s5.03-1.13,7.77-1.13c1.23,0,2.32.04,3.28.13.95.09,1.77.18,2.46.28.78.14,1.45.27,2,.41.1-.34.16-.63.16-.87,0-.44-.23-.82-.69-1.13s-1.07-.54-1.82-.69c-.75-.16-1.62-.26-2.61-.33s-2-.1-3.03-.1c-2.32,0-4.65.26-6.97.77s-4.41,1.3-6.25,2.36c-.75-1.27-1.36-2.87-1.82-4.82s-.69-3.93-.69-5.95c0-.95.06-1.92.18-2.9s.37-1.84.74-2.59c.89-.41,2.02-.86,3.41-1.36,1.38-.5,2.99-.95,4.82-1.38s3.85-.8,6.05-1.1,4.57-.46,7.1-.46c4.41,0,8.26.5,11.56,1.49s6.04,2.42,8.22,4.28c2.19,1.87,3.82,4.15,4.92,6.87s1.64,5.78,1.64,9.2v10.05h0ZM183.57,93.19c-.78,0-1.34.2-1.67.59-.33.39-.48.85-.48,1.36,0,.68.25,1.16.74,1.44.5.27,1.08.41,1.77.41,1.1,0,1.93-.27,2.51-.82.58-.55.87-1.54.87-2.97h-3.74Z"/>
    <path d="M225.86,60.02c1.44,0,2.64.26,3.61.77s1.84,1.16,2.59,1.95c-1.5,1.4-2.26,2.56-2.26,3.48,0,.41.14.78.41,1.1.27.33.73.48,1.38.48.68-1.2,1.58-2.34,2.69-3.43,1.11-1.1,2.41-2.05,3.9-2.87s3.14-1.48,4.97-1.97c1.83-.5,3.78-.74,5.87-.74,2.46,0,4.96.33,7.51.98,2.54.65,4.84,1.78,6.89,3.38,2.05,1.61,3.72,3.8,5.02,6.56,1.3,2.77,1.95,6.25,1.95,10.45,0,1.54-.03,3.26-.08,5.18-.05,1.92-.08,3.69-.08,5.33,0,2.36.26,4.31.77,5.85s1.49,2.75,2.92,3.64c.04.27.05.61.05,1v.9c0,2.43-.38,4.57-1.13,6.43-.75,1.87-1.78,3.43-3.08,4.69s-2.81,2.21-4.54,2.84c-1.72.63-3.56.95-5.51.95-2.05,0-4.01-.28-5.87-.85-1.87-.56-3.5-1.49-4.92-2.77s-2.55-2.96-3.38-5.02c-.84-2.07-1.25-4.61-1.25-7.61,0-1.61.06-3.13.18-4.56s.26-2.78.41-4.02.3-2.4.43-3.46c.14-1.06.21-2.03.21-2.92,0-1.64-.18-2.76-.54-3.35-.36-.6-.93-.9-1.72-.9-.51,0-.99.14-1.44.41l.67,8.35c-.17,1.03-.31,2.06-.43,3.1-.12,1.04-.21,2.02-.28,2.95s-.12,1.76-.16,2.51-.05,1.37-.05,1.84c0,2.66.26,4.87.8,6.62.53,1.74,1.14,3.25,1.82,4.51-1.5,1.57-3.46,2.83-5.87,3.77s-5.15,1.41-8.22,1.41c-1.54,0-3.1-.22-4.69-.67s-3.03-1.12-4.31-2.02-2.34-2.03-3.15-3.38-1.23-2.95-1.23-4.79v-24.81c-1.03-1.44-1.79-3.05-2.28-4.87-.5-1.81-.74-3.71-.74-5.69,0-1.64.25-3.45.74-5.43.5-1.98,1.25-3.74,2.28-5.28h9.13Z"/>
    <path d="M303.47,111.74c-1.5,1.57-3.46,2.83-5.87,3.8s-5.15,1.44-8.22,1.44c-1.54,0-3.1-.22-4.69-.67s-3.03-1.12-4.31-2.02-2.34-2.03-3.15-3.38-1.23-2.95-1.23-4.79v-59.82c1.57-.93,3.51-1.7,5.82-2.34,2.31-.63,4.67-.95,7.1-.95,1.77,0,3.51.19,5.21.56s3.2.97,4.51,1.77c1.32.8,2.37,1.84,3.18,3.13s1.2,2.83,1.2,4.64v5.43c0,2.56-.23,4.96-.69,7.18-.46,2.22-1.03,4.27-1.72,6.15-.24.38-.6.82-1.08,1.33-.48.51-.95,1.04-1.41,1.59-.46.55-.86,1.08-1.2,1.59s-.51.94-.51,1.28c0,.61.41,1.13,1.23,1.54,1.4-1.3,2.62-2.63,3.67-3.99,1.04-1.37,1.97-2.84,2.79-4.44s1.55-3.31,2.18-5.18c.63-1.87,1.24-3.94,1.82-6.23.44-.07,1-.16,1.67-.28.67-.12,1.35-.24,2.05-.36.7-.12,1.37-.22,2-.31.63-.09,1.15-.13,1.57-.13,2.56,0,4.88.3,6.94.9s3.82,1.49,5.26,2.66,2.54,2.63,3.33,4.36c.78,1.72,1.18,3.72,1.18,5.97,0,2.12-.36,4.05-1.08,5.79s-1.7,3.3-2.95,4.69c-1.25,1.38-2.69,2.58-4.33,3.59s-3.38,1.84-5.23,2.49c.93.55,1.83,1.02,2.72,1.41s1.79.74,2.72,1.05,1.9.58,2.95.82c1.04.24,2.21.46,3.51.67.93,1.67,1.62,3.38,2.08,5.13s.69,3.45.69,5.13c0,1.92-.3,3.72-.9,5.43-.6,1.71-1.5,3.2-2.72,4.49-1.21,1.28-2.73,2.29-4.56,3.03s-3.95,1.1-6.38,1.1-4.57-.47-6.54-1.41c-1.97-.94-3.68-2.28-5.15-4.02-1.47-1.74-2.66-3.86-3.59-6.36-.93-2.49-1.54-5.3-1.84-8.4l-2.46,1.08c0,1.16.12,2.38.36,3.64.24,1.27.56,2.51.95,3.72.39,1.21.86,2.39,1.41,3.51.55,1.13,1.13,2.14,1.74,3.03h-.01Z"/>
    <path d="M371.63,60.02c2.43,0,4.44.35,6.02,1.05,1.59.7,2.87,1.62,3.85,2.74s1.69,2.41,2.15,3.85.78,2.91.95,4.41c-.1.78-.22,1.84-.36,3.15s-.26,2.78-.38,4.41-.21,3.34-.28,5.15c-.07,1.81-.1,3.6-.1,5.38v1.2c0,.43.01.81.05,1.15.21.1.4.17.59.21.19.04.37.05.54.05.55,0,.93-.21,1.15-.61.22-.41.33-.95.33-1.64,0-2.87.09-5.72.26-8.53.17-2.82.38-5.48.64-7.97.26-2.49.55-4.75.87-6.76.32-2.02.63-3.65.9-4.92,1.5-1.1,3.2-1.87,5.1-2.34s3.97-.69,6.23-.69,4.42.26,6.2.8c1.77.53,3.25,1.22,4.44,2.08s2.07,1.83,2.66,2.92c.6,1.1.9,2.22.9,3.38,0,.21-.07.88-.21,2.02-.14,1.15-.35,2.66-.64,4.54-.29,1.88-.65,4.07-1.08,6.59-.43,2.51-.94,5.21-1.54,8.08-.6,2.87-1.27,5.89-2,9.04-.73,3.16-1.55,6.34-2.44,9.56-1.5,5.4-3.33,9.8-5.46,13.2-2.14,3.4-4.48,6.07-7.02,8-2.55,1.93-5.22,3.25-8.03,3.97s-5.62,1.08-8.46,1.08-5.42-.37-7.53-1.1c-2.12-.73-3.87-1.72-5.26-2.97-1.38-1.25-2.42-2.69-3.1-4.33-.68-1.64-1.03-3.37-1.03-5.18s.25-3.41.74-5c.5-1.59,1.32-3.24,2.49-4.95.27-.07.64-.12,1.1-.16s.9-.05,1.31-.05c1.03,0,2.05.06,3.08.18s1.84.23,2.46.33l8.05,1.49c.38.07.75.14,1.13.21.38.07.75.1,1.13.1.58,0,1.07-.12,1.46-.36.39-.24.59-.8.59-1.69l-12.1-2.31c-1.27-.51-2.57-1.38-3.92-2.61-1.35-1.23-2.62-2.93-3.82-5.1s-2.28-4.88-3.25-8.12c-.98-3.25-1.72-7.13-2.23-11.64-.93-1.2-1.72-2.67-2.39-4.44-.67-1.76-1-3.73-1-5.92,0-1.88.24-3.76.72-5.64.48-1.88,1.27-3.64,2.36-5.28h13.17,0Z"/>
    <path d="M443.45,117.64c-3.99,0-7.75-.61-11.25-1.84-3.5-1.23-6.54-3.09-9.12-5.59-2.58-2.49-4.62-5.6-6.12-9.33-1.5-3.72-2.26-8.08-2.26-13.07,0-4.51.7-8.59,2.1-12.23,1.4-3.64,3.37-6.74,5.9-9.3,2.53-2.56,5.55-4.53,9.07-5.9s7.41-2.05,11.69-2.05,8.17.73,11.69,2.21c3.52,1.47,6.54,3.53,9.04,6.17,2.51,2.65,4.46,5.81,5.85,9.48,1.38,3.67,2.08,7.7,2.08,12.07s-.65,8.58-1.95,12.2c-1.3,3.62-3.18,6.71-5.64,9.25-2.46,2.55-5.47,4.5-9.02,5.87s-7.57,2.05-12.05,2.05h0ZM442.27,96.47c.24.24.6.36,1.08.36.65,0,1.08-.2,1.31-.59.22-.39.33-1.03.33-1.92v-7.33c0-1.54-.03-2.83-.08-3.9s-.16-1.93-.33-2.61-.38-1.13-.64-1.33-.56-.31-.9-.31c-.31,0-.56.05-.74.16-.19.1-.35.22-.48.36.04.55.09,1.06.16,1.54.07.48.12,1.02.16,1.62s.07,1.3.1,2.1c.04.8.05,1.77.05,2.9v8.97h0Z"/>
    <path d="M506.6,113.99c-.41.34-.9.69-1.46,1.05s-1.24.68-2.02.95c-.78.27-1.71.51-2.77.69s-2.29.28-3.69.28c-1.54,0-3.13-.14-4.76-.41-1.64-.27-3.24-.74-4.79-1.41s-3.03-1.57-4.44-2.69-2.62-2.54-3.67-4.23c-1.04-1.69-1.87-3.69-2.49-6s-.93-5-.93-8.08v-12.87c-.72-1.27-1.33-2.73-1.84-4.38-.51-1.66-.77-3.55-.77-5.66,0-.93.06-1.88.18-2.87s.3-1.97.54-2.95.55-1.92.93-2.84c.38-.93.83-1.77,1.38-2.56h11.28c1.98,0,3.81.23,5.48.69,1.67.46,3.11,1.19,4.31,2.18,1.2.99,2.13,2.25,2.79,3.77.67,1.52,1,3.34,1,5.46v16.61c0,1.92.18,3.22.54,3.92.36.7.81,1.05,1.36,1.05.34,0,.61-.05.8-.16.19-.1.37-.22.54-.36-.17-.58-.3-1.28-.38-2.1-.09-.82-.13-1.88-.13-3.18v-25.32c.65-.38,1.37-.76,2.18-1.15s1.73-.74,2.79-1.05c1.06-.31,2.24-.56,3.56-.77s2.83-.31,4.54-.31c2.97,0,5.53.4,7.69,1.2,2.15.8,3.77,1.8,4.87,3v26.7c0,2.36.26,4.38.77,6.07s1.49,2.98,2.92,3.87c.04.27.05.61.05,1v.9c0,2.6-.35,4.84-1.05,6.71-.7,1.88-1.67,3.43-2.9,4.64-1.23,1.21-2.69,2.11-4.38,2.69s-3.53.87-5.51.87c-2.53,0-4.88-.58-7.05-1.74-2.17-1.16-3.8-2.92-4.89-5.28-1.16,0-1.74.56-1.74,1.69,0,.38.1.77.31,1.18s.5.8.87,1.18h0Z"/>
  </g>
  <g>
    <g>
      <path d="M248.91,145.06c1.59-2.29,3.75-4.08,6.5-5.39,2.75-1.3,5.81-1.95,9.19-1.95,2.46,0,4.7.24,6.71.71s3.72,1.19,5.15,2.14,2.53,2.12,3.3,3.51c.77,1.39,1.16,3,1.16,4.83-.18,2.08-.32,4.3-.42,6.68s-.21,4.73-.29,7.05c-.09,2.33-.15,4.54-.18,6.65-.04,2.11-.05,3.93-.05,5.44,0,.95.1,1.81.29,2.56s.69,1.14,1.5,1.14c.28,0,.63-.05,1.05-.16-.04-.5-.05-1.02-.05-1.59v-1.85c0-2.25.04-4.86.11-7.82.07-2.96.18-5.95.34-8.98.16-3.03.35-5.94.58-8.74.23-2.8.48-5.15.76-7.05,1.51-.92,3.32-1.64,5.42-2.17s4.25-.79,6.47-.79c1.72,0,3.45.14,5.17.42,1.72.28,3.29.75,4.7,1.4s2.57,1.5,3.49,2.56c.92,1.05,1.43,2.36,1.53,3.91-.11,1.9-.3,4.06-.58,6.47-.28,2.41-.61,4.94-.98,7.58s-.76,5.36-1.19,8.16-.83,5.54-1.21,8.22c.32.14.65.21,1.01.21.5,0,.93-.17,1.32-.5s.72-1.19,1.01-2.56c.6-3.17,1.13-6.32,1.59-9.45.46-3.14.85-6.17,1.19-9.09s.61-5.71.82-8.35.37-5.07.47-7.29c1.3-.88,3-1.65,5.1-2.3,2.1-.65,4.87-.98,8.32-.98,2.29,0,4.36.32,6.23.95s3.46,1.54,4.78,2.72c1.32,1.18,2.34,2.61,3.07,4.28.72,1.67,1.08,3.53,1.08,5.57,0,.67-.11,1.73-.32,3.2s-.5,3.19-.85,5.17c-.35,1.99-.78,4.17-1.27,6.52-.5,2.36-1.02,4.79-1.59,7.29-.56,2.5-1.14,4.98-1.74,7.45-.6,2.46-1.2,4.77-1.79,6.92-.6,2.15-1.18,4.08-1.72,5.81-.55,1.72-1.05,3.1-1.5,4.12-.85,1.87-1.88,3.43-3.11,4.7-1.24,1.27-2.67,2.3-4.3,3.09s-3.47,1.37-5.49,1.72c-2.02.35-4.25.53-6.68.53-1.05,0-2.19-.08-3.41-.24s-2.41-.37-3.59-.63-2.29-.57-3.33-.92-1.91-.72-2.62-1.11c-.39-.6-.79-1.32-1.19-2.17s-.79-1.73-1.16-2.67c-.37-.93-.7-1.85-1.01-2.75-.3-.9-.52-1.7-.66-2.4-.81.04-1.36.24-1.64.63s-.42.92-.42,1.59c0,.74.16,1.66.47,2.75.32,1.09.7,2.25,1.16,3.49-2.01,1.62-4.3,2.76-6.89,3.43s-5.55,1.01-8.9,1.01c-1.37,0-2.8-.05-4.28-.16s-2.91-.31-4.3-.61c-1.39-.3-2.69-.69-3.88-1.19s-2.22-1.14-3.07-1.95c-1.3-2.75-2.69-6.04-4.17-9.88-1.48-3.84-2.92-8.23-4.33-13.15s-2.72-10.38-3.94-16.35c-1.21-5.97-2.19-12.44-2.93-19.41v.02Z"/>
      <path d="M395.66,180.72c0,2.43.27,4.44.79,6.02s1.53,2.84,3.01,3.75c.04.28.05.63.05,1.03v.92c0,2.68-.42,4.98-1.27,6.92-.85,1.94-1.95,3.53-3.3,4.78s-2.9,2.17-4.62,2.77-3.49.9-5.28.9c-1.27,0-2.51-.15-3.72-.45s-2.36-.75-3.43-1.35c-1.08-.6-2.04-1.37-2.91-2.3s-1.54-2.04-2.04-3.3c-.6,0-1.05.16-1.35.47-.3.32-.45.74-.45,1.27,0,.5.16,1.02.47,1.59.32.56.77,1.14,1.37,1.74-1.13.78-2.64,1.36-4.54,1.74s-3.84.58-5.81.58c-3.2,0-6.12-.44-8.74-1.32s-4.88-2.18-6.76-3.91c-1.88-1.72-3.34-3.83-4.39-6.31-1.04-2.48-1.56-5.34-1.56-8.58s.56-6.24,1.66-8.69c1.11-2.45,2.62-4.47,4.52-6.07,1.9-1.6,4.11-2.79,6.63-3.56s5.19-1.16,8-1.16c1.27,0,2.4.05,3.38.13.98.09,1.83.18,2.53.29.81.14,1.5.28,2.06.42.11-.35.16-.65.16-.9,0-.46-.24-.85-.71-1.16s-1.1-.56-1.88-.71c-.78-.16-1.67-.27-2.69-.34s-2.06-.11-3.11-.11c-2.4,0-4.79.27-7.19.79-2.4.53-4.54,1.34-6.45,2.43-.78-1.3-1.4-2.96-1.88-4.97s-.71-4.05-.71-6.13c0-.98.06-1.98.18-2.98.12-1.01.38-1.89.76-2.67.92-.42,2.08-.89,3.51-1.4,1.43-.51,3.08-.98,4.97-1.43s3.96-.82,6.23-1.14,4.71-.47,7.32-.47c4.54,0,8.52.51,11.91,1.53s6.23,2.5,8.48,4.41c2.25,1.92,3.94,4.28,5.07,7.08,1.13,2.8,1.69,5.96,1.69,9.48v10.35h0ZM368.24,183.31c-.81,0-1.38.21-1.72.61s-.5.87-.5,1.4c0,.7.25,1.2.76,1.48s1.11.42,1.82.42c1.13,0,1.99-.28,2.59-.85s.9-1.59.9-3.07h-3.85Z"/>
      <path d="M404.9,173.48h3.27c.92,0,1.59-.16,2.01-.47s.63-.74.63-1.27c0-.21-.04-.42-.11-.63h-11.83c-.39-1.27-.68-2.67-.87-4.2-.19-1.53-.29-3.09-.29-4.68,0-1.02.06-2.19.18-3.51.12-1.32.29-2.42.5-3.3,1.48-.92,2.95-1.9,4.41-2.96,1.46-1.05,2.75-2.01,3.88-2.85.32-.74.69-1.71,1.11-2.91.42-1.2.85-2.45,1.27-3.75.42-1.3.82-2.56,1.21-3.78s.72-2.23,1.01-3.04c1.13-.28,2.62-.53,4.49-.74,1.87-.21,3.77-.32,5.71-.32,1.51,0,3.04.09,4.57.27,1.53.18,3.21.46,5.04.85v12.94h9.14c1.02,1.55,1.79,3.28,2.3,5.2s.76,3.83.76,5.73c0,1.79-.26,3.71-.76,5.73-.51,2.02-1.27,3.78-2.3,5.26h-7.55v7.97c0,2.43.5,4.17,1.48,5.2s2.38,1.56,4.17,1.56h2.27c.28,1.05.53,2.18.76,3.38.23,1.2.34,2.4.34,3.59,0,4.9-1.53,8.63-4.59,11.2-3.07,2.57-7.43,3.85-13.1,3.85-2.85,0-5.45-.39-7.79-1.16-2.34-.77-4.36-1.95-6.05-3.54s-2.99-3.56-3.91-5.94-1.37-5.19-1.37-8.42v-15.27h0Z"/>
      <path d="M473.46,208.51c-4.65,0-8.82-.75-12.52-2.24s-6.85-3.6-9.45-6.31c-2.61-2.71-4.61-5.99-6-9.83s-2.08-8.1-2.08-12.78c0-5.04.85-9.44,2.53-13.21,1.69-3.77,3.93-6.89,6.71-9.38,2.79-2.48,5.96-4.34,9.54-5.57,3.57-1.24,7.26-1.85,11.06-1.85,3.56,0,6.88.45,9.98,1.35,3.1.9,5.79,2.21,8.08,3.94,2.29,1.72,4.1,3.83,5.42,6.31s1.98,5.33,1.98,8.53c0,2.15-.35,4.11-1.05,5.89s-1.69,3.31-2.96,4.59c-1.27,1.29-2.79,2.28-4.57,2.98s-3.74,1.05-5.89,1.05c-1.79,0-3.44-.24-4.94-.74-1.5-.5-2.8-1.19-3.91-2.08s-2.01-1.97-2.72-3.22c-.7-1.25-1.16-2.63-1.37-4.14-.67,0-1.22.11-1.66.34s-.66.68-.66,1.35c0,1.13.33,2.33.98,3.59.65,1.27,1.59,2.44,2.82,3.51,1.23,1.08,2.76,1.98,4.59,2.69,1.83.72,3.94,1.08,6.34,1.08,2.57,0,4.73-.28,6.47-.85,1.74-.56,3.17-1.21,4.3-1.95.74,1.13,1.37,2.5,1.88,4.12.51,1.62.76,3.54.76,5.76,0,2.04-.49,4.07-1.45,6.1-.97,2.02-2.43,3.85-4.39,5.47-1.95,1.62-4.41,2.94-7.37,3.96s-6.45,1.53-10.46,1.53l.02-.02Z"/>
      <path d="M529.14,147.02c-1.72.11-3.34.41-4.86.92-1.52.51-2.84,1.09-3.96,1.74-1.13.65-2.01,1.32-2.67,2.01-.65.69-.98,1.3-.98,1.82,0,.42.15.78.45,1.05.3.28.63.46.98.53.63-.74,1.44-1.47,2.43-2.19.98-.72,2.14-1.37,3.49-1.95,1.34-.58,2.87-1.05,4.59-1.4s3.66-.53,5.81-.53c1.41,0,2.93.12,4.57.37,1.64.24,3.28.69,4.94,1.32s3.24,1.47,4.75,2.51,2.86,2.35,4.04,3.94,2.12,3.47,2.82,5.65,1.05,4.72,1.05,7.61c0,1.59-.02,3.27-.08,5.07s-.08,3.54-.08,5.23c0,2.43.27,4.44.79,6.02s1.53,2.84,3.01,3.75c.04.28.05.63.05,1.03v.92c0,2.5-.39,4.71-1.16,6.63-.78,1.92-1.83,3.53-3.17,4.83-1.34,1.3-2.9,2.28-4.68,2.93-1.78.65-3.67.98-5.68.98-2.11,0-4.13-.29-6.05-.87s-3.61-1.53-5.07-2.85c-1.47-1.32-2.62-3.04-3.49-5.17s-1.3-4.75-1.3-7.84c0-1.66.06-3.22.18-4.7s.27-2.86.42-4.14c.16-1.28.31-2.47.45-3.56.14-1.09.21-2.1.21-3.01,0-1.69-.18-2.85-.56-3.46-.37-.62-.96-.92-1.77-.92-.53,0-1.02.14-1.48.42l.69,8.61c-.18,1.05-.33,2.12-.45,3.2-.12,1.08-.22,2.08-.29,3.04s-.12,1.82-.16,2.59c-.04.78-.05,1.41-.05,1.9,0,2.75.27,5.02.82,6.81.54,1.79,1.17,3.34,1.88,4.65-1.55,1.62-3.56,2.91-6.05,3.88s-5.31,1.45-8.48,1.45c-1.59,0-3.2-.23-4.83-.69s-3.11-1.15-4.44-2.08c-1.32-.93-2.4-2.1-3.25-3.49s-1.27-3.04-1.27-4.94v-61.65c1.62-.95,3.62-1.76,6-2.4,2.38-.65,4.81-.98,7.32-.98,1.83,0,3.62.19,5.36.58,1.74.39,3.29.99,4.65,1.82,1.36.82,2.45,1.9,3.27,3.22.82,1.32,1.24,2.91,1.24,4.78v5.02h0Z"/>
      <path d="M562.37,156.05c.7-.46,1.41-.82,2.11-1.11.7-.28,1.46-.63,2.27-1.05-.67-.35-1.36-.85-2.06-1.48s-1.35-1.4-1.93-2.3-1.05-1.93-1.43-3.09-.56-2.46-.56-3.91c0-2.25.4-4.3,1.19-6.16s1.88-3.43,3.25-4.75,2.98-2.35,4.81-3.09c1.83-.74,3.8-1.11,5.91-1.11s4.13.39,5.94,1.16c1.82.78,3.39,1.83,4.73,3.17,1.34,1.34,2.39,2.93,3.14,4.78.76,1.85,1.14,3.85,1.14,6,0,1.83-.31,3.53-.92,5.1-.62,1.56-1.43,2.97-2.46,4.2-1.02,1.24-2.22,2.27-3.59,3.09-1.37.82-2.8,1.4-4.28,1.72,0,.53.11.99.34,1.4s.63.61,1.19.61c1.76,0,3.59-.7,5.49-2.11.11.07.28.19.53.37s.51.39.79.63.54.48.79.71c.24.23.4.4.47.5v20.92c0,2.43.27,4.52.79,6.26s1.53,3.08,3.01,3.99c.04.28.05.63.05,1.03v.92c0,2.68-.37,4.98-1.11,6.92-.74,1.94-1.78,3.53-3.11,4.78s-2.93,2.17-4.78,2.77-3.87.9-6.05.9c-1.69,0-3.46-.28-5.31-.85s-3.54-1.51-5.07-2.85c-1.53-1.34-2.8-3.13-3.8-5.36-1.01-2.24-1.5-5.03-1.5-8.37v-34.34h0Z"/>
      <path d="M605.58,149.13c1.48,0,2.72.27,3.72.79s1.89,1.2,2.67,2.01c-1.55,1.44-2.33,2.64-2.33,3.59,0,.42.14.8.42,1.14s.76.5,1.43.5c.7-1.24,1.63-2.41,2.77-3.54s2.48-2.11,4.01-2.96,3.24-1.53,5.13-2.04,3.9-.76,6.05-.76c2.53,0,5.11.34,7.74,1.01s4.99,1.83,7.1,3.49c2.11,1.66,3.84,3.91,5.17,6.76s2.01,6.45,2.01,10.77c0,1.59-.02,3.37-.08,5.33-.05,1.98-.08,3.8-.08,5.49,0,2.43.27,4.44.79,6.02s1.53,2.84,3.01,3.75c.04.28.05.63.05,1.03v.92c0,2.5-.39,4.71-1.16,6.63-.78,1.92-1.83,3.53-3.17,4.83-1.34,1.3-2.9,2.28-4.68,2.93-1.78.65-3.67.98-5.68.98-2.11,0-4.13-.29-6.05-.87s-3.61-1.53-5.07-2.85c-1.47-1.32-2.62-3.04-3.49-5.17s-1.3-4.75-1.3-7.84c0-1.66.06-3.22.18-4.7s.27-2.86.42-4.14c.16-1.28.31-2.47.45-3.56.14-1.09.21-2.1.21-3.01,0-1.69-.18-2.85-.56-3.46-.37-.62-.96-.92-1.77-.92-.53,0-1.02.14-1.48.42l.69,8.61c-.18,1.05-.33,2.12-.45,3.2-.12,1.08-.22,2.08-.29,3.04s-.12,1.82-.16,2.59c-.04.78-.05,1.41-.05,1.9,0,2.75.27,5.02.82,6.81s1.17,3.34,1.88,4.65c-1.55,1.62-3.56,2.91-6.05,3.88s-5.31,1.45-8.48,1.45c-1.59,0-3.2-.23-4.83-.69s-3.11-1.15-4.44-2.08c-1.32-.93-2.4-2.1-3.25-3.49s-1.27-3.04-1.27-4.94v-25.57c-1.05-1.48-1.84-3.15-2.35-5.02-.51-1.87-.76-3.82-.76-5.86,0-1.69.26-3.56.76-5.6.51-2.04,1.3-3.85,2.35-5.44h9.42Z"/>
      <path d="M682.76,189.91c-.04.07-.07.19-.11.37s-.05.35-.05.53c0,.74.53,1.25,1.61,1.53s2.51.42,4.3.42c2.6,0,5.16-.22,7.66-.66,2.5-.44,4.63-1.03,6.39-1.77,2.11.56,3.89,1.42,5.33,2.56s2.62,2.44,3.54,3.88,1.57,2.99,1.98,4.65c.4,1.66.61,3.3.61,4.91,0,3.34-.74,6.3-2.22,8.87-1.48,2.57-3.55,4.73-6.2,6.47s-5.84,3.07-9.54,3.96-7.74,1.35-12.15,1.35-8.25-.41-11.54-1.24c-3.3-.82-6.04-1.95-8.24-3.38-2.21-1.43-3.85-3.08-4.94-4.97s-1.64-3.9-1.64-6.05c0-.95.11-1.85.34-2.72.23-.86.53-1.66.9-2.4s.79-1.38,1.27-1.93.98-.96,1.5-1.24c1.66,1.41,4.17,2.59,7.55,3.54s7.49,1.43,12.31,1.43c2.68,0,4.52-.13,5.55-.4s1.53-.76,1.53-1.5c0-.24-.04-.45-.11-.61s-.14-.31-.21-.45c-.85.18-1.9.32-3.17.42s-2.41.16-3.43.16c-2.99,0-5.88-.22-8.66-.66-2.79-.44-5.24-1.19-7.37-2.24s-3.84-2.44-5.13-4.14c-1.29-1.71-1.93-3.83-1.93-6.36,0-1.72.35-3.39,1.05-4.99.7-1.6,1.82-2.81,3.33-3.62-.81-.5-1.63-1.15-2.46-1.98-.83-.82-1.58-1.84-2.24-3.04-.67-1.2-1.21-2.57-1.64-4.12-.42-1.55-.63-3.31-.63-5.28,0-3.45.69-6.53,2.06-9.25,1.37-2.71,3.27-5,5.71-6.87,2.43-1.87,5.32-3.3,8.66-4.28s6.99-1.48,10.93-1.48c2.25,0,4.35.21,6.29.61s3.61.85,5.02,1.35v-3.7c.81-.32,1.91-.6,3.3-.85,1.39-.24,2.91-.37,4.57-.37s3.19.12,4.59.37c1.41.24,2.62.7,3.65,1.37s1.82,1.6,2.4,2.8c.58,1.2.87,2.75.87,4.65,0,.88-.05,1.73-.16,2.56-.11.82-.3,1.65-.58,2.46-.39,1.16-.93,2.33-1.64,3.49.46,1.13.8,2.36,1.03,3.7.23,1.34.34,2.99.34,4.97,0,3.2-.6,6.03-1.79,8.48-1.2,2.45-2.87,4.5-5.02,6.16s-4.72,2.91-7.71,3.75c-2.99.85-6.3,1.27-9.93,1.27-1.13,0-2.24-.05-3.33-.16s-1.9-.21-2.43-.32v.02ZM686.56,169c0-.6-.11-1.07-.34-1.4-.23-.34-.59-.5-1.08-.5-.35,0-.66.11-.92.34-.27.23-.4.64-.4,1.24v5.44c.32.24.67.37,1.05.37.77,0,1.25-.24,1.43-.71s.27-1.22.27-2.24v-2.53h0Z"/>
    </g>
    <g>
      <path d="M175.47,177.75c-.5,0-1-.02-1.52-.05-.52-.04-1.02-.08-1.5-.13s-.92-.11-1.32-.18c-.4-.06-.73-.13-.98-.2-.05.05-.1.12-.13.2-.04.08-.05.19-.05.33,0,.3.42.58,1.27.83.85.26,2.22.38,4.13.38,1.11,0,2.03-.03,2.76-.09s1.37-.14,1.89-.22c.07.14.14.36.2.66.06.3.12.63.18,1.01s.09.76.12,1.17c.02.4.04.77.04,1.08,0,.9-.08,1.67-.24,2.31s-.38,1.21-.66,1.71h-4.9v16.44c-.6.39-1.21.7-1.82.94s-1.22.42-1.82.56c-.59.13-1.16.22-1.69.27-.54.05-1.04.07-1.5.07-.99,0-1.92-.09-2.78-.27s-1.62-.47-2.27-.85c-.64-.38-1.15-.86-1.52-1.44s-.56-1.28-.56-2.09v-12.41h.82c.46,0,.79-.08,1.01-.24s.32-.37.32-.63c0-.11-.02-.21-.05-.32h-4.4c-.51-.74-.89-1.56-1.15-2.47s-.38-1.82-.38-2.72c0-.95.13-1.96.38-3.03.26-1.07.64-2,1.15-2.79h2.3c.21-1.47.61-2.76,1.19-3.89.58-1.13,1.34-2.08,2.27-2.85s2.01-1.34,3.27-1.73c1.25-.39,2.65-.58,4.18-.58,1.22,0,2.33.1,3.33.29,1.01.19,1.9.44,2.69.74s1.46.63,2.02,1.01,1.01.73,1.35,1.08c.07.21.12.44.16.7s.06.5.08.76c.02.24.02.47.02.67v.49c0,.99-.07,1.86-.2,2.62-.13.76-.33,1.48-.6,2.17-.55.21-1.26.38-2.13.52s-1.87.2-2.98.2h0Z"/>
      <path d="M195.48,205.3c-2.07,0-4-.32-5.81-.95s-3.38-1.59-4.71-2.88c-1.34-1.29-2.39-2.89-3.16-4.81-.78-1.92-1.17-4.17-1.17-6.75,0-2.33.36-4.43,1.08-6.31s1.74-3.48,3.04-4.81c1.3-1.32,2.87-2.33,4.69-3.04,1.82-.7,3.83-1.06,6.04-1.06s4.22.38,6.04,1.14,3.37,1.82,4.67,3.19c1.3,1.37,2.3,3,3.01,4.9.72,1.9,1.07,3.98,1.07,6.23s-.34,4.43-1.01,6.3c-.67,1.87-1.64,3.46-2.91,4.78-1.27,1.31-2.82,2.33-4.65,3.03-1.84.7-3.91,1.06-6.22,1.06h0ZM194.87,194.37c.12.12.31.18.56.18.34,0,.56-.1.67-.31.11-.21.18-.53.18-.99v-3.78c0-.79-.02-1.47-.04-2.01s-.08-1-.18-1.35c-.09-.35-.2-.58-.33-.69s-.29-.16-.47-.16c-.16,0-.29.02-.38.08-.1.05-.18.11-.25.18.02.28.05.55.08.79.04.24.06.53.08.83.02.31.04.67.05,1.08.02.41.02.92.02,1.5v4.65Z"/>
      <path d="M216.42,175.55c1.09,0,2.01.18,2.74.53s1.31.85,1.73,1.48c-.23.24-.44.55-.65.9-.21.35-.38.7-.53,1.05-.15.34-.27.67-.36.98s-.13.55-.13.72c0,.21.08.4.24.57s.4.25.74.25c.34-1.3.81-2.4,1.42-3.28s1.3-1.59,2.09-2.11,1.63-.9,2.54-1.12c.91-.22,1.83-.33,2.76-.33.76,0,1.46.05,2.09.14s1.21.22,1.72.38.96.34,1.35.54c.39.21.72.4.98.6.28.74.49,1.53.61,2.36.12.83.18,1.64.18,2.43,0,1.43-.13,2.62-.38,3.57-.26.95-.53,1.74-.83,2.36-.28.14-.63.28-1.06.42-.42.14-.89.27-1.39.37s-1.04.19-1.6.25c-.56.06-1.12.09-1.67.09-.58,0-1.1-.02-1.55-.05s-.86-.08-1.23-.14c-.37-.06-.71-.13-1.02-.21-.31-.08-.63-.15-.94-.22-.14.14-.21.34-.21.61,0,.24.16.44.49.58.33.14.92.29,1.76.45v13.28c-.6.39-1.21.7-1.82.94-.62.24-1.22.42-1.82.56-.59.13-1.16.22-1.69.27-.54.05-1.04.07-1.5.07-.99,0-1.92-.09-2.78-.27s-1.62-.47-2.27-.85c-.64-.38-1.15-.86-1.52-1.44s-.56-1.28-.56-2.09v-13.63c-.53-.74-.92-1.58-1.18-2.52-.26-.94-.38-1.92-.38-2.94,0-.85.13-1.79.38-2.81.26-1.02.65-1.93,1.18-2.72h4.06Z"/>
      <line class="st0" x1="187.56" y1="227" x2="187.56" y2="226.16"/>
    </g>
  </g>
</svg>