<?xml version="1.0" encoding="UTF-8"?>
<svg id="Layer_1" xmlns="http://www.w3.org/2000/svg" version="1.1" viewBox="0 0 529.6 142.4">
  <!-- Generator: Adobe Illustrator 29.6.0, SVG Export Plug-In . SVG Version: 2.1.1 Build 207)  -->
  <g>
    <path d="M23.92,25.43c.04-.36-.03-.71-.19-1.05-.16-.34-.57-.51-1.22-.51h-10.17v-2.6h34.73v2.6h-10.28c-.51,0-.88.11-1.11.32-.24.22-.39.63-.46,1.24l-2.49,29.97c-.07.76-.35,1.41-.84,1.95-.49.54-1.1.99-1.84,1.35-.74.36-1.55.63-2.43.81-.88.18-1.74.27-2.57.27-2.49,0-3.72-.92-3.68-2.76l2.54-31.6Z"/>
    <path d="M53.08,23.05c.04-.76-.02-1.37-.16-1.84-.14-.47-.38-.82-.7-1.05-.32-.23-.7-.4-1.14-.49-.43-.09-.9-.14-1.41-.14l.11-1.73c1.55-.04,3.01-.19,4.38-.46,1.37-.27,2.64-.54,3.81-.81,1.17-.27,2.22-.52,3.14-.76.92-.23,1.7-.35,2.35-.35.5,0,.84.1,1,.3.16.2.23.46.19.78l-1.14,17.31c2.56-1.19,5.04-2.23,7.44-3.11,2.4-.88,4.44-1.33,6.14-1.33,1.84,0,3.25.52,4.22,1.57.97,1.05,1.41,2.45,1.3,4.22l-1.14,15.85c-.11,1.59.29,2.59,1.19,3,.9.42,2.33,0,4.27-1.27l.54.87c-.87,1.05-1.79,1.95-2.79,2.71-.99.76-1.97,1.38-2.95,1.87s-1.93.84-2.87,1.05c-.94.22-1.8.32-2.6.32-2.06,0-3.62-.57-4.68-1.7-1.06-1.14-1.51-2.98-1.33-5.55l1.24-16.34c0-.61-.16-1.09-.49-1.43-.32-.34-.74-.51-1.24-.51-.29,0-.69.05-1.22.16-.52.11-1.09.24-1.7.41-.61.16-1.23.34-1.84.54-.61.2-1.17.41-1.68.62l-1.52,23.32-11.14.6,2.38-36.63Z"/>
    <path d="M121.73,51.35c-.14,1.55.24,2.53,1.16,2.95.92.41,2.35,0,4.3-1.27l.59.87c-.87,1.08-1.78,1.99-2.73,2.73-.96.74-1.92,1.35-2.89,1.84-.97.49-1.92.84-2.84,1.05-.92.22-1.78.32-2.57.32-1.51,0-2.75-.27-3.71-.81-.96-.54-1.63-1.44-2.03-2.71-.61,1.15-1.5,2.03-2.65,2.62-1.15.59-2.43.89-3.84.89-1.98,0-3.84-.25-5.57-.76s-3.24-1.31-4.52-2.41c-1.28-1.1-2.29-2.51-3.03-4.22-.74-1.71-1.11-3.76-1.11-6.14,0-3.06.53-5.65,1.6-7.76,1.06-2.11,2.41-3.82,4.03-5.14,1.62-1.32,3.41-2.26,5.36-2.84,1.95-.58,3.79-.87,5.52-.87s3.16.31,4.38.92c1.23.61,2.16,1.53,2.81,2.76l8.06-3.68h1.03l-1.35,21.64ZM111.89,34.47c.04-.43-.06-.83-.3-1.19-.24-.36-.55-.67-.95-.92-.4-.25-.83-.44-1.3-.57-.47-.13-.94-.19-1.41-.19-.97,0-1.88.29-2.71.87-.83.58-1.55,1.5-2.16,2.76-.61,1.26-1.1,2.9-1.46,4.92-.36,2.02-.54,4.46-.54,7.3,0,1.55.06,2.97.19,4.25.13,1.28.36,2.37.7,3.27.34.9.8,1.6,1.38,2.08.58.49,1.3.73,2.16.73.32,0,.71-.05,1.16-.14.45-.09.92-.26,1.41-.51.49-.25.96-.62,1.43-1.11.47-.49.87-1.11,1.19-1.87v-.73c0-.23.02-.5.05-.78l1.14-18.18Z"/>
    <path d="M134.12,37.17c.04-.76-.02-1.36-.16-1.81-.14-.45-.38-.79-.7-1.03-.32-.23-.7-.4-1.14-.49-.43-.09-.88-.14-1.35-.14l.11-1.79c1.52-.04,2.96-.18,4.33-.43,1.37-.25,2.63-.52,3.79-.81,1.15-.29,2.19-.54,3.11-.76.92-.22,1.69-.32,2.3-.32.5,0,.84.1,1,.3.16.2.24.46.24.78l-.27,3.57c2.71-1.26,5.25-2.33,7.63-3.22s4.42-1.33,6.11-1.33,3.02.51,3.87,1.52c.85,1.01,1.2,2.38,1.05,4.11l-1.08,16.01c-.07.72,0,1.32.22,1.78.22.47.56.78,1.03.95.47.16,1.06.14,1.79-.08.72-.22,1.57-.63,2.54-1.24l.59.81c-.87,1.08-1.81,2.01-2.84,2.79-1.03.78-2.07,1.43-3.11,1.95-1.05.52-2.07.91-3.06,1.16-.99.25-1.87.38-2.62.38-2.06,0-3.56-.56-4.52-1.68-.96-1.12-1.34-2.96-1.16-5.52l1.14-16.88c.07-.94-.29-1.41-1.08-1.41-.32,0-.76.05-1.3.16-.54.11-1.13.26-1.76.46-.63.2-1.26.41-1.89.65-.63.24-1.18.46-1.65.68l-1.52,22.78-11.09.54,1.46-22.45Z"/>
    <path d="M176,23.05c.04-.76-.03-1.37-.19-1.84-.16-.47-.41-.82-.73-1.05-.32-.23-.7-.4-1.14-.49-.43-.09-.88-.14-1.35-.14l.05-1.73c1.55-.04,3.02-.18,4.41-.43,1.39-.25,2.67-.52,3.84-.81,1.17-.29,2.22-.55,3.14-.78.92-.23,1.7-.35,2.35-.35.5,0,.84.1,1,.3.16.2.23.46.19.78l-1.57,23.16c.9-1.62,2-3.07,3.3-4.36,1.3-1.28,2.68-2.37,4.14-3.27,1.46-.9,2.92-1.6,4.38-2.08,1.46-.49,2.8-.73,4.03-.73.72,0,1.41.14,2.06.43.65.29,1.01.67,1.08,1.14l-3.9,7.74h-.76l-2.22-5.79c-.36.04-.94.24-1.73.62-.79.38-1.67.9-2.62,1.57-.96.67-1.93,1.47-2.92,2.41-.99.94-1.89,1.98-2.68,3.14,2.52-.04,4.73.11,6.63.43,1.89.32,3.46.88,4.71,1.68,1.24.79,2.14,1.86,2.68,3.19.54,1.33.74,2.99.6,4.98-.07.79,0,1.46.24,2,.23.54.6.92,1.11,1.14.5.22,1.15.24,1.95.05.79-.18,1.71-.59,2.76-1.24l.76.92c-.87,1.05-1.85,1.96-2.95,2.73-1.1.78-2.22,1.42-3.35,1.92-1.14.51-2.24.87-3.3,1.11-1.06.23-1.99.35-2.79.35-3.93,0-5.9-3.07-5.9-9.2,0-1.05-.04-2.08-.11-3.11s-.23-1.97-.46-2.81c-.24-.85-.59-1.58-1.05-2.19-.47-.61-1.08-1.05-1.84-1.3-.47.72-.95,1.52-1.43,2.38-.49.87-.77,1.71-.84,2.54l-.81,12.98-11.14.6,2.38-36.57Z"/>
    <path d="M238.1,52.75c-.07.83-.05,1.52.08,2.08.13.56.32,1.01.6,1.35.27.34.59.59.95.76.36.16.74.24,1.14.24.32,0,.74-.03,1.24-.08.5-.05,1.04-.16,1.6-.32.56-.16,1.1-.41,1.62-.76.52-.34.98-.82,1.38-1.43l1.3-17.75c.07-.61,0-1.19-.24-1.73-.24-.54-.68-.78-1.33-.7h-1.52v-2.33h1.46c1.44-.14,2.77-.38,3.98-.7,1.21-.32,2.31-.65,3.3-.97.99-.32,1.87-.62,2.65-.89.78-.27,1.47-.42,2.08-.46.47-.04.78.07.95.32.16.25.23.54.19.87l-2.22,32.03c-.14,1.91-.59,3.65-1.33,5.22s-1.82,2.92-3.25,4.06c-1.43,1.14-3.2,2.01-5.33,2.62-2.13.61-4.64.92-7.52.92-1.84,0-3.53-.2-5.06-.59-1.53-.4-2.86-1.02-3.98-1.87-1.12-.85-1.97-1.96-2.57-3.33-.59-1.37-.89-3.05-.89-5.03h2.87c-.07,2.6.6,4.49,2.03,5.68,1.42,1.19,3.44,1.8,6.03,1.84,2.16.04,3.91-.62,5.25-1.97,1.33-1.35,2.11-3.49,2.33-6.41l.54-5.79c-.79.65-1.75,1.15-2.87,1.52-1.12.36-2.25.58-3.41.65-4.36.22-7.67-.54-9.93-2.27-2.25-1.73-3.18-4.33-2.79-7.79l.97-13.8c.04-.4-.08-.7-.35-.92s-.55-.32-.84-.32c-.4,0-.8.06-1.22.19-.41.13-.77.3-1.05.51l-.87-1.3c1.26-1.26,2.79-2.32,4.57-3.17,1.79-.85,3.6-1.27,5.44-1.27,1.62,0,2.93.36,3.92,1.08.99.72,1.45,1.84,1.38,3.35l-1.3,18.66Z"/>
    <path d="M266.4,46.31c0-3.06.57-5.65,1.7-7.76,1.14-2.11,2.57-3.82,4.3-5.14,1.73-1.32,3.62-2.26,5.65-2.84,2.04-.58,3.98-.87,5.82-.87,2.02,0,3.93.26,5.73.78,1.8.52,3.39,1.33,4.76,2.41,1.37,1.08,2.45,2.48,3.25,4.19.79,1.71,1.19,3.76,1.19,6.14,0,3.07-.57,5.65-1.7,7.76s-2.57,3.82-4.3,5.14c-1.73,1.32-3.62,2.26-5.65,2.84-2.04.58-3.98.87-5.82.87-2.02,0-3.93-.26-5.73-.78-1.8-.52-3.39-1.33-4.76-2.41-1.37-1.08-2.45-2.48-3.25-4.19-.79-1.71-1.19-3.76-1.19-6.14ZM277.38,47.88c0,3.17.29,5.68.87,7.52.58,1.84,1.62,2.76,3.14,2.76.65,0,1.34-.3,2.08-.89.74-.6,1.43-1.54,2.08-2.84.65-1.3,1.19-2.99,1.62-5.09.43-2.09.65-4.65.65-7.68s-.29-5.67-.87-7.49c-.58-1.82-1.62-2.73-3.14-2.73-.65,0-1.34.29-2.08.87-.74.58-1.43,1.52-2.08,2.81s-1.19,2.99-1.62,5.09c-.43,2.09-.65,4.65-.65,7.68Z"/>
    <path d="M327.32,37.17c.04-.76-.03-1.36-.19-1.81-.16-.45-.4-.79-.7-1.03-.31-.23-.68-.4-1.11-.49-.43-.09-.88-.14-1.35-.14l.05-1.79c1.55-.04,3.01-.18,4.38-.43,1.37-.25,2.63-.52,3.79-.81,1.15-.29,2.18-.54,3.08-.76.9-.22,1.66-.32,2.27-.32.5,0,.87.14,1.08.43.22.29.31.6.27.92l-1.68,20.18c-.11,1.55.33,2.52,1.33,2.89.99.38,2.44-.06,4.36-1.33l.7.87c-.87,1.08-1.8,2-2.81,2.76-1.01.76-2.02,1.38-3.03,1.87-1.01.49-2,.85-2.98,1.08-.97.23-1.86.35-2.65.35-1.41,0-2.59-.27-3.54-.81-.96-.54-1.65-1.39-2.08-2.54-.83,1.15-1.87,2.02-3.11,2.6s-2.64.9-4.19.97c-4.4.25-7.72-.49-9.95-2.22-2.24-1.73-3.21-4.33-2.92-7.79l1.08-13.9c.04-.4-.09-.7-.38-.92-.29-.22-.58-.32-.87-.32-.4,0-.79.06-1.19.19-.4.13-.74.3-1.03.51l-.87-1.3c1.26-1.26,2.83-2.32,4.71-3.17,1.87-.85,3.73-1.27,5.57-1.27,1.62,0,2.93.36,3.92,1.08.99.72,1.45,1.84,1.38,3.35l-1.35,18.77c-.07.83-.05,1.52.05,2.08.11.56.29,1.01.54,1.35.25.34.55.6.89.76.34.16.71.24,1.11.24.36,0,.84-.04,1.43-.14.59-.09,1.2-.28,1.81-.57.61-.29,1.18-.72,1.7-1.3.52-.58.93-1.35,1.22-2.33l1.24-15.8Z"/>
  </g>
  <g>
    <path d="M151.68,104.75h2.71l.24-3.74c.05-.78.22-1.49.53-2.12.3-.63.7-1.18,1.19-1.63.49-.46,1.05-.81,1.68-1.06.63-.25,1.3-.39,2-.42,2.24-.06,3.74.68,4.49,2.23.1.19.14.46.14.8s-.04.7-.13,1.06c-.09.36-.21.7-.36,1.02-.15.32-.34.55-.56.7l-2.23-1.82-.02-.31,1.92-.86c0-.3-.09-.57-.26-.8-.18-.23-.4-.41-.66-.53-.26-.12-.55-.19-.85-.22-.3-.02-.57.01-.79.11-.22.1-.4.23-.54.41-.14.18-.24.41-.32.7-.08.29-.14.64-.18,1.04-.04.41-.08.88-.11,1.43l-.29,4.03h3.43v1.15h-3.5l-.67,10.32c-.08,1.58-.6,2.84-1.56,3.78-.96.94-2.26,1.45-3.89,1.55-.7.03-1.34-.05-1.91-.25-.57-.2-1.08-.64-1.55-1.33l.72-.67c.1.16.23.31.4.46.17.14.36.27.56.37.21.1.42.18.64.22.22.04.42.03.61-.04.21-.06.38-.17.5-.31.13-.14.23-.35.3-.62.07-.27.12-.62.16-1.04.03-.42.07-.95.12-1.57l.7-10.85h-2.64v-1.15Z"/>
    <path d="M164.18,108.83c0-1.36.25-2.51.76-3.44.5-.94,1.14-1.7,1.91-2.28.77-.58,1.6-1,2.51-1.26.9-.26,1.76-.38,2.58-.38.9,0,1.74.12,2.54.35.8.23,1.5.59,2.11,1.07.61.48,1.09,1.1,1.44,1.86.35.76.53,1.67.53,2.72,0,1.36-.25,2.51-.76,3.44s-1.14,1.7-1.91,2.28c-.77.58-1.6,1-2.51,1.26-.9.26-1.76.38-2.58.38-.9,0-1.74-.12-2.54-.35-.8-.23-1.5-.59-2.11-1.07-.61-.48-1.09-1.1-1.44-1.86-.35-.76-.53-1.67-.53-2.72ZM169.06,109.52c0,1.41.13,2.52.38,3.34.26.82.72,1.22,1.39,1.22.29,0,.6-.13.92-.4.33-.26.64-.68.92-1.26.29-.58.53-1.33.72-2.26.19-.93.29-2.06.29-3.41s-.13-2.52-.38-3.32c-.26-.81-.72-1.21-1.39-1.21-.29,0-.6.13-.92.38-.33.26-.64.67-.92,1.25s-.53,1.33-.72,2.26c-.19.93-.29,2.06-.29,3.41Z"/>
    <path d="M182.26,104.77c.02-.34,0-.6-.07-.8-.06-.2-.17-.35-.31-.46-.14-.1-.31-.18-.5-.22-.19-.04-.39-.06-.6-.06l.05-.79c.69-.02,1.34-.08,1.94-.19.61-.11,1.17-.23,1.68-.36.51-.13.97-.24,1.37-.34.4-.1.74-.14,1.01-.14.22,0,.37.04.44.13.07.09.11.2.11.35l-.17,2.45c.5-.24.97-.52,1.43-.83s.88-.62,1.27-.94c.39-.31.74-.62,1.06-.94.31-.31.57-.59.78-.83.27.08.55.27.84.56.29.3.55.64.78,1.02.23.38.42.78.58,1.19.15.41.23.76.23,1.07l-7.06,1.08-.58,8.76-4.92.24.65-9.96Z"/>
  </g>
  <g>
    <path d="M237.28,115.59c-1.99.07-3.64-.2-4.94-.8s-2.34-1.48-3.12-2.62c-1.28,1.07-2.64,1.87-4.09,2.4-1.44.53-2.98.85-4.62.96-1.92.07-3.6-.16-5.02-.69-1.42-.53-2.6-1.31-3.52-2.32-.93-1.02-1.59-2.23-2-3.63-.41-1.41-.54-2.96-.4-4.67l.8-11.27c.03-.68,0-1.26-.11-1.76-.11-.5-.31-.85-.61-1.07-.3-.21-.69-.25-1.15-.11-.46.14-1.03.5-1.71,1.07l-.91-1.44c.46-.64,1.04-1.2,1.74-1.68.69-.48,1.44-.89,2.24-1.23.8-.34,1.62-.6,2.46-.77.84-.18,1.63-.27,2.38-.27,1.96,0,3.53.61,4.73,1.82,1.19,1.21,1.74,2.88,1.63,5.02l-1.18,16.13c-.11,1.6.11,2.7.64,3.29.53.59,1.14.92,1.82.99.92.11,1.93-.14,3.02-.75,1.09-.61,1.99-1.48,2.7-2.62-.29-.89-.45-1.83-.51-2.83-.05-1-.03-2.05.08-3.15l.91-10.74c.03-.57.03-1.08-.03-1.52-.05-.44-.18-.78-.37-1.01-.2-.23-.47-.33-.83-.29-.36.04-.82.23-1.39.59l-.64-1.23c.96-1.28,2.01-2.2,3.15-2.75,1.14-.55,2.28-.86,3.42-.93,2.24-.11,3.86.47,4.86,1.74,1,1.26,1.46,2.96,1.39,5.1l-1.23,15.38c-.21,1.82-.17,3.13.13,3.95.3.82.7,1.26,1.2,1.34.32.07.7.03,1.12-.13s.88-.42,1.36-.77c.48-.36.96-.79,1.44-1.31.48-.52.93-1.11,1.36-1.79.53-.89,1.02-2.04,1.47-3.45.44-1.41.83-2.88,1.15-4.43s.56-3.1.72-4.65.2-2.95.13-4.19c-.11-1.71-.82-2.56-2.14-2.56h-1.66v-2.19h1.55c1.18,0,2.2-.14,3.07-.43.87-.28,1.64-.6,2.3-.93.66-.34,1.23-.65,1.71-.93.48-.28.92-.45,1.31-.48.5-.03.85.09,1.07.37.21.29.3.59.27.91,0,5.73-.68,10.57-2.03,14.5-1.35,3.93-3.35,7.36-5.98,10.28-.82.89-1.66,1.63-2.51,2.22-.86.59-1.68,1.05-2.48,1.39-.8.34-1.56.58-2.27.72-.71.14-1.34.23-1.87.27Z"/>
    <path d="M289.42,107.1c-.14,1.53.24,2.5,1.15,2.91.91.41,2.32,0,4.25-1.26l.59.85c-.86,1.07-1.75,1.97-2.7,2.7-.94.73-1.9,1.34-2.86,1.82s-1.9.83-2.8,1.04c-.91.21-1.75.32-2.54.32-1.5,0-2.72-.27-3.66-.8-.94-.53-1.61-1.42-2-2.67-.61,1.14-1.48,2-2.62,2.59-1.14.59-2.4.88-3.79.88-1.96,0-3.79-.25-5.5-.75s-3.2-1.29-4.46-2.38c-1.26-1.09-2.26-2.47-2.99-4.17-.73-1.69-1.09-3.71-1.09-6.06,0-3.03.52-5.58,1.57-7.66,1.05-2.08,2.38-3.77,3.98-5.07,1.6-1.3,3.36-2.23,5.29-2.8,1.92-.57,3.74-.85,5.45-.85s3.12.3,4.33.91c1.21.61,2.14,1.51,2.78,2.72l7.96-3.63h1.01l-1.33,21.37ZM279.69,90.43c.03-.43-.06-.82-.29-1.17-.23-.36-.54-.66-.93-.91-.39-.25-.82-.44-1.28-.56-.46-.12-.93-.19-1.39-.19-.96,0-1.85.29-2.67.85-.82.57-1.53,1.48-2.14,2.72-.61,1.25-1.09,2.87-1.44,4.86-.36,1.99-.53,4.4-.53,7.21,0,1.53.06,2.93.19,4.19.13,1.26.36,2.34.7,3.23.34.89.79,1.58,1.36,2.06.57.48,1.28.72,2.14.72.32,0,.7-.04,1.15-.13.45-.09.91-.26,1.39-.51.48-.25.95-.61,1.42-1.09.46-.48.85-1.1,1.18-1.84v-.72c0-.23.02-.49.05-.77l1.12-17.95Z"/>
    <path d="M311.47,107.26c-.11,1.53.36,2.43,1.41,2.7,1.05.27,2.52-.24,4.41-1.52l.59.8c-.85,1.07-1.77,1.99-2.75,2.75-.98.77-1.97,1.4-2.96,1.9-1,.5-1.97.87-2.91,1.12-.94.25-1.81.37-2.59.37-1.99,0-3.57-.53-4.73-1.6s-1.65-2.85-1.47-5.34l1.49-20.35h-4.81v-2.14c1.64-.46,3.26-1.12,4.86-1.98,1.6-.85,3.09-1.85,4.46-2.99,1.37-1.14,2.56-2.39,3.58-3.74,1.01-1.35,1.77-2.76,2.27-4.22h1.55l-.86,12.66h6.25v2.4h-6.41l-1.39,19.18Z"/>
    <path d="M334.5,115.48c-1.53,0-3.03-.29-4.49-.88-1.46-.59-2.76-1.45-3.9-2.59-1.14-1.14-2.06-2.54-2.75-4.19-.7-1.66-1.04-3.55-1.04-5.69,0-2.71.5-5.08,1.5-7.13,1-2.05,2.35-3.76,4.06-5.13,1.71-1.37,3.69-2.4,5.96-3.1,2.26-.69,4.65-1.04,7.18-1.04.64,0,1.36.05,2.16.16.8.11,1.59.27,2.38.48s1.53.49,2.24.83c.71.34,1.28.74,1.71,1.2l-3.42,8.23h-.53l-3.04-8.87c-.11-.11-.34-.16-.69-.16h-.96c-.96,0-1.9.33-2.8.99-.91.66-1.73,1.58-2.46,2.75-.73,1.18-1.32,2.59-1.76,4.25-.45,1.66-.67,3.5-.67,5.53,0,1.25.13,2.41.4,3.5.27,1.09.67,2.02,1.2,2.8.53.78,1.18,1.4,1.95,1.84.77.45,1.65.67,2.64.67,1.25,0,2.58-.21,4.01-.64,1.42-.43,2.76-1.05,4.01-1.87l.69.75c-1.17,2.42-2.95,4.25-5.31,5.47-2.37,1.23-5.12,1.84-8.25,1.84Z"/>
    <path d="M356.34,79.16c.04-.75-.02-1.35-.16-1.82-.14-.46-.37-.81-.69-1.04-.32-.23-.69-.39-1.12-.48-.43-.09-.89-.13-1.39-.13l.11-1.71c1.53-.03,2.97-.19,4.33-.45,1.35-.27,2.61-.53,3.77-.8s2.19-.52,3.1-.75c.91-.23,1.68-.35,2.32-.35.5,0,.83.1.99.29.16.2.22.45.19.77l-1.12,17.09c2.53-1.18,4.98-2.2,7.34-3.07,2.37-.87,4.39-1.31,6.06-1.31,1.82,0,3.2.52,4.17,1.55.96,1.03,1.39,2.42,1.28,4.17l-1.12,15.65c-.11,1.57.28,2.56,1.18,2.96.89.41,2.3,0,4.22-1.26l.53.85c-.85,1.03-1.77,1.92-2.75,2.67-.98.75-1.95,1.36-2.91,1.84-.96.48-1.91.83-2.83,1.04s-1.78.32-2.56.32c-2.03,0-3.57-.56-4.62-1.68-1.05-1.12-1.49-2.95-1.31-5.47l1.23-16.13c0-.61-.16-1.08-.48-1.42-.32-.34-.73-.51-1.23-.51-.29,0-.69.05-1.2.16-.52.11-1.08.24-1.68.4-.61.16-1.21.34-1.82.53-.61.2-1.16.4-1.66.61l-1.5,23.02-11,.59,2.35-36.16Z"/>
    <path d="M397.09,89.58c-.78.14-1.58.27-2.4.37s-1.67.2-2.56.27v-1.92c2.56-.32,5.19-.89,7.88-1.71,2.69-.82,5.21-1.83,7.56-3.04h.96l-1.6,23.77c-.11,1.57.36,2.48,1.39,2.72,1.03.25,2.49-.25,4.38-1.5l.64.8c-.85,1.07-1.78,1.99-2.78,2.75-1,.77-1.99,1.4-2.99,1.9-1,.5-1.98.87-2.94,1.12-.96.25-1.83.37-2.62.37-1.99,0-3.56-.53-4.7-1.6-1.14-1.07-1.62-2.85-1.44-5.34l1.23-18.96ZM398.59,74.09c0-1.82.56-3.2,1.68-4.14,1.12-.94,2.54-1.42,4.25-1.42s3.13.47,4.27,1.42c1.14.94,1.71,2.32,1.71,4.14s-.57,3.12-1.71,4.14c-1.14,1.01-2.56,1.52-4.27,1.52s-3.12-.51-4.25-1.52c-1.12-1.01-1.68-2.39-1.68-4.14Z"/>
    <path d="M419.47,93.1c.03-.75-.02-1.34-.16-1.79-.14-.44-.37-.78-.69-1.01-.32-.23-.7-.39-1.12-.48-.43-.09-.87-.13-1.34-.13l.11-1.76c1.5-.03,2.92-.18,4.27-.43,1.35-.25,2.6-.52,3.74-.8,1.14-.28,2.16-.53,3.07-.75.91-.21,1.66-.32,2.27-.32.5,0,.83.1.99.29.16.2.24.45.24.77l-.27,3.53c2.67-1.25,5.18-2.31,7.53-3.18,2.35-.87,4.36-1.31,6.04-1.31s2.98.5,3.82,1.5c.84,1,1.18,2.35,1.04,4.06l-1.07,15.81c-.07.71,0,1.3.21,1.76.21.46.55.77,1.02.94.46.16,1.05.13,1.76-.08.71-.21,1.55-.62,2.51-1.23l.59.8c-.85,1.07-1.79,1.99-2.8,2.75-1.02.77-2.04,1.41-3.07,1.92-1.03.52-2.04.9-3.02,1.15-.98.25-1.84.37-2.59.37-2.03,0-3.52-.55-4.46-1.66-.94-1.1-1.33-2.92-1.15-5.45l1.12-16.66c.07-.93-.29-1.39-1.07-1.39-.32,0-.75.05-1.28.16s-1.11.26-1.74.45c-.62.2-1.25.41-1.87.64-.62.23-1.17.45-1.63.67l-1.5,22.49-10.95.53,1.44-22.17Z"/>
    <path d="M466.05,117.25c-1.07.39-1.88,1.07-2.43,2.03-.55.96-.79,2.12-.72,3.47.07.93.41,1.68,1.01,2.27.61.59,1.33,1.04,2.16,1.36.84.32,1.72.53,2.64.64.92.11,1.76.16,2.51.16.68,0,1.42-.04,2.24-.11s1.61-.21,2.38-.43c.76-.21,1.49-.49,2.16-.83.68-.34,1.23-.77,1.66-1.31.36-.43.63-.99.83-1.68s.28-1.42.24-2.16c-.04-.75-.21-1.48-.53-2.19-.32-.71-.85-1.32-1.6-1.82-.78-.46-1.67-.78-2.67-.96-1-.18-2.04-.29-3.12-.32-1.09-.04-2.2-.05-3.34-.03-1.14.02-2.24-.03-3.31-.13-1.82-.18-3.28-.68-4.38-1.52-1.1-.84-1.75-1.93-1.92-3.29-.21-1.1.04-2.24.77-3.42.73-1.17,1.66-2.15,2.8-2.94-1.14-.5-2.04-1.2-2.7-2.11s-1.02-1.95-1.09-3.12c-.11-2.14.24-4.01,1.04-5.61.8-1.6,1.93-2.96,3.39-4.06,1.46-1.1,3.21-1.96,5.23-2.56,2.03-.61,4.2-.96,6.52-1.07,2.78-.11,5.09.07,6.94.53,1.64-.53,3.02-1.26,4.14-2.16,1.12-.91,2-1.82,2.64-2.75.53.18,1.1.53,1.71,1.04.61.52,1.15,1.09,1.63,1.74s.87,1.31,1.18,2c.3.69.44,1.27.4,1.74l-7.32.43c1.6,1.28,2.46,2.9,2.56,4.86.14,2.39-.21,4.34-1.07,5.85-.86,1.51-2.04,2.72-3.55,3.61-1.51.89-3.29,1.53-5.31,1.92-2.03.39-4.13.64-6.3.75-1.35.07-2.61.09-3.77.05-1.16-.03-2.2-.12-3.12-.27l-.75.59c-.29.21-.49.62-.61,1.23-.13.61,0,1.09.4,1.44.25.25.52.45.8.61.28.16.65.29,1.09.4.44.11,1.02.18,1.71.21.69.04,1.59.04,2.7,0,2.67-.14,5.07-.17,7.21-.08,2.14.09,4.01.38,5.61.88,1.6.5,2.92,1.22,3.95,2.16,1.03.94,1.78,2.18,2.24,3.71.28.93.44,1.9.48,2.91.03,1.01-.09,2.01-.37,2.99-.29.98-.74,1.92-1.36,2.83s-1.45,1.7-2.48,2.38c-1.89,1.35-4.16,2.26-6.81,2.72-2.65.46-5.65.69-9,.69-5.2,0-9.13-.67-11.78-2-2.65-1.34-4.03-3.09-4.14-5.26-.07-1.28.13-2.38.61-3.28s1.18-1.66,2.11-2.24c.93-.59,2.06-1.01,3.39-1.28s2.82-.37,4.46-.29v1.07ZM475.83,87.66c-.89.04-1.74.27-2.54.69-.8.43-1.49,1.07-2.08,1.92-.59.85-1.04,1.96-1.36,3.31-.32,1.35-.43,2.96-.32,4.81.03,1.1.2,1.97.48,2.59.28.62.61,1.08.99,1.36.37.29.78.45,1.2.51s.84.08,1.23.08c.93-.03,1.79-.25,2.59-.64.8-.39,1.5-1,2.08-1.82.59-.82,1.03-1.88,1.34-3.18.3-1.3.4-2.89.29-4.78s-.51-3.18-1.2-3.87c-.69-.69-1.59-1.02-2.7-.99Z"/>
    <path d="M497.78,115.48c0-1.82.54-3.21,1.63-4.19,1.09-.98,2.48-1.47,4.19-1.47s3.13.49,4.27,1.47c1.14.98,1.71,2.38,1.71,4.19s-.57,3.15-1.71,4.22c-1.14,1.07-2.56,1.6-4.27,1.6s-3.11-.53-4.19-1.6c-1.09-1.07-1.63-2.48-1.63-4.22ZM502.43,75.64h12.07c.39,0,.7.12.91.35.21.23.28.54.21.93l-1.28,8.81-6.2,17.36c-.07.21-.21.51-.4.88-.2.37-.46.73-.8,1.07s-.79.64-1.36.91c-.57.27-1.26.4-2.08.4-1.03,0-1.73-.21-2.08-.64-.36-.43-.52-.89-.48-1.39l1.5-28.68Z"/>
  </g>
</svg>